EkkamaiVibe-Light.ufo
<glyph name="exclam" format="2">
  <advance width="191"/>
  <unicode hex="0021"/>
  <outline>
    <contour>
      <point x="110" y="783" type="line"/>
      <point x="110" y="143" type="line"/>
      <point x="80" y="143" type="line"/>
      <point x="80" y="783" type="line"/>
    </contour>
    <contour>
      <point x="121" y="52" type="line"/>
      <point x="121" y="0" type="line"/>
      <point x="71" y="0" type="line"/>
      <point x="71" y="52" type="line"/>
    </contour>
  </outline>
</glyph>
<glyph name="quotedbl" format="2">
  <advance width="241"/>
  <unicode hex="0022"/>
  <outline>
    <contour>
      <point x="157" y="670" type="line"/>
      <point x="181" y="670" type="line"/>
      <point x="181" y="559" type="line"/>
      <point x="157" y="559" type="line"/>
    </contour>
    <contour>
      <point x="30" y="559" type="line"/>
      <point x="30" y="670" type="line"/>
      <point x="54" y="670" type="line"/>
      <point x="54" y="559" type="line"/>
    </contour>
  </outline>
</glyph>
<glyph name="numbersign" format="2">
  <advance width="700"/>
  <unicode hex="0023"/>
  <outline>
    <contour>
      <point x="23" y="215" type="line"/>
      <point x="34" y="247" type="line"/>
      <point x="150" y="247" type="line"/>
      <point x="234" y="496" type="line"/>
      <point x="119" y="496" type="line"/>
      <point x="129" y="527" type="line"/>
      <point x="245" y="527" type="line"/>
      <point x="302" y="698" type="line"/>
      <point x="336" y="698" type="line"/>
      <point x="278" y="527" type="line"/>
      <point x="539" y="527" type="line"/>
      <point x="595" y="697" type="line"/>
      <point x="630" y="697" type="line"/>
      <point x="572" y="527" type="line"/>
      <point x="694" y="527" type="line"/>
      <point x="683" y="496" type="line"/>
      <point x="562" y="496" type="line"/>
      <point x="479" y="247" type="line"/>
      <point x="599" y="247" type="line"/>
      <point x="588" y="215" type="line"/>
      <point x="466" y="215" type="line"/>
      <point x="394" y="0" type="line"/>
      <point x="361" y="0" type="line"/>
      <point x="433" y="215" type="line"/>
      <point x="172" y="215" type="line"/>
      <point x="100" y="0" type="line"/>
      <point x="65" y="0" type="line"/>
      <point x="139" y="215" type="line"/>
    </contour>
    <contour>
      <point x="183" y="247" type="line"/>
      <point x="444" y="247" type="line"/>
      <point x="528" y="496" type="line"/>
      <point x="268" y="496" type="line"/>
    </contour>
  </outline>
</glyph>
<glyph name="dollar" format="2">
  <advance width="601"/>
  <unicode hex="0024"/>
  <outline>
    <contour>
      <point x="63" y="105" type="line"/>
      <point x="85" y="87"/>
      <point x="139" y="65"/>
      <point x="198" y="54"/>
      <point x="258" y="50"/>
      <point x="285" y="50" type="qcurve" smooth="yes"/>
      <point x="298" y="50" type="line" smooth="yes"/>
      <point x="304" y="50"/>
      <point x="311" y="51" type="qcurve"/>
      <point x="352" y="53"/>
      <point x="430" y="76"/>
      <point x="490" y="123"/>
      <point x="526" y="192"/>
      <point x="526" y="239" type="qcurve" smooth="yes"/>
      <point x="526" y="282"/>
      <point x="480" y="357"/>
      <point x="436" y="369" type="qcurve" smooth="yes"/>
      <point x="405" y="377"/>
      <point x="343" y="391"/>
      <point x="311" y="399" type="qcurve" smooth="yes"/>
      <point x="303" y="401"/>
      <point x="289" y="404"/>
      <point x="281" y="406" type="qcurve" smooth="yes"/>
      <point x="245" y="415"/>
      <point x="166" y="437"/>
      <point x="100" y="475"/>
      <point x="58" y="536"/>
      <point x="58" y="583" type="qcurve" smooth="yes"/>
      <point x="58" y="626"/>
      <point x="95" y="690"/>
      <point x="155" y="733"/>
      <point x="231" y="757"/>
      <point x="269" y="760" type="qcurve"/>
      <point x="281" y="760" type="line"/>
      <point x="281" y="840" type="line"/>
      <point x="311" y="840" type="line"/>
      <point x="311" y="761" type="line"/>
      <point x="323" y="761" type="line"/>
      <point x="347" y="760"/>
      <point x="401" y="756"/>
      <point x="455" y="745"/>
      <point x="504" y="726"/>
      <point x="522" y="711" type="qcurve"/>
      <point x="501" y="688" type="line"/>
      <point x="484" y="700"/>
      <point x="437" y="716"/>
      <point x="384" y="726"/>
      <point x="332" y="730"/>
      <point x="311" y="731" type="qcurve"/>
      <point x="274" y="731"/>
      <point x="195" y="719"/>
      <point x="129" y="686"/>
      <point x="87" y="627"/>
      <point x="87" y="581" type="qcurve" smooth="yes"/>
      <point x="87" y="549"/>
      <point x="116" y="504"/>
      <point x="161" y="474"/>
      <point x="215" y="455"/>
      <point x="239" y="449" type="qcurve" smooth="yes"/>
      <point x="250" y="447"/>
      <point x="270" y="441"/>
      <point x="281" y="438" type="qcurve" smooth="yes"/>
      <point x="289" y="436"/>
      <point x="303" y="433"/>
      <point x="311" y="431" type="qcurve" smooth="yes"/>
      <point x="345" y="423"/>
      <point x="412" y="405"/>
      <point x="446" y="397" type="qcurve" smooth="yes"/>
      <point x="472" y="391"/>
      <point x="512" y="359"/>
      <point x="540" y="315"/>
      <point x="555" y="264"/>
      <point x="555" y="238" type="qcurve" smooth="yes"/>
      <point x="555" y="188"/>
      <point x="518" y="110"/>
      <point x="454" y="56"/>
      <point x="370" y="24"/>
      <point x="323" y="20" type="qcurve"/>
      <point x="311" y="20" type="line"/>
      <point x="311" y="-65" type="line"/>
      <point x="281" y="-65" type="line"/>
      <point x="281" y="19" type="line"/>
      <point x="269" y="19" type="line"/>
      <point x="209" y="21"/>
      <point x="87" y="43"/>
      <point x="42" y="81" type="qcurve"/>
    </contour>
  </outline>
</glyph>
<glyph name="percent" format="2">
  <advance width="329"/>
  <unicode hex="0025"/>
  <outline>
    <contour>
      <point x="221" y="214" type="qcurve" smooth="yes"/>
      <point x="221" y="198"/>
      <point x="245" y="179"/>
      <point x="259" y="179" type="qcurve" smooth="yes"/>
      <point x="274" y="179"/>
      <point x="294" y="202"/>
      <point x="294" y="216" type="qcurve" smooth="yes"/>
      <point x="294" y="232"/>
      <point x="271" y="253"/>
      <point x="257" y="253" type="qcurve" smooth="yes"/>
      <point x="241" y="253"/>
      <point x="221" y="229"/>
    </contour>
    <contour>
      <point x="258" y="153" type="qcurve" smooth="yes"/>
      <point x="233" y="153"/>
      <point x="197" y="190"/>
      <point x="197" y="215" type="qcurve" smooth="yes"/>
      <point x="197" y="241"/>
      <point x="233" y="277"/>
      <point x="258" y="277" type="qcurve" smooth="yes"/>
      <point x="284" y="277"/>
      <point x="319" y="241"/>
      <point x="319" y="215" type="qcurve" smooth="yes"/>
      <point x="319" y="190"/>
      <point x="283" y="153"/>
    </contour>
    <contour>
      <point x="34" y="462" type="qcurve" smooth="yes"/>
      <point x="34" y="447"/>
      <point x="57" y="427"/>
      <point x="71" y="427" type="qcurve" smooth="yes"/>
      <point x="87" y="427"/>
      <point x="107" y="450"/>
      <point x="107" y="464" type="qcurve" smooth="yes"/>
      <point x="107" y="479"/>
      <point x="84" y="501"/>
      <point x="69" y="501" type="qcurve" smooth="yes"/>
      <point x="53" y="501"/>
      <point x="34" y="476"/>
    </contour>
    <contour>
      <point x="70" y="401" type="qcurve" smooth="yes"/>
      <point x="45" y="401"/>
      <point x="11" y="438"/>
      <point x="11" y="463" type="qcurve" smooth="yes"/>
      <point x="11" y="489"/>
      <point x="45" y="525"/>
      <point x="70" y="525" type="qcurve" smooth="yes"/>
      <point x="96" y="525"/>
      <point x="133" y="489"/>
      <point x="133" y="463" type="qcurve" smooth="yes"/>
      <point x="133" y="438"/>
      <point x="96" y="401"/>
    </contour>
    <contour>
      <point x="292" y="595" type="line"/>
      <point x="59" y="73" type="line"/>
      <point x="37" y="83" type="line"/>
      <point x="271" y="604" type="line"/>
    </contour>
  </outline>
</glyph>
<glyph name="ampersand" format="2">
  <advance width="667"/>
  <unicode hex="0026"/>
  <outline>
    <contour>
      <point x="594" y="19" type="line"/>
      <point x="538" y="85" type="line"/>
      <point x="533" y="80" type="line" smooth="yes"/>
      <point x="532" y="78"/>
      <point x="531" y="77"/>
      <point x="530" y="75" type="qcurve" smooth="yes"/>
      <point x="490" y="31"/>
      <point x="377" y="-7"/>
      <point x="319" y="-7" type="qcurve" smooth="yes"/>
      <point x="274" y="-7"/>
      <point x="190" y="15"/>
      <point x="126" y="62"/>
      <point x="87" y="134"/>
      <point x="87" y="183" type="qcurve" smooth="yes"/>
      <point x="87" y="220"/>
      <point x="114" y="291"/>
      <point x="158" y="354"/>
      <point x="215" y="407"/>
      <point x="245" y="427" type="qcurve" smooth="yes"/>
      <point x="251" y="431" type="line"/>
      <point x="247" y="436" type="line" smooth="yes"/>
      <point x="227" y="459"/>
      <point x="189" y="506"/>
      <point x="170" y="529" type="qcurve" smooth="yes"/>
      <point x="153" y="548"/>
      <point x="137" y="599"/>
      <point x="137" y="625" type="qcurve" smooth="yes"/>
      <point x="137" y="660"/>
      <point x="162" y="720"/>
      <point x="205" y="764"/>
      <point x="265" y="790"/>
      <point x="299" y="790" type="qcurve" smooth="yes"/>
      <point x="334" y="790"/>
      <point x="394" y="765"/>
      <point x="438" y="721"/>
      <point x="464" y="661"/>
      <point x="464" y="626" type="qcurve" smooth="yes"/>
      <point x="464" y="600"/>
      <point x="447" y="556"/>
      <point x="419" y="518"/>
      <point x="382" y="486"/>
      <point x="362" y="471" type="qcurve" smooth="yes"/>
      <point x="357" y="468"/>
      <point x="348" y="462" type="qcurve" smooth="yes"/>
      <point x="330" y="450" type="line" smooth="yes"/>
      <point x="321" y="443"/>
      <point x="304" y="431"/>
      <point x="300" y="427" type="qcurve" smooth="yes"/>
      <point x="297" y="422" type="line"/>
      <point x="535" y="137" type="line"/>
      <point x="539" y="145" type="line" smooth="yes"/>
      <point x="553" y="174"/>
      <point x="564" y="239"/>
      <point x="566" y="269" type="qcurve"/>
      <point x="596" y="269" type="line"/>
      <point x="594" y="226"/>
      <point x="578" y="155"/>
      <point x="559" y="116" type="qcurve" smooth="yes"/>
      <point x="557" y="112" type="line"/>
      <point x="634" y="20" type="line"/>
    </contour>
    <contour>
      <point x="271" y="405" type="line"/>
      <point x="263" y="399" type="line" smooth="yes"/>
      <point x="236" y="381"/>
      <point x="184" y="335"/>
      <point x="143" y="280"/>
      <point x="118" y="216"/>
      <point x="118" y="181" type="qcurve" smooth="yes"/>
      <point x="118" y="138"/>
      <point x="153" y="79"/>
      <point x="208" y="41"/>
      <point x="278" y="24"/>
      <point x="314" y="24" type="qcurve" smooth="yes"/>
      <point x="367" y="24"/>
      <point x="464" y="57"/>
      <point x="503" y="94" type="qcurve" smooth="yes"/>
      <point x="519" y="109" type="line"/>
    </contour>
    <contour>
      <point x="302" y="760" type="qcurve" smooth="yes"/>
      <point x="274" y="760"/>
      <point x="225" y="738"/>
      <point x="189" y="700"/>
      <point x="169" y="650"/>
      <point x="169" y="622" type="qcurve" smooth="yes"/>
      <point x="169" y="604"/>
      <point x="182" y="561"/>
      <point x="193" y="546" type="qcurve"/>
      <point x="276" y="448" type="line"/>
      <point x="280" y="451" type="line" smooth="yes"/>
      <point x="285" y="453"/>
      <point x="298" y="462"/>
      <point x="305" y="467" type="qcurve" smooth="yes"/>
      <point x="313" y="472"/>
      <point x="325" y="481"/>
      <point x="330" y="484" type="qcurve" smooth="yes"/>
      <point x="338" y="491"/>
      <point x="356" y="504"/>
      <point x="364" y="512" type="qcurve"/>
      <point x="383" y="526"/>
      <point x="397" y="543" type="qcurve"/>
      <point x="413" y="560"/>
      <point x="433" y="601"/>
      <point x="433" y="627" type="qcurve" smooth="yes"/>
      <point x="433" y="654"/>
      <point x="412" y="702"/>
      <point x="376" y="739"/>
      <point x="329" y="760"/>
    </contour>
  </outline>
</glyph>
<glyph name="quotesingle" format="2">
  <advance width="144"/>
  <unicode hex="0027"/>
  <outline>
    <contour>
      <point x="84" y="559" type="line"/>
      <point x="60" y="559" type="line"/>
      <point x="60" y="670" type="line"/>
      <point x="84" y="670" type="line"/>
    </contour>
  </outline>
</glyph>
<glyph name="parenleft" format="2">
  <advance width="423"/>
  <unicode hex="0028"/>
  <outline>
    <contour>
      <point x="317" y="-147" type="line"/>
      <point x="278" y="-119"/>
      <point x="249" y="-80" type="qcurve" smooth="yes"/>
      <point x="180" y="11"/>
      <point x="117" y="232"/>
      <point x="117" y="346" type="qcurve" smooth="yes"/>
      <point x="117" y="442"/>
      <point x="158" y="620"/>
      <point x="204" y="705" type="qcurve" smooth="yes"/>
      <point x="226" y="745"/>
      <point x="280" y="816"/>
      <point x="316" y="843" type="qcurve"/>
      <point x="334" y="817" type="line"/>
      <point x="294" y="787"/>
      <point x="265" y="743" type="qcurve"/>
      <point x="202" y="653"/>
      <point x="148" y="462"/>
      <point x="148" y="352" type="qcurve" smooth="yes"/>
      <point x="148" y="240"/>
      <point x="208" y="25"/>
      <point x="277" y="-66" type="qcurve"/>
      <point x="304" y="-99"/>
      <point x="334" y="-122" type="qcurve"/>
    </contour>
  </outline>
</glyph>
<glyph name="parenright" format="2">
  <advance width="473"/>
  <unicode hex="0029"/>
  <outline>
    <contour>
      <point x="134" y="844" type="line"/>
      <point x="172" y="816"/>
      <point x="202" y="777" type="qcurve" smooth="yes"/>
      <point x="270" y="688"/>
      <point x="334" y="466"/>
      <point x="334" y="354" type="qcurve" smooth="yes"/>
      <point x="334" y="257"/>
      <point x="293" y="77"/>
      <point x="247" y="-8" type="qcurve" smooth="yes"/>
      <point x="225" y="-48"/>
      <point x="172" y="-121"/>
      <point x="135" y="-147" type="qcurve"/>
      <point x="117" y="-121" type="line"/>
      <point x="137" y="-106"/>
      <point x="171" y="-68"/>
      <point x="186" y="-48" type="qcurve" smooth="yes"/>
      <point x="248" y="40"/>
      <point x="302" y="236"/>
      <point x="302" y="343" type="qcurve" smooth="yes"/>
      <point x="302" y="456"/>
      <point x="243" y="672"/>
      <point x="173" y="763" type="qcurve" smooth="yes"/>
      <point x="161" y="778"/>
      <point x="134" y="806"/>
      <point x="117" y="818" type="qcurve"/>
    </contour>
  </outline>
</glyph>
<glyph name="asterisk" format="2">
  <advance width="428"/>
  <unicode hex="002A"/>
  <outline>
    <contour>
      <point x="379" y="588" type="line"/>
      <point x="236" y="540" type="line"/>
      <point x="324" y="417" type="line"/>
      <point x="299" y="399" type="line"/>
      <point x="211" y="523" type="line"/>
      <point x="125" y="399" type="line"/>
      <point x="97" y="417" type="line"/>
      <point x="187" y="540" type="line"/>
      <point x="45" y="588" type="line"/>
      <point x="54" y="617" type="line"/>
      <point x="196" y="572" type="line"/>
      <point x="196" y="722" type="line"/>
      <point x="227" y="722" type="line"/>
      <point x="227" y="572" type="line"/>
      <point x="370" y="617" type="line"/>
    </contour>
  </outline>
</glyph>
<glyph name="plus" format="2">
  <advance width="413"/>
  <unicode hex="002B"/>
  <outline>
    <contour>
      <point x="60" y="309" type="line"/>
      <point x="60" y="333" type="line"/>
      <point x="194" y="333" type="line"/>
      <point x="194" y="469" type="line"/>
      <point x="218" y="469" type="line"/>
      <point x="218" y="333" type="line"/>
      <point x="353" y="333" type="line"/>
      <point x="353" y="309" type="line"/>
      <point x="218" y="309" type="line"/>
      <point x="218" y="172" type="line"/>
      <point x="194" y="172" type="line"/>
      <point x="194" y="309" type="line"/>
    </contour>
  </outline>
</glyph>
<glyph name="comma" format="2">
  <advance width="166"/>
  <unicode hex="002C"/>
  <outline>
    <contour>
      <point x="78" y="55" type="line"/>
      <point x="98" y="30"/>
      <point x="114" y="-30"/>
      <point x="114" y="-63" type="qcurve" smooth="yes"/>
      <point x="114" y="-83"/>
      <point x="109" y="-124"/>
      <point x="105" y="-144" type="qcurve"/>
      <point x="76" y="-142" type="line"/>
      <point x="78" y="-122"/>
      <point x="83" y="-82"/>
      <point x="83" y="-62" type="qcurve" smooth="yes"/>
      <point x="83" y="-36"/>
      <point x="72" y="12"/>
      <point x="55" y="34" type="qcurve"/>
    </contour>
  </outline>
</glyph>
<glyph name="hyphen" format="2">
  <advance width="449"/>
  <unicode hex="002D"/>
  <outline>
    <contour>
      <point x="60" y="265" type="line"/>
      <point x="60" y="290" type="line"/>
      <point x="389" y="290" type="line"/>
      <point x="389" y="265" type="line"/>
    </contour>
  </outline>
</glyph>
<glyph name="period" format="2">
  <advance width="168"/>
  <unicode hex="002E"/>
  <outline>
    <contour>
      <point x="60" y="24" type="qcurve" smooth="yes"/>
      <point x="60" y="35"/>
      <point x="73" y="50"/>
      <point x="84" y="50" type="qcurve" smooth="yes"/>
      <point x="95" y="50"/>
      <point x="108" y="35"/>
      <point x="108" y="24" type="qcurve" smooth="yes"/>
      <point x="108" y="13"/>
      <point x="95" y="0"/>
      <point x="84" y="0" type="qcurve" smooth="yes"/>
      <point x="73" y="0"/>
      <point x="60" y="13"/>
    </contour>
  </outline>
</glyph>
<glyph name="zero" format="2">
  <advance width="648"/>
  <unicode hex="0030"/>
  <outline>
    <contour>
      <point x="568" y="175" type="line" smooth="yes"/>
      <point x="568" y="126"/>
      <point x="523" y="57"/>
      <point x="451" y="12"/>
      <point x="363" y="-9"/>
      <point x="320" y="-9" type="qcurve" smooth="yes"/>
      <point x="300" y="-9"/>
      <point x="260" y="-6"/>
      <point x="240" y="-1" type="qcurve" smooth="yes"/>
      <point x="209" y="6"/>
      <point x="151" y="38"/>
      <point x="107" y="83"/>
      <point x="80" y="142"/>
      <point x="80" y="176" type="qcurve" smooth="yes"/>
      <point x="80" y="608" type="line" smooth="yes"/>
      <point x="80" y="626"/>
      <point x="88" y="660"/>
      <point x="95" y="675" type="qcurve" smooth="yes"/>
      <point x="110" y="707"/>
      <point x="158" y="752"/>
      <point x="217" y="780"/>
      <point x="284" y="793"/>
      <point x="317" y="793" type="qcurve" smooth="yes"/>
      <point x="362" y="793"/>
      <point x="407" y="784" type="qcurve" smooth="yes"/>
      <point x="438" y="778"/>
      <point x="496" y="746"/>
      <point x="541" y="700"/>
      <point x="568" y="642"/>
      <point x="568" y="608" type="qcurve" smooth="yes"/>
    </contour>
    <contour>
      <point x="538" y="608" type="line" smooth="yes"/>
      <point x="538" y="627"/>
      <point x="524" y="662"/>
      <point x="515" y="676" type="qcurve" smooth="yes"/>
      <point x="499" y="702"/>
      <point x="456" y="735"/>
      <point x="406" y="755"/>
      <point x="351" y="763"/>
      <point x="324" y="763" type="qcurve" smooth="yes"/>
      <point x="268" y="763"/>
      <point x="165" y="728"/>
      <point x="131" y="677" type="qcurve" smooth="yes"/>
      <point x="110" y="646"/>
      <point x="110" y="608" type="qcurve" smooth="yes"/>
      <point x="110" y="176" type="line" smooth="yes"/>
      <point x="110" y="133"/>
      <point x="151" y="74"/>
      <point x="214" y="37"/>
      <point x="289" y="20"/>
      <point x="323" y="20" type="qcurve" smooth="yes"/>
      <point x="359" y="20"/>
      <point x="435" y="35"/>
      <point x="498" y="71"/>
      <point x="538" y="131"/>
      <point x="538" y="176" type="qcurve" smooth="yes"/>
    </contour>
  </outline>
</glyph>
<glyph name="one" format="2">
  <advance width="313"/>
  <unicode hex="0031"/>
  <outline>
    <contour>
      <point x="201" y="739" type="line"/>
      <point x="191" y="728" type="line" smooth="yes"/>
      <point x="158" y="693"/>
      <point x="84" y="666"/>
      <point x="37" y="664" type="qcurve"/>
      <point x="37" y="696" type="line"/>
      <point x="61" y="697"/>
      <point x="109" y="705"/>
      <point x="152" y="725"/>
      <point x="187" y="758"/>
      <point x="197" y="783" type="qcurve"/>
      <point x="233" y="783" type="line"/>
      <point x="233" y="0" type="line"/>
      <point x="201" y="0" type="line"/>
    </contour>
  </outline>
</glyph>
<glyph name="two" format="2">
  <advance width="553"/>
  <unicode hex="0032"/>
  <outline>
    <contour>
      <point x="493" y="31" type="line"/>
      <point x="493" y="0" type="line"/>
      <point x="61" y="0" type="line"/>
      <point x="61" y="24"/>
      <point x="60" y="74"/>
      <point x="60" y="99" type="qcurve" smooth="yes"/>
      <point x="60" y="122"/>
      <point x="71" y="157"/>
      <point x="85" y="176" type="qcurve" smooth="yes"/>
      <point x="105" y="203"/>
      <point x="151" y="250"/>
      <point x="177" y="272" type="qcurve" smooth="yes"/>
      <point x="266" y="350" type="line" smooth="yes"/>
      <point x="305" y="385"/>
      <point x="385" y="455"/>
      <point x="423" y="492" type="qcurve" smooth="yes"/>
      <point x="444" y="512"/>
      <point x="462" y="562"/>
      <point x="462" y="591" type="qcurve" smooth="yes"/>
      <point x="462" y="622" type="line" smooth="yes"/>
      <point x="462" y="660"/>
      <point x="425" y="712"/>
      <point x="369" y="745"/>
      <point x="302" y="760"/>
      <point x="273" y="760" type="qcurve" smooth="yes"/>
      <point x="227" y="760"/>
      <point x="137" y="730"/>
      <point x="105" y="695" type="qcurve"/>
      <point x="82" y="716" type="line"/>
      <point x="119" y="757"/>
      <point x="221" y="791"/>
      <point x="275" y="791" type="qcurve" smooth="yes"/>
      <point x="305" y="791"/>
      <point x="366" y="779"/>
      <point x="421" y="752"/>
      <point x="466" y="712"/>
      <point x="479" y="683" type="qcurve" smooth="yes"/>
      <point x="487" y="666"/>
      <point x="492" y="626"/>
      <point x="492" y="605" type="qcurve" smooth="yes"/>
      <point x="492" y="563"/>
      <point x="476" y="496"/>
      <point x="444" y="468" type="qcurve" smooth="yes"/>
      <point x="199" y="252" type="line" smooth="yes"/>
      <point x="189" y="243"/>
      <point x="170" y="226"/>
      <point x="161" y="217" type="qcurve" smooth="yes"/>
      <point x="141" y="200"/>
      <point x="127" y="182" type="qcurve" smooth="yes"/>
      <point x="110" y="162"/>
      <point x="91" y="116"/>
      <point x="91" y="86" type="qcurve" smooth="yes"/>
      <point x="91" y="74"/>
      <point x="92" y="50"/>
      <point x="92" y="38" type="qcurve" smooth="yes"/>
      <point x="92" y="31" type="line"/>
    </contour>
  </outline>
</glyph>
<glyph name="three" format="2">
  <advance width="539"/>
  <unicode hex="0033"/>
  <outline>
    <contour>
      <point x="40" y="48" type="qcurve"/>
      <point x="57" y="72" type="line"/>
      <point x="97" y="46"/>
      <point x="191" y="20"/>
      <point x="238" y="20" type="qcurve" smooth="yes"/>
      <point x="265" y="20"/>
      <point x="322" y="31"/>
      <point x="375" y="54"/>
      <point x="420" y="90"/>
      <point x="434" y="116" type="qcurve" smooth="yes"/>
      <point x="444" y="134"/>
      <point x="449" y="168"/>
      <point x="449" y="188" type="qcurve" smooth="yes"/>
      <point x="449" y="222" type="line" smooth="yes"/>
      <point x="449" y="241"/>
      <point x="438" y="275"/>
      <point x="429" y="289" type="qcurve" smooth="yes"/>
      <point x="409" y="323"/>
      <point x="353" y="359"/>
      <point x="321" y="367" type="qcurve" smooth="yes"/>
      <point x="290" y="375"/>
      <point x="255" y="376" type="qcurve" smooth="yes"/>
      <point x="240" y="377"/>
      <point x="225" y="377" type="qcurve" smooth="yes"/>
      <point x="194" y="377" type="line"/>
      <point x="194" y="407" type="line"/>
      <point x="221" y="407"/>
      <point x="279" y="409"/>
      <point x="307" y="416" type="qcurve" smooth="yes"/>
      <point x="336" y="423"/>
      <point x="388" y="452"/>
      <point x="408" y="478" type="qcurve"/>
      <point x="429" y="510"/>
      <point x="429" y="545" type="qcurve" smooth="yes"/>
      <point x="429" y="623" type="line" smooth="yes"/>
      <point x="429" y="660"/>
      <point x="392" y="713"/>
      <point x="336" y="746"/>
      <point x="270" y="761"/>
      <point x="241" y="761" type="qcurve" smooth="yes"/>
      <point x="194" y="761"/>
      <point x="105" y="731"/>
      <point x="72" y="696" type="qcurve"/>
      <point x="49" y="717" type="line"/>
      <point x="85" y="758"/>
      <point x="189" y="792"/>
      <point x="243" y="792" type="qcurve" smooth="yes"/>
      <point x="273" y="792"/>
      <point x="334" y="780"/>
      <point x="388" y="753"/>
      <point x="432" y="713"/>
      <point x="445" y="684" type="qcurve" smooth="yes"/>
      <point x="455" y="664"/>
      <point x="460" y="618"/>
      <point x="460" y="595" type="qcurve" smooth="yes"/>
      <point x="460" y="582"/>
      <point x="459" y="558"/>
      <point x="459" y="545" type="qcurve" smooth="yes"/>
      <point x="459" y="522"/>
      <point x="443" y="478"/>
      <point x="415" y="439"/>
      <point x="378" y="409"/>
      <point x="357" y="400" type="qcurve" smooth="yes"/>
      <point x="343" y="394" type="line"/>
      <point x="357" y="388" type="line" smooth="yes"/>
      <point x="382" y="379"/>
      <point x="427" y="345"/>
      <point x="460" y="301"/>
      <point x="479" y="249"/>
      <point x="479" y="222" type="qcurve" smooth="yes"/>
      <point x="479" y="175" type="line" smooth="yes"/>
      <point x="479" y="140"/>
      <point x="451" y="81"/>
      <point x="405" y="35"/>
      <point x="345" y="5"/>
      <point x="312" y="-2" type="qcurve" smooth="yes"/>
      <point x="274" y="-10"/>
      <point x="239" y="-10" type="qcurve" smooth="yes"/>
      <point x="186" y="-10"/>
      <point x="85" y="19"/>
    </contour>
  </outline>
</glyph>
<glyph name="four" format="2">
  <advance width="593"/>
  <unicode hex="0034"/>
  <outline>
    <contour>
      <point x="40" y="149" type="line"/>
      <point x="40" y="177" type="line"/>
      <point x="434" y="782" type="line"/>
      <point x="458" y="782" type="line"/>
      <point x="458" y="181" type="line"/>
      <point x="533" y="181" type="line"/>
      <point x="533" y="149" type="line"/>
      <point x="458" y="149" type="line"/>
      <point x="458" y="0" type="line"/>
      <point x="430" y="0" type="line"/>
      <point x="430" y="149" type="line"/>
    </contour>
    <contour>
      <point x="67" y="181" type="line"/>
      <point x="430" y="181" type="line"/>
      <point x="430" y="729" type="line"/>
    </contour>
  </outline>
</glyph>
<glyph name="five" format="2">
  <advance width="574"/>
  <unicode hex="0035"/>
  <outline>
    <contour>
      <point x="494" y="175" type="line" smooth="yes"/>
      <point x="494" y="129"/>
      <point x="451" y="60"/>
      <point x="384" y="14"/>
      <point x="300" y="-9"/>
      <point x="259" y="-9" type="qcurve" smooth="yes"/>
      <point x="236" y="-9"/>
      <point x="183" y="-1"/>
      <point x="130" y="13"/>
      <point x="80" y="32"/>
      <point x="60" y="44" type="qcurve"/>
      <point x="77" y="70" type="line"/>
      <point x="119" y="47"/>
      <point x="213" y="23"/>
      <point x="261" y="23" type="qcurve" smooth="yes"/>
      <point x="293" y="23"/>
      <point x="365" y="40"/>
      <point x="425" y="77"/>
      <point x="464" y="135"/>
      <point x="464" y="176" type="qcurve" smooth="yes"/>
      <point x="464" y="299" type="line" smooth="yes"/>
      <point x="464" y="316"/>
      <point x="453" y="352"/>
      <point x="444" y="367" type="qcurve" smooth="yes"/>
      <point x="429" y="393"/>
      <point x="385" y="425"/>
      <point x="334" y="445"/>
      <point x="278" y="452"/>
      <point x="251" y="452" type="qcurve" smooth="yes"/>
      <point x="235" y="452"/>
      <point x="196" y="449"/>
      <point x="157" y="439"/>
      <point x="123" y="419"/>
      <point x="113" y="402" type="qcurve"/>
      <point x="78" y="402" type="line"/>
      <point x="78" y="783" type="line"/>
      <point x="475" y="783" type="line"/>
      <point x="475" y="752" type="line"/>
      <point x="108" y="752" type="line"/>
      <point x="108" y="436" type="line"/>
      <point x="117" y="442" type="line" smooth="yes"/>
      <point x="151" y="463"/>
      <point x="227" y="482"/>
      <point x="267" y="482" type="qcurve" smooth="yes"/>
      <point x="298" y="482"/>
      <point x="358" y="470"/>
      <point x="412" y="445"/>
      <point x="457" y="405"/>
      <point x="472" y="377" type="qcurve" smooth="yes"/>
      <point x="482" y="358"/>
      <point x="494" y="319"/>
      <point x="494" y="299" type="qcurve" smooth="yes"/>
    </contour>
  </outline>
</glyph>
<glyph name="six" format="2">
  <advance width="628"/>
  <unicode hex="0036"/>
  <outline>
    <contour>
      <point x="80" y="177" type="qcurve" smooth="yes"/>
      <point x="80" y="597" type="line" smooth="yes"/>
      <point x="80" y="627"/>
      <point x="92" y="655" type="qcurve" smooth="yes"/>
      <point x="108" y="695"/>
      <point x="161" y="748"/>
      <point x="227" y="779"/>
      <point x="304" y="792"/>
      <point x="345" y="792" type="qcurve" smooth="yes"/>
      <point x="403" y="792"/>
      <point x="514" y="755"/>
      <point x="552" y="710" type="qcurve"/>
      <point x="526" y="691" type="line"/>
      <point x="492" y="733"/>
      <point x="394" y="763"/>
      <point x="343" y="763" type="qcurve" smooth="yes"/>
      <point x="307" y="763"/>
      <point x="225" y="746"/>
      <point x="156" y="707"/>
      <point x="110" y="644"/>
      <point x="110" y="597" type="qcurve" smooth="yes"/>
      <point x="110" y="396" type="line"/>
      <point x="120" y="407" type="line" smooth="yes"/>
      <point x="162" y="450"/>
      <point x="260" y="483"/>
      <point x="320" y="483" type="qcurve" smooth="yes"/>
      <point x="354" y="483"/>
      <point x="425" y="471"/>
      <point x="488" y="443"/>
      <point x="540" y="398"/>
      <point x="555" y="365" type="qcurve"/>
      <point x="568" y="332"/>
      <point x="568" y="300" type="qcurve" smooth="yes"/>
      <point x="568" y="176" type="line" smooth="yes"/>
      <point x="568" y="159"/>
      <point x="559" y="125"/>
      <point x="552" y="110" type="qcurve" smooth="yes"/>
      <point x="536" y="77"/>
      <point x="488" y="31"/>
      <point x="429" y="3"/>
      <point x="362" y="-9"/>
      <point x="327" y="-9" type="qcurve" smooth="yes"/>
      <point x="283" y="-9"/>
      <point x="241" y="0" type="qcurve" smooth="yes"/>
      <point x="210" y="7"/>
      <point x="152" y="38"/>
      <point x="107" y="84"/>
      <point x="80" y="143"/>
    </contour>
    <contour>
      <point x="321" y="23" type="qcurve" smooth="yes"/>
      <point x="353" y="23"/>
      <point x="419" y="36"/>
      <point x="477" y="65"/>
      <point x="522" y="113"/>
      <point x="532" y="148" type="qcurve" smooth="yes"/>
      <point x="534" y="154"/>
      <point x="538" y="170"/>
      <point x="538" y="177" type="qcurve" smooth="yes"/>
      <point x="538" y="300" type="line" smooth="yes"/>
      <point x="538" y="317"/>
      <point x="524" y="353"/>
      <point x="515" y="368" type="qcurve" smooth="yes"/>
      <point x="499" y="394"/>
      <point x="456" y="426"/>
      <point x="405" y="446"/>
      <point x="351" y="453"/>
      <point x="324" y="453" type="qcurve" smooth="yes"/>
      <point x="267" y="453"/>
      <point x="166" y="420"/>
      <point x="132" y="369" type="qcurve" smooth="yes"/>
      <point x="122" y="353"/>
      <point x="110" y="319"/>
      <point x="110" y="300" type="qcurve" smooth="yes"/>
      <point x="110" y="177" type="line" smooth="yes"/>
      <point x="110" y="135"/>
      <point x="151" y="77"/>
      <point x="214" y="40"/>
      <point x="288" y="23"/>
    </contour>
  </outline>
</glyph>
<glyph name="seven" format="2">
  <advance width="511"/>
  <unicode hex="0037"/>
  <outline>
    <contour>
      <point x="182" y="0" type="line"/>
      <point x="439" y="751" type="line"/>
      <point x="20" y="751" type="line"/>
      <point x="20" y="783" type="line"/>
      <point x="471" y="783" type="line"/>
      <point x="471" y="744" type="line"/>
      <point x="217" y="0" type="line"/>
    </contour>
  </outline>
</glyph>
<glyph name="eight" format="2">
  <advance width="608"/>
  <unicode hex="0038"/>
  <outline>
    <contour>
      <point x="76" y="114" type="qcurve" smooth="yes"/>
      <point x="69" y="128"/>
      <point x="60" y="161"/>
      <point x="60" y="177" type="qcurve" smooth="yes"/>
      <point x="60" y="223" type="line" smooth="yes"/>
      <point x="60" y="276"/>
      <point x="124" y="360"/>
      <point x="171" y="384" type="qcurve" smooth="yes"/>
      <point x="192" y="394" type="line"/>
      <point x="181" y="399" type="line" smooth="yes"/>
      <point x="137" y="419"/>
      <point x="80" y="497"/>
      <point x="80" y="545" type="qcurve" smooth="yes"/>
      <point x="80" y="625" type="line" smooth="yes"/>
      <point x="80" y="653"/>
      <point x="93" y="682" type="qcurve" smooth="yes"/>
      <point x="107" y="712"/>
      <point x="152" y="755"/>
      <point x="206" y="782"/>
      <point x="268" y="794"/>
      <point x="299" y="794" type="qcurve" smooth="yes"/>
      <point x="367" y="794"/>
      <point x="483" y="745"/>
      <point x="515" y="681" type="qcurve" smooth="yes"/>
      <point x="528" y="653"/>
      <point x="528" y="626" type="qcurve" smooth="yes"/>
      <point x="528" y="542" type="line" smooth="yes"/>
      <point x="528" y="520"/>
      <point x="511" y="476"/>
      <point x="483" y="438"/>
      <point x="447" y="408"/>
      <point x="427" y="400" type="qcurve" smooth="yes"/>
      <point x="412" y="394" type="line"/>
      <point x="427" y="388" type="line" smooth="yes"/>
      <point x="451" y="379"/>
      <point x="495" y="346"/>
      <point x="528" y="302"/>
      <point x="548" y="251"/>
      <point x="548" y="224" type="qcurve" smooth="yes"/>
      <point x="548" y="175" type="line" smooth="yes"/>
      <point x="548" y="157"/>
      <point x="539" y="123"/>
      <point x="531" y="107" type="qcurve" smooth="yes"/>
      <point x="515" y="75"/>
      <point x="467" y="31"/>
      <point x="409" y="3"/>
      <point x="343" y="-10"/>
      <point x="309" y="-10" type="qcurve" smooth="yes"/>
      <point x="273" y="-10"/>
      <point x="203" y="3"/>
      <point x="142" y="32"/>
      <point x="93" y="79"/>
    </contour>
    <contour>
      <point x="325" y="405" type="line" smooth="yes"/>
      <point x="354" y="405"/>
      <point x="414" y="424"/>
      <point x="464" y="460"/>
      <point x="496" y="512"/>
      <point x="496" y="545" type="qcurve" smooth="yes"/>
      <point x="496" y="623" type="line" smooth="yes"/>
      <point x="496" y="640"/>
      <point x="485" y="673"/>
      <point x="476" y="687" type="qcurve" smooth="yes"/>
      <point x="462" y="709"/>
      <point x="423" y="738"/>
      <point x="378" y="756"/>
      <point x="330" y="763"/>
      <point x="306" y="763" type="qcurve" smooth="yes"/>
      <point x="281" y="763"/>
      <point x="231" y="756"/>
      <point x="184" y="738"/>
      <point x="145" y="707"/>
      <point x="130" y="684" type="qcurve" smooth="yes"/>
      <point x="110" y="656"/>
      <point x="110" y="623" type="qcurve" smooth="yes"/>
      <point x="110" y="545" type="line" smooth="yes"/>
      <point x="110" y="527"/>
      <point x="125" y="491"/>
      <point x="135" y="477" type="qcurve" smooth="yes"/>
      <point x="159" y="441"/>
      <point x="241" y="405"/>
      <point x="283" y="405" type="qcurve" smooth="yes"/>
    </contour>
    <contour>
      <point x="518" y="223" type="line" smooth="yes"/>
      <point x="518" y="252"/>
      <point x="497" y="299"/>
      <point x="462" y="336"/>
      <point x="416" y="363"/>
      <point x="392" y="370" type="qcurve" smooth="yes"/>
      <point x="372" y="375"/>
      <point x="334" y="379"/>
      <point x="315" y="379" type="qcurve" smooth="yes"/>
      <point x="277" y="379" type="line" smooth="yes"/>
      <point x="246" y="379"/>
      <point x="179" y="358"/>
      <point x="125" y="317"/>
      <point x="90" y="259"/>
      <point x="90" y="223" type="qcurve" smooth="yes"/>
      <point x="90" y="177" type="line" smooth="yes"/>
      <point x="90" y="135"/>
      <point x="132" y="76"/>
      <point x="195" y="39"/>
      <point x="271" y="22"/>
      <point x="304" y="22" type="qcurve" smooth="yes"/>
      <point x="337" y="22"/>
      <point x="402" y="35"/>
      <point x="459" y="64"/>
      <point x="502" y="112"/>
      <point x="512" y="148" type="qcurve" smooth="yes"/>
      <point x="514" y="154"/>
      <point x="518" y="170"/>
      <point x="518" y="177" type="qcurve" smooth="yes"/>
    </contour>
  </outline>
</glyph>
<glyph name="nine" format="2">
  <advance width="628"/>
  <unicode hex="0039"/>
  <outline>
    <contour>
      <point x="76" y="673" type="qcurve" smooth="yes"/>
      <point x="91" y="706"/>
      <point x="139" y="752"/>
      <point x="198" y="780"/>
      <point x="266" y="792"/>
      <point x="301" y="792" type="qcurve" smooth="yes"/>
      <point x="344" y="792"/>
      <point x="387" y="783" type="qcurve" smooth="yes"/>
      <point x="418" y="776"/>
      <point x="476" y="745"/>
      <point x="521" y="699"/>
      <point x="548" y="641"/>
      <point x="548" y="606" type="qcurve" smooth="yes"/>
      <point x="548" y="186" type="line" smooth="yes"/>
      <point x="548" y="157"/>
      <point x="536" y="128" type="qcurve" smooth="yes"/>
      <point x="520" y="88"/>
      <point x="467" y="35"/>
      <point x="401" y="4"/>
      <point x="324" y="-9"/>
      <point x="283" y="-9" type="qcurve" smooth="yes"/>
      <point x="225" y="-9"/>
      <point x="114" y="28"/>
      <point x="76" y="73" type="qcurve"/>
      <point x="100" y="92" type="line"/>
      <point x="117" y="71"/>
      <point x="161" y="44"/>
      <point x="210" y="27"/>
      <point x="261" y="20"/>
      <point x="286" y="20" type="qcurve" smooth="yes"/>
      <point x="322" y="20"/>
      <point x="403" y="38"/>
      <point x="472" y="77"/>
      <point x="518" y="140"/>
      <point x="518" y="186" type="qcurve" smooth="yes"/>
      <point x="518" y="386" type="line"/>
      <point x="496" y="366" type="line" smooth="yes"/>
      <point x="456" y="328"/>
      <point x="362" y="300"/>
      <point x="308" y="300" type="qcurve" smooth="yes"/>
      <point x="274" y="300"/>
      <point x="203" y="312"/>
      <point x="140" y="340"/>
      <point x="88" y="385"/>
      <point x="73" y="418" type="qcurve"/>
      <point x="60" y="451"/>
      <point x="60" y="483" type="qcurve" smooth="yes"/>
      <point x="60" y="607" type="line" smooth="yes"/>
      <point x="60" y="624"/>
      <point x="69" y="658"/>
    </contour>
    <contour>
      <point x="111" y="415" type="qcurve" smooth="yes"/>
      <point x="127" y="390"/>
      <point x="171" y="357"/>
      <point x="222" y="338"/>
      <point x="277" y="330"/>
      <point x="304" y="330" type="qcurve" smooth="yes"/>
      <point x="331" y="330"/>
      <point x="385" y="337"/>
      <point x="435" y="356"/>
      <point x="478" y="389"/>
      <point x="494" y="414" type="qcurve" smooth="yes"/>
      <point x="504" y="429"/>
      <point x="518" y="464"/>
      <point x="518" y="483" type="qcurve" smooth="yes"/>
      <point x="518" y="606" type="line" smooth="yes"/>
      <point x="518" y="642"/>
      <point x="482" y="699"/>
      <point x="425" y="739"/>
      <point x="356" y="760"/>
      <point x="324" y="760" type="qcurve" smooth="yes"/>
      <point x="297" y="760"/>
      <point x="233" y="752"/>
      <point x="172" y="731"/>
      <point x="121" y="695"/>
      <point x="107" y="667" type="qcurve" smooth="yes"/>
      <point x="101" y="656"/>
      <point x="90" y="623"/>
      <point x="90" y="609" type="qcurve" smooth="yes"/>
      <point x="90" y="483" type="line" smooth="yes"/>
      <point x="90" y="466"/>
      <point x="102" y="430"/>
    </contour>
  </outline>
</glyph>
<glyph name="colon" format="2">
  <advance width="168"/>
  <unicode hex="003A"/>
  <outline>
    <contour>
      <point x="60" y="458" type="qcurve" smooth="yes"/>
      <point x="60" y="469"/>
      <point x="73" y="482"/>
      <point x="84" y="482" type="qcurve" smooth="yes"/>
      <point x="95" y="482"/>
      <point x="108" y="469"/>
      <point x="108" y="458" type="qcurve" smooth="yes"/>
      <point x="108" y="447"/>
      <point x="95" y="434"/>
      <point x="84" y="434" type="qcurve" smooth="yes"/>
      <point x="73" y="434"/>
      <point x="60" y="447"/>
    </contour>
    <contour>
      <point x="60" y="151" type="qcurve" smooth="yes"/>
      <point x="60" y="162"/>
      <point x="73" y="177"/>
      <point x="84" y="177" type="qcurve" smooth="yes"/>
      <point x="95" y="177"/>
      <point x="108" y="162"/>
      <point x="108" y="151" type="qcurve" smooth="yes"/>
      <point x="108" y="140"/>
      <point x="95" y="127"/>
      <point x="84" y="127" type="qcurve" smooth="yes"/>
      <point x="73" y="127"/>
      <point x="60" y="140"/>
    </contour>
  </outline>
</glyph>
<glyph name="semicolon" format="2">
  <advance width="166"/>
  <unicode hex="003B"/>
  <outline>
    <contour>
      <point x="56" y="458" type="qcurve" smooth="yes"/>
      <point x="56" y="469"/>
      <point x="69" y="482"/>
      <point x="80" y="482" type="qcurve" smooth="yes"/>
      <point x="91" y="482"/>
      <point x="104" y="469"/>
      <point x="104" y="458" type="qcurve" smooth="yes"/>
      <point x="104" y="447"/>
      <point x="91" y="434"/>
      <point x="80" y="434" type="qcurve" smooth="yes"/>
      <point x="69" y="434"/>
      <point x="56" y="447"/>
    </contour>
    <contour>
      <point x="77" y="213" type="line"/>
      <point x="97" y="189"/>
      <point x="113" y="129"/>
      <point x="113" y="96" type="qcurve" smooth="yes"/>
      <point x="113" y="76"/>
      <point x="108" y="34"/>
      <point x="104" y="14" type="qcurve"/>
      <point x="75" y="16" type="line"/>
      <point x="77" y="37"/>
      <point x="82" y="77"/>
      <point x="82" y="97" type="qcurve" smooth="yes"/>
      <point x="82" y="123"/>
      <point x="71" y="172"/>
      <point x="54" y="193" type="qcurve"/>
    </contour>
  </outline>
</glyph>
<glyph name="less" format="2">
  <advance width="347"/>
  <unicode hex="003C"/>
  <outline>
    <contour>
      <point x="60" y="317" type="line"/>
      <point x="269" y="528" type="line"/>
      <point x="287" y="510" type="line"/>
      <point x="96" y="317" type="line"/>
      <point x="287" y="123" type="line"/>
      <point x="269" y="106" type="line"/>
    </contour>
  </outline>
</glyph>
<glyph name="equal" format="2">
  <advance width="413"/>
  <unicode hex="003D"/>
  <outline>
    <contour>
      <point x="60" y="358" type="line"/>
      <point x="60" y="384" type="line"/>
      <point x="353" y="384" type="line"/>
      <point x="353" y="358" type="line"/>
    </contour>
    <contour>
      <point x="60" y="237" type="line"/>
      <point x="60" y="261" type="line"/>
      <point x="353" y="261" type="line"/>
      <point x="353" y="237" type="line"/>
    </contour>
  </outline>
</glyph>
<glyph name="greater" format="2">
  <advance width="347"/>
  <unicode hex="003E"/>
  <outline>
    <contour>
      <point x="287" y="317" type="line"/>
      <point x="78" y="106" type="line"/>
      <point x="60" y="123" type="line"/>
      <point x="249" y="317" type="line"/>
      <point x="60" y="510" type="line"/>
      <point x="78" y="528" type="line"/>
    </contour>
  </outline>
</glyph>
<glyph name="question" format="2">
  <advance width="454"/>
  <unicode hex="003F"/>
  <outline>
    <contour>
      <point x="241" y="52" type="line"/>
      <point x="241" y="0" type="line"/>
      <point x="189" y="0" type="line"/>
      <point x="189" y="52" type="line"/>
    </contour>
    <contour>
      <point x="20" y="600" type="line"/>
      <point x="22" y="639"/>
      <point x="55" y="708"/>
      <point x="107" y="758"/>
      <point x="177" y="787"/>
      <point x="216" y="787" type="qcurve" smooth="yes"/>
      <point x="257" y="787"/>
      <point x="328" y="756"/>
      <point x="380" y="702"/>
      <point x="411" y="629"/>
      <point x="411" y="588" type="qcurve" smooth="yes"/>
      <point x="411" y="550"/>
      <point x="380" y="477"/>
      <point x="355" y="449" type="qcurve" smooth="yes"/>
      <point x="345" y="439"/>
      <point x="329" y="424"/>
      <point x="321" y="416" type="qcurve" smooth="yes"/>
      <point x="313" y="409"/>
      <point x="298" y="397"/>
      <point x="291" y="390" type="qcurve" smooth="yes"/>
      <point x="277" y="376"/>
      <point x="254" y="341"/>
      <point x="243" y="313" type="qcurve"/>
      <point x="232" y="278"/>
      <point x="232" y="247" type="qcurve" smooth="yes"/>
      <point x="232" y="146" type="line"/>
      <point x="200" y="146" type="line"/>
      <point x="200" y="247" type="line" smooth="yes"/>
      <point x="200" y="295"/>
      <point x="242" y="389"/>
      <point x="277" y="421" type="qcurve" smooth="yes"/>
      <point x="288" y="432"/>
      <point x="311" y="449"/>
      <point x="322" y="460" type="qcurve" smooth="yes"/>
      <point x="328" y="466" type="line" smooth="yes"/>
      <point x="330" y="468"/>
      <point x="331" y="470"/>
      <point x="333" y="472" type="qcurve" smooth="yes"/>
      <point x="354" y="499"/>
      <point x="381" y="551"/>
      <point x="381" y="588" type="qcurve" smooth="yes"/>
      <point x="381" y="623"/>
      <point x="355" y="684"/>
      <point x="310" y="729"/>
      <point x="250" y="756"/>
      <point x="216" y="756" type="qcurve" smooth="yes"/>
      <point x="183" y="756"/>
      <point x="125" y="732"/>
      <point x="80" y="690"/>
      <point x="52" y="633"/>
      <point x="50" y="600" type="qcurve"/>
    </contour>
  </outline>
</glyph>
<glyph name="at" format="2">
  <advance width="944"/>
  <unicode hex="0040"/>
  <outline>
    <contour>
      <point x="475" y="667" type="qcurve" smooth="yes"/>
      <point x="560" y="667"/>
      <point x="701" y="604"/>
      <point x="803" y="494"/>
      <point x="859" y="347"/>
      <point x="859" y="264" type="qcurve" smooth="yes"/>
      <point x="859" y="230"/>
      <point x="845" y="166"/>
      <point x="814" y="116"/>
      <point x="762" y="86"/>
      <point x="724" y="86" type="qcurve" smooth="yes"/>
      <point x="696" y="86"/>
      <point x="651" y="101"/>
      <point x="628" y="118" type="qcurve" smooth="yes"/>
      <point x="623" y="122" type="line"/>
      <point x="617" y="120" type="line" smooth="yes"/>
      <point x="596" y="111"/>
      <point x="555" y="93"/>
      <point x="533" y="86" type="qcurve"/>
      <point x="492" y="70"/>
      <point x="447" y="70" type="qcurve" smooth="yes"/>
      <point x="393" y="70"/>
      <point x="330" y="136"/>
      <point x="330" y="190" type="qcurve" smooth="yes"/>
      <point x="330" y="242"/>
      <point x="377" y="292"/>
      <point x="414" y="303" type="qcurve" smooth="yes"/>
      <point x="441" y="310"/>
      <point x="495" y="312"/>
      <point x="523" y="312" type="qcurve" smooth="yes"/>
      <point x="583" y="312" type="line"/>
      <point x="583" y="391" type="line"/>
      <point x="580" y="391" type="line"/>
      <point x="576" y="408"/>
      <point x="552" y="430"/>
      <point x="521" y="443"/>
      <point x="488" y="448"/>
      <point x="475" y="448" type="qcurve" smooth="yes"/>
      <point x="453" y="448"/>
      <point x="393" y="444"/>
      <point x="372" y="431" type="qcurve"/>
      <point x="350" y="452" type="line"/>
      <point x="373" y="469"/>
      <point x="435" y="479"/>
      <point x="463" y="479" type="qcurve" smooth="yes"/>
      <point x="492" y="479"/>
      <point x="542" y="470"/>
      <point x="582" y="448"/>
      <point x="608" y="408"/>
      <point x="612" y="377" type="qcurve" smooth="yes"/>
      <point x="614" y="365"/>
      <point x="614" y="353" type="qcurve" smooth="yes"/>
      <point x="614" y="328" type="line" smooth="yes"/>
      <point x="614" y="307"/>
      <point x="612" y="263"/>
      <point x="612" y="242" type="qcurve" smooth="yes"/>
      <point x="612" y="181"/>
      <point x="666" y="119"/>
      <point x="729" y="119" type="qcurve" smooth="yes"/>
      <point x="760" y="119"/>
      <point x="799" y="147"/>
      <point x="821" y="189"/>
      <point x="829" y="240"/>
      <point x="829" y="263" type="qcurve" smooth="yes"/>
      <point x="829" y="340"/>
      <point x="777" y="476"/>
      <point x="683" y="578"/>
      <point x="552" y="637"/>
      <point x="473" y="637" type="qcurve" smooth="yes"/>
      <point x="400" y="637"/>
      <point x="272" y="579"/>
      <point x="176" y="481"/>
      <point x="121" y="351"/>
      <point x="121" y="205"/>
      <point x="176" y="75"/>
      <point x="271" y="-22"/>
      <point x="399" y="-79"/>
      <point x="472" y="-79" type="qcurve" smooth="yes"/>
      <point x="549" y="-79"/>
      <point x="619" y="-49" type="qcurve"/>
      <point x="633" y="-74" type="line"/>
      <point x="595" y="-91"/>
      <point x="516" y="-111"/>
      <point x="474" y="-111" type="qcurve" smooth="yes"/>
      <point x="395" y="-111"/>
      <point x="255" y="-49"/>
      <point x="151" y="56"/>
      <point x="91" y="198"/>
      <point x="91" y="277" type="qcurve" smooth="yes"/>
      <point x="91" y="358"/>
      <point x="151" y="500"/>
      <point x="254" y="606"/>
      <point x="394" y="667"/>
    </contour>
    <contour>
      <point x="360" y="190" type="qcurve" smooth="yes"/>
      <point x="360" y="151"/>
      <point x="407" y="102"/>
      <point x="447" y="102" type="qcurve" smooth="yes"/>
      <point x="485" y="102"/>
      <point x="560" y="128"/>
      <point x="592" y="142" type="qcurve" smooth="yes"/>
      <point x="603" y="147" type="line"/>
      <point x="600" y="153" type="line" smooth="yes"/>
      <point x="593" y="167"/>
      <point x="587" y="196"/>
      <point x="585" y="211" type="qcurve" smooth="yes"/>
      <point x="583" y="228"/>
      <point x="583" y="244" type="qcurve" smooth="yes"/>
      <point x="583" y="280" type="line"/>
      <point x="476" y="280" type="line" smooth="yes"/>
      <point x="456" y="280"/>
      <point x="414" y="271"/>
      <point x="381" y="250"/>
      <point x="360" y="216"/>
    </contour>
  </outline>
</glyph>
<glyph name="A" format="2">
  <advance width="656"/>
  <unicode hex="0041"/>
  <outline>
    <contour>
      <point x="32" y="0" type="line"/>
      <point x="306" y="783" type="line"/>
      <point x="349" y="783" type="line"/>
      <point x="624" y="0" type="line"/>
      <point x="590" y="0" type="line"/>
      <point x="482" y="307" type="line"/>
      <point x="173" y="307" type="line"/>
      <point x="65" y="0" type="line"/>
    </contour>
    <contour>
      <point x="184" y="337" type="line"/>
      <point x="470" y="337" type="line"/>
      <point x="327" y="761" type="line"/>
    </contour>
  </outline>
</glyph>
<glyph name="B" format="2">
  <advance width="632"/>
  <unicode hex="0042"/>
  <outline>
    <contour>
      <point x="92" y="783" type="line"/>
      <point x="402" y="783" type="line" smooth="yes"/>
      <point x="431" y="783"/>
      <point x="480" y="758"/>
      <point x="517" y="717"/>
      <point x="543" y="664"/>
      <point x="548" y="637" type="qcurve" smooth="yes"/>
      <point x="551" y="621"/>
      <point x="553" y="590"/>
      <point x="553" y="575" type="qcurve" smooth="yes"/>
      <point x="553" y="521"/>
      <point x="520" y="439"/>
      <point x="480" y="404" type="qcurve" smooth="yes"/>
      <point x="473" y="398" type="line"/>
      <point x="481" y="394" type="line" smooth="yes"/>
      <point x="510" y="381"/>
      <point x="548" y="340"/>
      <point x="571" y="288"/>
      <point x="580" y="230"/>
      <point x="580" y="200" type="qcurve" smooth="yes"/>
      <point x="580" y="167"/>
      <point x="562" y="96"/>
      <point x="526" y="37"/>
      <point x="470" y="0"/>
      <point x="431" y="0" type="qcurve" smooth="yes"/>
      <point x="92" y="0" type="line"/>
    </contour>
    <contour>
      <point x="122" y="375" type="line"/>
      <point x="122" y="30" type="line"/>
      <point x="430" y="30" type="line" smooth="yes"/>
      <point x="441" y="30"/>
      <point x="464" y="38"/>
      <point x="474" y="43" type="qcurve" smooth="yes"/>
      <point x="497" y="54"/>
      <point x="526" y="90"/>
      <point x="544" y="133"/>
      <point x="551" y="181"/>
      <point x="551" y="203" type="qcurve" smooth="yes"/>
      <point x="551" y="242"/>
      <point x="527" y="321"/>
      <point x="495" y="348" type="qcurve" smooth="yes"/>
      <point x="481" y="359"/>
      <point x="448" y="375"/>
      <point x="430" y="375" type="qcurve" smooth="yes"/>
    </contour>
    <contour>
      <point x="122" y="407" type="line"/>
      <point x="402" y="407" type="line" smooth="yes"/>
      <point x="435" y="407"/>
      <point x="481" y="442"/>
      <point x="509" y="494"/>
      <point x="521" y="555"/>
      <point x="521" y="580" type="qcurve" smooth="yes"/>
      <point x="521" y="606"/>
      <point x="509" y="666"/>
      <point x="481" y="718"/>
      <point x="435" y="752"/>
      <point x="401" y="752" type="qcurve" smooth="yes"/>
      <point x="122" y="752" type="line"/>
    </contour>
  </outline>
</glyph>
<glyph name="C" format="2">
  <advance width="618"/>
  <unicode hex="0043"/>
  <outline>
    <contour>
      <point x="572" y="88" type="line"/>
      <point x="554" y="60"/>
      <point x="496" y="22"/>
      <point x="429" y="-1"/>
      <point x="357" y="-10"/>
      <point x="324" y="-10" type="qcurve" smooth="yes"/>
      <point x="229" y="-10"/>
      <point x="117" y="55"/>
      <point x="59" y="165"/>
      <point x="42" y="310"/>
      <point x="42" y="391" type="qcurve" smooth="yes"/>
      <point x="42" y="472"/>
      <point x="59" y="617"/>
      <point x="117" y="728"/>
      <point x="229" y="793"/>
      <point x="324" y="793" type="qcurve" smooth="yes"/>
      <point x="357" y="793"/>
      <point x="429" y="783"/>
      <point x="495" y="761"/>
      <point x="553" y="723"/>
      <point x="572" y="695" type="qcurve"/>
      <point x="545" y="677" type="line"/>
      <point x="526" y="702"/>
      <point x="474" y="735"/>
      <point x="415" y="755"/>
      <point x="353" y="763"/>
      <point x="324" y="763" type="qcurve" smooth="yes"/>
      <point x="234" y="763"/>
      <point x="133" y="699"/>
      <point x="84" y="594"/>
      <point x="72" y="460"/>
      <point x="72" y="391" type="qcurve" smooth="yes"/>
      <point x="72" y="345"/>
      <point x="76" y="253"/>
      <point x="92" y="171"/>
      <point x="124" y="101"/>
      <point x="180" y="49"/>
      <point x="264" y="20"/>
      <point x="324" y="20" type="qcurve" smooth="yes"/>
      <point x="353" y="20"/>
      <point x="416" y="27"/>
      <point x="475" y="47"/>
      <point x="528" y="80"/>
      <point x="546" y="106" type="qcurve"/>
    </contour>
  </outline>
</glyph>
<glyph name="D" format="2">
  <advance width="638"/>
  <unicode hex="0044"/>
  <outline>
    <contour>
      <point x="294" y="0" type="qcurve" smooth="yes"/>
      <point x="72" y="0" type="line"/>
      <point x="72" y="783" type="line"/>
      <point x="294" y="783" type="line" smooth="yes"/>
      <point x="389" y="783"/>
      <point x="500" y="721"/>
      <point x="559" y="614"/>
      <point x="576" y="472"/>
      <point x="576" y="391" type="qcurve" smooth="yes"/>
      <point x="576" y="310"/>
      <point x="559" y="168"/>
      <point x="501" y="61"/>
      <point x="389" y="0"/>
    </contour>
    <contour>
      <point x="294" y="752" type="qcurve" smooth="yes"/>
      <point x="102" y="752" type="line"/>
      <point x="102" y="31" type="line"/>
      <point x="294" y="31" type="line" smooth="yes"/>
      <point x="384" y="31"/>
      <point x="485" y="91"/>
      <point x="534" y="190"/>
      <point x="546" y="321"/>
      <point x="546" y="391" type="qcurve" smooth="yes"/>
      <point x="546" y="461"/>
      <point x="534" y="591"/>
      <point x="484" y="692"/>
      <point x="383" y="752"/>
    </contour>
  </outline>
</glyph>
<glyph name="E" format="2">
  <advance width="606"/>
  <unicode hex="0045"/>
  <outline>
    <contour>
      <point x="92" y="783" type="line"/>
      <point x="554" y="783" type="line"/>
      <point x="554" y="752" type="line"/>
      <point x="122" y="752" type="line"/>
      <point x="122" y="407" type="line"/>
      <point x="518" y="407" type="line"/>
      <point x="518" y="377" type="line"/>
      <point x="122" y="377" type="line"/>
      <point x="122" y="31" type="line"/>
      <point x="554" y="31" type="line"/>
      <point x="554" y="0" type="line"/>
      <point x="92" y="0" type="line"/>
    </contour>
  </outline>
</glyph>
<glyph name="F" format="2">
  <advance width="606"/>
  <unicode hex="0046"/>
  <outline>
    <contour>
      <point x="92" y="783" type="line"/>
      <point x="554" y="783" type="line"/>
      <point x="554" y="752" type="line"/>
      <point x="122" y="752" type="line"/>
      <point x="122" y="407" type="line"/>
      <point x="518" y="407" type="line"/>
      <point x="518" y="377" type="line"/>
      <point x="122" y="377" type="line"/>
      <point x="122" y="0" type="line"/>
      <point x="92" y="0" type="line"/>
    </contour>
  </outline>
</glyph>
<glyph name="G" format="2">
  <advance width="659"/>
  <unicode hex="0047"/>
  <outline>
    <contour>
      <point x="51" y="390" type="qcurve" smooth="yes"/>
      <point x="51" y="472"/>
      <point x="66" y="618"/>
      <point x="123" y="727"/>
      <point x="236" y="791"/>
      <point x="333" y="791" type="qcurve" smooth="yes"/>
      <point x="367" y="791"/>
      <point x="438" y="782"/>
      <point x="504" y="759"/>
      <point x="561" y="722"/>
      <point x="581" y="693" type="qcurve"/>
      <point x="555" y="675" type="line"/>
      <point x="537" y="701"/>
      <point x="484" y="733"/>
      <point x="424" y="753"/>
      <point x="361" y="760"/>
      <point x="333" y="760" type="qcurve" smooth="yes"/>
      <point x="243" y="760"/>
      <point x="142" y="701"/>
      <point x="93" y="601"/>
      <point x="81" y="472"/>
      <point x="81" y="401" type="qcurve" smooth="yes"/>
      <point x="81" y="331"/>
      <point x="91" y="194"/>
      <point x="139" y="86"/>
      <point x="241" y="19"/>
      <point x="333" y="19" type="qcurve" smooth="yes"/>
      <point x="414" y="19"/>
      <point x="512" y="71"/>
      <point x="564" y="160"/>
      <point x="583" y="279"/>
      <point x="584" y="345" type="qcurve"/>
      <point x="584" y="357" type="line"/>
      <point x="338" y="357" type="line"/>
      <point x="338" y="389" type="line"/>
      <point x="615" y="389" type="line"/>
      <point x="615" y="309"/>
      <point x="598" y="164"/>
      <point x="540" y="54"/>
      <point x="428" y="-11"/>
      <point x="333" y="-11" type="qcurve" smooth="yes"/>
      <point x="238" y="-11"/>
      <point x="126" y="54"/>
      <point x="68" y="164"/>
      <point x="51" y="309"/>
    </contour>
  </outline>
</glyph>
<glyph name="H" format="2">
  <advance width="672"/>
  <unicode hex="0048"/>
  <outline>
    <contour>
      <point x="122" y="783" type="line"/>
      <point x="122" y="407" type="line"/>
      <point x="550" y="407" type="line"/>
      <point x="550" y="783" type="line"/>
      <point x="580" y="783" type="line"/>
      <point x="580" y="0" type="line"/>
      <point x="550" y="0" type="line"/>
      <point x="550" y="377" type="line"/>
      <point x="122" y="377" type="line"/>
      <point x="122" y="0" type="line"/>
      <point x="92" y="0" type="line"/>
      <point x="92" y="783" type="line"/>
    </contour>
  </outline>
</glyph>
<glyph name="J" format="2">
  <advance width="362"/>
  <unicode hex="004A"/>
  <outline>
    <contour>
      <point x="270" y="783" type="line"/>
      <point x="270" y="158" type="line" smooth="yes"/>
      <point x="270" y="117"/>
      <point x="236" y="55"/>
      <point x="181" y="14"/>
      <point x="109" y="-6"/>
      <point x="71" y="-6" type="qcurve" smooth="yes"/>
      <point x="31" y="-6"/>
      <point x="-12" y="2" type="qcurve"/>
      <point x="-3" y="34" type="line"/>
      <point x="15" y="31"/>
      <point x="52" y="25"/>
      <point x="72" y="25" type="qcurve" smooth="yes"/>
      <point x="105" y="25"/>
      <point x="166" y="41"/>
      <point x="212" y="76"/>
      <point x="240" y="131"/>
      <point x="240" y="169" type="qcurve" smooth="yes"/>
      <point x="240" y="783" type="line"/>
    </contour>
  </outline>
</glyph>
<glyph name="K" format="2">
  <advance width="621"/>
  <unicode hex="004B"/>
  <outline>
    <contour>
      <point x="122" y="783" type="line"/>
      <point x="122" y="355" type="line"/>
      <point x="543" y="783" type="line"/>
      <point x="589" y="783" type="line"/>
      <point x="258" y="450" type="line"/>
      <point x="589" y="0" type="line"/>
      <point x="551" y="0" type="line"/>
      <point x="238" y="427" type="line"/>
      <point x="122" y="313" type="line"/>
      <point x="122" y="0" type="line"/>
      <point x="92" y="0" type="line"/>
      <point x="92" y="783" type="line"/>
    </contour>
  </outline>
</glyph>
<glyph name="L" format="2">
  <advance width="586"/>
  <unicode hex="004C"/>
  <outline>
    <contour>
      <point x="122" y="783" type="line"/>
      <point x="122" y="31" type="line"/>
      <point x="554" y="31" type="line"/>
      <point x="554" y="0" type="line"/>
      <point x="92" y="0" type="line"/>
      <point x="92" y="783" type="line"/>
    </contour>
  </outline>
</glyph>
<glyph name="M" format="2">
  <advance width="782"/>
  <unicode hex="004D"/>
  <outline>
    <contour>
      <point x="92" y="783" type="line"/>
      <point x="128" y="783" type="line"/>
      <point x="390" y="32" type="line"/>
      <point x="652" y="783" type="line"/>
      <point x="690" y="783" type="line"/>
      <point x="690" y="0" type="line"/>
      <point x="658" y="0" type="line"/>
      <point x="658" y="707" type="line"/>
      <point x="407" y="0" type="line"/>
      <point x="373" y="0" type="line"/>
      <point x="122" y="707" type="line"/>
      <point x="122" y="0" type="line"/>
      <point x="92" y="0" type="line"/>
    </contour>
  </outline>
</glyph>
<glyph name="N" format="2">
  <advance width="672"/>
  <unicode hex="004E"/>
  <outline>
    <contour>
      <point x="92" y="782" type="line"/>
      <point x="132" y="782" type="line"/>
      <point x="550" y="45" type="line"/>
      <point x="550" y="782" type="line"/>
      <point x="580" y="782" type="line"/>
      <point x="580" y="0" type="line"/>
      <point x="537" y="0" type="line"/>
      <point x="122" y="737" type="line"/>
      <point x="122" y="0" type="line"/>
      <point x="92" y="0" type="line"/>
    </contour>
  </outline>
</glyph>
<glyph name="O" format="2">
  <advance width="699"/>
  <unicode hex="004F"/>
  <outline>
    <contour>
      <point x="349" y="793" type="qcurve" smooth="yes"/>
      <point x="444" y="793"/>
      <point x="556" y="728"/>
      <point x="614" y="617"/>
      <point x="631" y="471"/>
      <point x="631" y="391" type="qcurve" smooth="yes"/>
      <point x="631" y="310"/>
      <point x="614" y="165"/>
      <point x="556" y="55"/>
      <point x="444" y="-10"/>
      <point x="349" y="-10" type="qcurve" smooth="yes"/>
      <point x="254" y="-10"/>
      <point x="142" y="55"/>
      <point x="84" y="165"/>
      <point x="67" y="310"/>
      <point x="67" y="391" type="qcurve" smooth="yes"/>
      <point x="67" y="471"/>
      <point x="84" y="617"/>
      <point x="142" y="728"/>
      <point x="254" y="793"/>
    </contour>
    <contour>
      <point x="349" y="763" type="qcurve" smooth="yes"/>
      <point x="259" y="763"/>
      <point x="158" y="699"/>
      <point x="109" y="594"/>
      <point x="97" y="460"/>
      <point x="97" y="391" type="qcurve" smooth="yes"/>
      <point x="97" y="345"/>
      <point x="101" y="253"/>
      <point x="117" y="171"/>
      <point x="149" y="101"/>
      <point x="205" y="49"/>
      <point x="289" y="20"/>
      <point x="349" y="20" type="qcurve" smooth="yes"/>
      <point x="409" y="20"/>
      <point x="493" y="49"/>
      <point x="549" y="101"/>
      <point x="581" y="171"/>
      <point x="597" y="253"/>
      <point x="601" y="345"/>
      <point x="601" y="391" type="qcurve" smooth="yes"/>
      <point x="601" y="460"/>
      <point x="589" y="594"/>
      <point x="540" y="699"/>
      <point x="439" y="763"/>
    </contour>
  </outline>
</glyph>
<glyph name="P" format="2">
  <advance width="607"/>
  <unicode hex="0050"/>
  <outline>
    <contour>
      <point x="402" y="783" type="line" smooth="yes"/>
      <point x="441" y="783"/>
      <point x="498" y="746"/>
      <point x="536" y="687"/>
      <point x="554" y="615"/>
      <point x="554" y="580" type="qcurve" smooth="yes"/>
      <point x="554" y="545"/>
      <point x="535" y="473"/>
      <point x="498" y="414"/>
      <point x="441" y="377"/>
      <point x="402" y="377" type="qcurve" smooth="yes"/>
      <point x="122" y="377" type="line"/>
      <point x="122" y="0" type="line"/>
      <point x="92" y="0" type="line"/>
      <point x="92" y="783" type="line"/>
    </contour>
    <contour>
      <point x="402" y="407" type="line" smooth="yes"/>
      <point x="416" y="407"/>
      <point x="436" y="414"/>
      <point x="447" y="420" type="qcurve" smooth="yes"/>
      <point x="491" y="447"/>
      <point x="522" y="533"/>
      <point x="522" y="581" type="qcurve" smooth="yes"/>
      <point x="522" y="607"/>
      <point x="510" y="667"/>
      <point x="481" y="718"/>
      <point x="435" y="752"/>
      <point x="401" y="752" type="qcurve" smooth="yes"/>
      <point x="122" y="752" type="line"/>
      <point x="122" y="407" type="line"/>
    </contour>
  </outline>
</glyph>
<glyph name="Q" format="2">
  <advance width="699"/>
  <unicode hex="0051"/>
  <outline>
    <contour>
      <point x="452" y="36" type="qcurve" smooth="yes"/>
      <point x="462" y="40" type="line"/>
      <point x="454" y="47" type="line" smooth="yes"/>
      <point x="432" y="64"/>
      <point x="401" y="113"/>
      <point x="390" y="139" type="qcurve"/>
      <point x="419" y="153" type="line"/>
      <point x="429" y="124"/>
      <point x="465" y="75"/>
      <point x="491" y="58" type="qcurve" smooth="yes"/>
      <point x="494" y="56" type="line"/>
      <point x="497" y="58" type="line" smooth="yes"/>
      <point x="537" y="81"/>
      <point x="579" y="163"/>
      <point x="588" y="210" type="qcurve" smooth="yes"/>
      <point x="598" y="257"/>
      <point x="601" y="352"/>
      <point x="601" y="391" type="qcurve" smooth="yes"/>
      <point x="601" y="460"/>
      <point x="589" y="594"/>
      <point x="540" y="699"/>
      <point x="439" y="763"/>
      <point x="349" y="763" type="qcurve" smooth="yes"/>
      <point x="259" y="763"/>
      <point x="158" y="699"/>
      <point x="109" y="594"/>
      <point x="97" y="460"/>
      <point x="97" y="391" type="qcurve" smooth="yes"/>
      <point x="97" y="322"/>
      <point x="109" y="188"/>
      <point x="158" y="84"/>
      <point x="259" y="20"/>
      <point x="349" y="20" type="qcurve" smooth="yes"/>
      <point x="375" y="20"/>
      <point x="428" y="27"/>
    </contour>
    <contour>
      <point x="627" y="-10" type="line"/>
      <point x="595" y="-8"/>
      <point x="529" y="3"/>
      <point x="498" y="16" type="qcurve"/>
      <point x="494" y="20" type="line"/>
      <point x="490" y="16" type="line"/>
      <point x="457" y="2"/>
      <point x="386" y="-10"/>
      <point x="349" y="-10" type="qcurve" smooth="yes"/>
      <point x="254" y="-10"/>
      <point x="142" y="55"/>
      <point x="84" y="165"/>
      <point x="67" y="310"/>
      <point x="67" y="391" type="qcurve" smooth="yes"/>
      <point x="67" y="471"/>
      <point x="84" y="617"/>
      <point x="142" y="728"/>
      <point x="254" y="793"/>
      <point x="349" y="793" type="qcurve" smooth="yes"/>
      <point x="444" y="793"/>
      <point x="556" y="728"/>
      <point x="614" y="617"/>
      <point x="631" y="471"/>
      <point x="631" y="391" type="qcurve" smooth="yes"/>
      <point x="631" y="350"/>
      <point x="627" y="252"/>
      <point x="608" y="157"/>
      <point x="570" y="73"/>
      <point x="536" y="47" type="qcurve" smooth="yes"/>
      <point x="528" y="40" type="line"/>
      <point x="538" y="36" type="line" smooth="yes"/>
      <point x="559" y="28"/>
      <point x="605" y="21"/>
      <point x="627" y="20" type="qcurve"/>
    </contour>
  </outline>
</glyph>
<glyph name="R" format="2">
  <advance width="625"/>
  <unicode hex="0052"/>
  <outline>
    <contour>
      <point x="402" y="783" type="line" smooth="yes"/>
      <point x="440" y="783"/>
      <point x="497" y="745"/>
      <point x="535" y="685"/>
      <point x="554" y="613"/>
      <point x="554" y="578" type="qcurve" smooth="yes"/>
      <point x="554" y="524"/>
      <point x="513" y="423"/>
      <point x="465" y="394" type="qcurve" smooth="yes"/>
      <point x="457" y="390" type="line"/>
      <point x="593" y="0" type="line"/>
      <point x="560" y="0" type="line"/>
      <point x="428" y="378" type="line"/>
      <point x="408" y="378" type="line" smooth="yes"/>
      <point x="338" y="378"/>
      <point x="200" y="377"/>
      <point x="128" y="377" type="qcurve" smooth="yes"/>
      <point x="122" y="377" type="line"/>
      <point x="122" y="0" type="line"/>
      <point x="92" y="0" type="line"/>
      <point x="92" y="783" type="line"/>
    </contour>
    <contour>
      <point x="122" y="407" type="line"/>
      <point x="401" y="407" type="line" smooth="yes"/>
      <point x="435" y="407"/>
      <point x="481" y="442"/>
      <point x="509" y="494"/>
      <point x="521" y="555"/>
      <point x="521" y="580" type="qcurve" smooth="yes"/>
      <point x="521" y="606"/>
      <point x="509" y="666"/>
      <point x="481" y="718"/>
      <point x="435" y="752"/>
      <point x="401" y="752" type="qcurve" smooth="yes"/>
      <point x="122" y="752" type="line"/>
    </contour>
  </outline>
</glyph>
<glyph name="S" format="2">
  <advance width="632"/>
  <unicode hex="0053"/>
  <outline>
    <contour>
      <point x="72" y="59" type="qcurve"/>
      <point x="94" y="79" type="line"/>
      <point x="113" y="61"/>
      <point x="164" y="39"/>
      <point x="219" y="26"/>
      <point x="274" y="22"/>
      <point x="298" y="22" type="qcurve" smooth="yes"/>
      <point x="338" y="22"/>
      <point x="407" y="36"/>
      <point x="464" y="70"/>
      <point x="506" y="126"/>
      <point x="519" y="167" type="qcurve" smooth="yes"/>
      <point x="524" y="183"/>
      <point x="530" y="214"/>
      <point x="530" y="231" type="qcurve" smooth="yes"/>
      <point x="530" y="251"/>
      <point x="520" y="294"/>
      <point x="500" y="333"/>
      <point x="468" y="362"/>
      <point x="446" y="369" type="qcurve" smooth="yes"/>
      <point x="396" y="383"/>
      <point x="299" y="409"/>
      <point x="250" y="423" type="qcurve" smooth="yes"/>
      <point x="217" y="433"/>
      <point x="157" y="462"/>
      <point x="113" y="505"/>
      <point x="87" y="561"/>
      <point x="87" y="598" type="qcurve" smooth="yes"/>
      <point x="87" y="648"/>
      <point x="126" y="721"/>
      <point x="190" y="768"/>
      <point x="275" y="791"/>
      <point x="321" y="791" type="qcurve" smooth="yes"/>
      <point x="345" y="791"/>
      <point x="402" y="787"/>
      <point x="459" y="775"/>
      <point x="510" y="753"/>
      <point x="528" y="736" type="qcurve"/>
      <point x="503" y="716" type="line"/>
      <point x="487" y="731"/>
      <point x="440" y="748"/>
      <point x="389" y="757"/>
      <point x="339" y="760"/>
      <point x="319" y="760" type="qcurve" smooth="yes"/>
      <point x="282" y="760"/>
      <point x="209" y="743"/>
      <point x="152" y="705"/>
      <point x="117" y="643"/>
      <point x="117" y="599" type="qcurve" smooth="yes"/>
      <point x="117" y="566"/>
      <point x="141" y="517"/>
      <point x="180" y="483"/>
      <point x="230" y="461"/>
      <point x="257" y="453" type="qcurve" smooth="yes"/>
      <point x="453" y="397" type="line" smooth="yes"/>
      <point x="469" y="393"/>
      <point x="500" y="371"/>
      <point x="526" y="342"/>
      <point x="545" y="309"/>
      <point x="550" y="292" type="qcurve" smooth="yes"/>
      <point x="560" y="261"/>
      <point x="560" y="224" type="qcurve" smooth="yes"/>
      <point x="560" y="169"/>
      <point x="520" y="83"/>
      <point x="451" y="23"/>
      <point x="359" y="-9"/>
      <point x="307" y="-9" type="qcurve" smooth="yes"/>
      <point x="277" y="-9"/>
      <point x="211" y="-5"/>
      <point x="149" y="10"/>
      <point x="93" y="37"/>
    </contour>
  </outline>
</glyph>
<glyph name="T" format="2">
  <advance width="536"/>
  <unicode hex="0054"/>
  <outline>
    <contour>
      <point x="484" y="783" type="line"/>
      <point x="484" y="752" type="line"/>
      <point x="284" y="752" type="line"/>
      <point x="284" y="0" type="line"/>
      <point x="254" y="0" type="line"/>
      <point x="254" y="752" type="line"/>
      <point x="52" y="752" type="line"/>
      <point x="52" y="783" type="line"/>
    </contour>
  </outline>
</glyph>
<glyph name="U" format="2">
  <advance width="699"/>
  <unicode hex="0055"/>
  <outline>
    <contour>
      <point x="122" y="783" type="line"/>
      <point x="122" y="186" type="line" smooth="yes"/>
      <point x="122" y="150"/>
      <point x="141" y="119" type="qcurve" smooth="yes"/>
      <point x="175" y="63"/>
      <point x="284" y="20"/>
      <point x="345" y="20" type="qcurve" smooth="yes"/>
      <point x="381" y="20"/>
      <point x="463" y="37"/>
      <point x="532" y="76"/>
      <point x="577" y="140"/>
      <point x="577" y="186" type="qcurve" smooth="yes"/>
      <point x="577" y="783" type="line"/>
      <point x="607" y="783" type="line"/>
      <point x="607" y="186" type="line" smooth="yes"/>
      <point x="607" y="148"/>
      <point x="591" y="115" type="qcurve" smooth="yes"/>
      <point x="575" y="80"/>
      <point x="523" y="32"/>
      <point x="460" y="3"/>
      <point x="389" y="-10"/>
      <point x="353" y="-10" type="qcurve" smooth="yes"/>
      <point x="329" y="-10"/>
      <point x="282" y="-6"/>
      <point x="258" y="0" type="qcurve" smooth="yes"/>
      <point x="225" y="8"/>
      <point x="165" y="41"/>
      <point x="119" y="89"/>
      <point x="92" y="150"/>
      <point x="92" y="186" type="qcurve" smooth="yes"/>
      <point x="92" y="783" type="line"/>
    </contour>
  </outline>
</glyph>
<glyph name="V" format="2">
  <advance width="653"/>
  <unicode hex="0056"/>
  <outline>
    <contour>
      <point x="32" y="783" type="line"/>
      <point x="63" y="783" type="line"/>
      <point x="326" y="32" type="line"/>
      <point x="588" y="783" type="line"/>
      <point x="621" y="783" type="line"/>
      <point x="343" y="0" type="line"/>
      <point x="309" y="0" type="line"/>
    </contour>
  </outline>
</glyph>
<glyph name="W" format="2">
  <advance width="949"/>
  <unicode hex="0057"/>
  <outline>
    <contour>
      <point x="32" y="782" type="line"/>
      <point x="62" y="782" type="line"/>
      <point x="260" y="53" type="line"/>
      <point x="456" y="782" type="line"/>
      <point x="493" y="782" type="line"/>
      <point x="689" y="53" type="line"/>
      <point x="887" y="782" type="line"/>
      <point x="917" y="782" type="line"/>
      <point x="705" y="-1" type="line"/>
      <point x="673" y="-1" type="line"/>
      <point x="473" y="744" type="line"/>
      <point x="276" y="-1" type="line"/>
      <point x="244" y="-1" type="line"/>
    </contour>
  </outline>
</glyph>
<glyph name="X" format="2">
  <advance width="596"/>
  <unicode hex="0058"/>
  <outline>
    <contour>
      <point x="32" y="0" type="line"/>
      <point x="280" y="391" type="line"/>
      <point x="32" y="783" type="line"/>
      <point x="68" y="783" type="line"/>
      <point x="298" y="409" type="line"/>
      <point x="528" y="783" type="line"/>
      <point x="564" y="783" type="line"/>
      <point x="316" y="391" type="line"/>
      <point x="564" y="0" type="line"/>
      <point x="528" y="0" type="line"/>
      <point x="298" y="374" type="line"/>
      <point x="68" y="0" type="line"/>
    </contour>
  </outline>
</glyph>
<glyph name="Y" format="2">
  <advance width="597"/>
  <unicode hex="0059"/>
  <outline>
    <contour>
      <point x="68" y="783" type="line"/>
      <point x="297" y="410" type="line"/>
      <point x="528" y="783" type="line"/>
      <point x="565" y="783" type="line"/>
      <point x="312" y="388" type="line"/>
      <point x="312" y="0" type="line"/>
      <point x="282" y="0" type="line"/>
      <point x="282" y="388" type="line"/>
      <point x="32" y="783" type="line"/>
    </contour>
  </outline>
</glyph>
<glyph name="Z" format="2">
  <advance width="638"/>
  <unicode hex="005A"/>
  <outline>
    <contour>
      <point x="52" y="0" type="line"/>
      <point x="52" y="27" type="line"/>
      <point x="545" y="752" type="line"/>
      <point x="52" y="752" type="line"/>
      <point x="52" y="783" type="line"/>
      <point x="585" y="783" type="line"/>
      <point x="585" y="756" type="line"/>
      <point x="92" y="31" type="line"/>
      <point x="586" y="31" type="line"/>
      <point x="586" y="0" type="line"/>
    </contour>
  </outline>
</glyph>
<glyph name="bracketleft" format="2">
  <advance width="260"/>
  <unicode hex="005B"/>
  <outline>
    <contour>
      <point x="205" y="812" type="line"/>
      <point x="205" y="787" type="line"/>
      <point x="80" y="787" type="line"/>
      <point x="80" y="-68" type="line"/>
      <point x="206" y="-68" type="line"/>
      <point x="206" y="-93" type="line"/>
      <point x="50" y="-93" type="line"/>
      <point x="50" y="812" type="line"/>
    </contour>
  </outline>
</glyph>
<glyph name="backslash" format="2">
  <advance width="434"/>
  <unicode hex="005C"/>
  <outline>
    <contour>
      <point x="305" y="0" type="line"/>
      <point x="40" y="783" type="line"/>
      <point x="73" y="783" type="line"/>
      <point x="338" y="0" type="line"/>
    </contour>
  </outline>
</glyph>
<glyph name="bracketright" format="2">
  <advance width="260"/>
  <unicode hex="005D"/>
  <outline>
    <contour>
      <point x="51" y="812" type="line"/>
      <point x="206" y="812" type="line"/>
      <point x="206" y="-93" type="line"/>
      <point x="50" y="-93" type="line"/>
      <point x="50" y="-68" type="line"/>
      <point x="176" y="-68" type="line"/>
      <point x="176" y="787" type="line"/>
      <point x="51" y="787" type="line"/>
    </contour>
  </outline>
</glyph>
<glyph name="asciicircum" format="2">
  <advance width="461"/>
  <unicode hex="005E"/>
  <outline>
    <contour>
      <point x="231" y="431" type="line"/>
      <point x="439" y="219" type="line"/>
      <point x="421" y="201" type="line"/>
      <point x="231" y="395" type="line"/>
      <point x="40" y="201" type="line"/>
      <point x="22" y="219" type="line"/>
    </contour>
  </outline>
</glyph>
<glyph name="underscore" format="2">
  <advance width="447"/>
  <unicode hex="005F"/>
  <outline>
    <contour>
      <point x="12" y="-74" type="line"/>
      <point x="12" y="-50" type="line"/>
      <point x="435" y="-50" type="line"/>
      <point x="435" y="-74" type="line"/>
    </contour>
  </outline>
</glyph>
<glyph name="grave" format="2">
  <advance width="246"/>
  <unicode hex="0060"/>
  <outline>
    <contour>
      <point x="52" y="705" type="line"/>
      <point x="79" y="702"/>
      <point x="124" y="680"/>
      <point x="162" y="646"/>
      <point x="195" y="604"/>
      <point x="211" y="582" type="qcurve"/>
      <point x="188" y="563" type="line"/>
      <point x="183" y="571"/>
      <point x="171" y="586"/>
      <point x="164" y="594" type="qcurve" smooth="yes"/>
      <point x="156" y="604"/>
      <point x="148" y="613" type="qcurve" smooth="yes"/>
      <point x="132" y="631" type="line"/>
      <point x="114" y="647"/>
      <point x="74" y="670"/>
      <point x="51" y="672" type="qcurve"/>
    </contour>
  </outline>
</glyph>
<glyph name="a" format="2">
  <advance width="485"/>
  <unicode hex="0061"/>
  <outline>
    <contour>
      <point x="52" y="137" type="qcurve" smooth="yes"/>
      <point x="52" y="147"/>
      <point x="56" y="167"/>
      <point x="59" y="177" type="qcurve" smooth="yes"/>
      <point x="70" y="211"/>
      <point x="114" y="252"/>
      <point x="172" y="273"/>
      <point x="238" y="280"/>
      <point x="270" y="280" type="qcurve" smooth="yes"/>
      <point x="296" y="280"/>
      <point x="350" y="278"/>
      <point x="377" y="278" type="qcurve" smooth="yes"/>
      <point x="383" y="278" type="line"/>
      <point x="383" y="391" type="line" smooth="yes"/>
      <point x="383" y="420"/>
      <point x="353" y="459"/>
      <point x="308" y="482"/>
      <point x="256" y="492"/>
      <point x="234" y="492" type="qcurve" smooth="yes"/>
      <point x="219" y="492"/>
      <point x="185" y="490"/>
      <point x="149" y="485"/>
      <point x="115" y="474"/>
      <point x="101" y="465" type="qcurve"/>
      <point x="80" y="486" type="line"/>
      <point x="94" y="497"/>
      <point x="132" y="512"/>
      <point x="173" y="520"/>
      <point x="214" y="523"/>
      <point x="232" y="523" type="qcurve" smooth="yes"/>
      <point x="263" y="523"/>
      <point x="327" y="508"/>
      <point x="380" y="477"/>
      <point x="413" y="427"/>
      <point x="413" y="392" type="qcurve" smooth="yes"/>
      <point x="413" y="0" type="line"/>
      <point x="390" y="0" type="line"/>
      <point x="380" y="34" type="line"/>
      <point x="373" y="30" type="line"/>
      <point x="334" y="13"/>
      <point x="241" y="-11"/>
      <point x="198" y="-11" type="qcurve" smooth="yes"/>
      <point x="126" y="-11"/>
      <point x="52" y="67"/>
    </contour>
    <contour>
      <point x="82" y="133" type="qcurve" smooth="yes"/>
      <point x="82" y="81"/>
      <point x="147" y="19"/>
      <point x="198" y="19" type="qcurve" smooth="yes"/>
      <point x="243" y="19"/>
      <point x="340" y="50"/>
      <point x="379" y="66" type="qcurve" smooth="yes"/>
      <point x="383" y="68" type="line"/>
      <point x="383" y="248" type="line"/>
      <point x="235" y="248" type="line" smooth="yes"/>
      <point x="209" y="248"/>
      <point x="155" y="237"/>
      <point x="110" y="211"/>
      <point x="82" y="166"/>
    </contour>
  </outline>
</glyph>
<glyph name="b" format="2">
  <advance width="511"/>
  <unicode hex="0062"/>
  <outline>
    <contour>
      <point x="264" y="491" type="qcurve" smooth="yes"/>
      <point x="206" y="491"/>
      <point x="142" y="450"/>
      <point x="110" y="384"/>
      <point x="103" y="299"/>
      <point x="103" y="255" type="qcurve" smooth="yes"/>
      <point x="103" y="211"/>
      <point x="110" y="127"/>
      <point x="142" y="61"/>
      <point x="206" y="20"/>
      <point x="264" y="20" type="qcurve" smooth="yes"/>
      <point x="322" y="20"/>
      <point x="386" y="61"/>
      <point x="417" y="127"/>
      <point x="424" y="212"/>
      <point x="424" y="255" type="qcurve" smooth="yes"/>
      <point x="424" y="298"/>
      <point x="417" y="383"/>
      <point x="386" y="450"/>
      <point x="322" y="491"/>
    </contour>
    <contour>
      <point x="103" y="708" type="line"/>
      <point x="103" y="439" type="line"/>
      <point x="113" y="450" type="line" smooth="yes"/>
      <point x="145" y="483"/>
      <point x="219" y="522"/>
      <point x="264" y="522" type="qcurve" smooth="yes"/>
      <point x="328" y="522"/>
      <point x="403" y="480"/>
      <point x="442" y="407"/>
      <point x="454" y="310"/>
      <point x="454" y="255" type="qcurve" smooth="yes"/>
      <point x="454" y="200"/>
      <point x="442" y="104"/>
      <point x="402" y="32"/>
      <point x="326" y="-10"/>
      <point x="263" y="-10" type="qcurve" smooth="yes"/>
      <point x="218" y="-10"/>
      <point x="146" y="27"/>
      <point x="116" y="62" type="qcurve"/>
      <point x="107" y="71" type="line"/>
      <point x="95" y="0" type="line"/>
      <point x="73" y="0" type="line"/>
      <point x="73" y="708" type="line"/>
    </contour>
  </outline>
</glyph>
<glyph name="c" format="2">
  <advance width="471"/>
  <unicode hex="0063"/>
  <outline>
    <contour>
      <point x="424" y="63" type="line"/>
      <point x="412" y="44"/>
      <point x="371" y="16"/>
      <point x="322" y="-2"/>
      <point x="271" y="-10"/>
      <point x="248" y="-10" type="qcurve" smooth="yes"/>
      <point x="185" y="-10"/>
      <point x="110" y="32"/>
      <point x="69" y="104"/>
      <point x="57" y="201"/>
      <point x="57" y="256" type="qcurve" smooth="yes"/>
      <point x="57" y="310"/>
      <point x="70" y="407"/>
      <point x="111" y="479"/>
      <point x="186" y="522"/>
      <point x="248" y="522" type="qcurve" smooth="yes"/>
      <point x="297" y="522"/>
      <point x="394" y="489"/>
      <point x="423" y="448" type="qcurve"/>
      <point x="396" y="435" type="line"/>
      <point x="384" y="450"/>
      <point x="347" y="471"/>
      <point x="306" y="484"/>
      <point x="265" y="491"/>
      <point x="248" y="491" type="qcurve" smooth="yes"/>
      <point x="191" y="491"/>
      <point x="127" y="450"/>
      <point x="95" y="384"/>
      <point x="87" y="300"/>
      <point x="87" y="256" type="qcurve" smooth="yes"/>
      <point x="87" y="212"/>
      <point x="94" y="127"/>
      <point x="126" y="61"/>
      <point x="190" y="20"/>
      <point x="248" y="20" type="qcurve" smooth="yes"/>
      <point x="266" y="20"/>
      <point x="307" y="26"/>
      <point x="348" y="40"/>
      <point x="384" y="62"/>
      <point x="396" y="77" type="qcurve"/>
    </contour>
  </outline>
</glyph>
<glyph name="d" format="2">
  <advance width="511"/>
  <unicode hex="0064"/>
  <outline>
    <contour>
      <point x="246" y="491" type="qcurve" smooth="yes"/>
      <point x="189" y="491"/>
      <point x="124" y="450"/>
      <point x="93" y="383"/>
      <point x="86" y="299"/>
      <point x="86" y="255" type="qcurve" smooth="yes"/>
      <point x="86" y="211"/>
      <point x="93" y="127"/>
      <point x="124" y="61"/>
      <point x="188" y="20"/>
      <point x="246" y="20" type="qcurve" smooth="yes"/>
      <point x="304" y="20"/>
      <point x="369" y="61"/>
      <point x="400" y="127"/>
      <point x="407" y="211"/>
      <point x="407" y="255" type="qcurve" smooth="yes"/>
      <point x="407" y="299"/>
      <point x="400" y="383"/>
      <point x="369" y="450"/>
      <point x="304" y="491"/>
    </contour>
    <contour>
      <point x="407" y="708" type="line"/>
      <point x="437" y="708" type="line"/>
      <point x="437" y="0" type="line"/>
      <point x="415" y="0" type="line"/>
      <point x="403" y="71" type="line"/>
      <point x="394" y="62" type="line"/>
      <point x="365" y="28"/>
      <point x="292" y="-10"/>
      <point x="247" y="-10" type="qcurve" smooth="yes"/>
      <point x="184" y="-10"/>
      <point x="108" y="31"/>
      <point x="68" y="103"/>
      <point x="56" y="200"/>
      <point x="56" y="255" type="qcurve" smooth="yes"/>
      <point x="56" y="310"/>
      <point x="68" y="407"/>
      <point x="107" y="480"/>
      <point x="183" y="522"/>
      <point x="246" y="522" type="qcurve" smooth="yes"/>
      <point x="291" y="522"/>
      <point x="365" y="482"/>
      <point x="397" y="450" type="qcurve" smooth="yes"/>
      <point x="407" y="439" type="line"/>
    </contour>
  </outline>
</glyph>
<glyph name="e" format="2">
  <advance width="491"/>
  <unicode hex="0065"/>
  <outline>
    <contour>
      <point x="244" y="522" type="qcurve" smooth="yes"/>
      <point x="311" y="522"/>
      <point x="387" y="475"/>
      <point x="425" y="397"/>
      <point x="434" y="295"/>
      <point x="434" y="239" type="qcurve"/>
      <point x="84" y="239" type="line"/>
      <point x="84" y="226" type="line" smooth="yes"/>
      <point x="84" y="187"/>
      <point x="95" y="113"/>
      <point x="127" y="55"/>
      <point x="187" y="20"/>
      <point x="236" y="20" type="qcurve" smooth="yes"/>
      <point x="278" y="20"/>
      <point x="362" y="41"/>
      <point x="392" y="76" type="qcurve"/>
      <point x="420" y="62" type="line"/>
      <point x="407" y="42"/>
      <point x="366" y="15"/>
      <point x="318" y="-2"/>
      <point x="267" y="-10"/>
      <point x="244" y="-10" type="qcurve" smooth="yes"/>
      <point x="181" y="-10"/>
      <point x="105" y="31"/>
      <point x="65" y="103"/>
      <point x="53" y="199"/>
      <point x="53" y="254" type="qcurve" smooth="yes"/>
      <point x="53" y="308"/>
      <point x="66" y="406"/>
      <point x="106" y="479"/>
      <point x="181" y="522"/>
    </contour>
    <contour>
      <point x="404" y="269" type="line"/>
      <point x="404" y="281" type="line" smooth="yes"/>
      <point x="404" y="323"/>
      <point x="393" y="399"/>
      <point x="359" y="457"/>
      <point x="296" y="491"/>
      <point x="244" y="491" type="qcurve" smooth="yes"/>
      <point x="191" y="491"/>
      <point x="127" y="456"/>
      <point x="94" y="396"/>
      <point x="84" y="318"/>
      <point x="84" y="275" type="qcurve" smooth="yes"/>
      <point x="84" y="269" type="line"/>
    </contour>
  </outline>
</glyph>
<glyph name="f" format="2">
  <advance width="276"/>
  <unicode hex="0066"/>
  <outline>
    <contour>
      <point x="103" y="447" type="line"/>
      <point x="103" y="602" type="line" smooth="yes"/>
      <point x="103" y="630"/>
      <point x="125" y="673"/>
      <point x="161" y="703"/>
      <point x="208" y="718"/>
      <point x="234" y="718" type="qcurve" smooth="yes"/>
      <point x="245" y="718"/>
      <point x="268" y="716"/>
      <point x="279" y="715" type="qcurve"/>
      <point x="273" y="684" type="line"/>
      <point x="255" y="687"/>
      <point x="234" y="687" type="qcurve" smooth="yes"/>
      <point x="191" y="687"/>
      <point x="135" y="643"/>
      <point x="135" y="595" type="qcurve" smooth="yes"/>
      <point x="135" y="447" type="line"/>
      <point x="250" y="447" type="line"/>
      <point x="250" y="415" type="line"/>
      <point x="135" y="415" type="line"/>
      <point x="135" y="0" type="line"/>
      <point x="103" y="0" type="line"/>
      <point x="103" y="415" type="line"/>
      <point x="59" y="415" type="line"/>
      <point x="59" y="447" type="line"/>
    </contour>
  </outline>
</glyph>
<glyph name="g" format="2">
  <advance width="491"/>
  <unicode hex="0067"/>
  <outline>
    <contour>
      <point x="243" y="20" type="qcurve" smooth="yes"/>
      <point x="301" y="20"/>
      <point x="366" y="61"/>
      <point x="397" y="129"/>
      <point x="404" y="214"/>
      <point x="404" y="257" type="qcurve" smooth="yes"/>
      <point x="404" y="301"/>
      <point x="397" y="385"/>
      <point x="366" y="451"/>
      <point x="301" y="491"/>
      <point x="243" y="491" type="qcurve" smooth="yes"/>
      <point x="186" y="491"/>
      <point x="121" y="451"/>
      <point x="90" y="385"/>
      <point x="83" y="301"/>
      <point x="83" y="257" type="qcurve" smooth="yes"/>
      <point x="83" y="214"/>
      <point x="90" y="129"/>
      <point x="121" y="61"/>
      <point x="185" y="20"/>
    </contour>
    <contour>
      <point x="244" y="522" type="qcurve" smooth="yes"/>
      <point x="326" y="522"/>
      <point x="383" y="460" type="qcurve" smooth="yes"/>
      <point x="400" y="441" type="line"/>
      <point x="412" y="512" type="line"/>
      <point x="434" y="512" type="line"/>
      <point x="434" y="62" type="line" smooth="yes"/>
      <point x="434" y="8"/>
      <point x="422" y="-90"/>
      <point x="383" y="-163"/>
      <point x="308" y="-206"/>
      <point x="244" y="-206" type="qcurve" smooth="yes"/>
      <point x="195" y="-206"/>
      <point x="98" y="-173"/>
      <point x="69" y="-132" type="qcurve"/>
      <point x="96" y="-119" type="line"/>
      <point x="108" y="-135"/>
      <point x="144" y="-156"/>
      <point x="185" y="-169"/>
      <point x="226" y="-175"/>
      <point x="244" y="-175" type="qcurve" smooth="yes"/>
      <point x="301" y="-175"/>
      <point x="365" y="-134"/>
      <point x="397" y="-68"/>
      <point x="404" y="16"/>
      <point x="404" y="59" type="qcurve" smooth="yes"/>
      <point x="404" y="76" type="line"/>
      <point x="393" y="63" type="line" smooth="yes"/>
      <point x="366" y="30"/>
      <point x="286" y="-10"/>
      <point x="243" y="-10" type="qcurve" smooth="yes"/>
      <point x="180" y="-10"/>
      <point x="105" y="32"/>
      <point x="65" y="105"/>
      <point x="53" y="202"/>
      <point x="53" y="257" type="qcurve" smooth="yes"/>
      <point x="53" y="312"/>
      <point x="65" y="409"/>
      <point x="105" y="481"/>
      <point x="181" y="522"/>
    </contour>
  </outline>
</glyph>
<glyph name="h" format="2">
  <advance width="511"/>
  <unicode hex="0068"/>
  <outline>
    <contour>
      <point x="92" y="783" type="line"/>
      <point x="122" y="783" type="line"/>
      <point x="122" y="459" type="line"/>
      <point x="132" y="469" type="line" smooth="yes"/>
      <point x="163" y="498"/>
      <point x="231" y="522"/>
      <point x="273" y="522" type="qcurve" smooth="yes"/>
      <point x="304" y="522"/>
      <point x="363" y="506"/>
      <point x="410" y="473"/>
      <point x="439" y="424"/>
      <point x="439" y="391" type="qcurve" smooth="yes"/>
      <point x="439" y="0" type="line"/>
      <point x="407" y="0" type="line"/>
      <point x="407" y="391" type="line" smooth="yes"/>
      <point x="407" y="420"/>
      <point x="379" y="459"/>
      <point x="337" y="484"/>
      <point x="287" y="495"/>
      <point x="265" y="495" type="qcurve" smooth="yes"/>
      <point x="243" y="495"/>
      <point x="193" y="484"/>
      <point x="150" y="459"/>
      <point x="122" y="420"/>
      <point x="122" y="391" type="qcurve" smooth="yes"/>
      <point x="122" y="0" type="line"/>
      <point x="92" y="0" type="line"/>
    </contour>
  </outline>
</glyph>
<glyph name="i" format="2">
  <advance width="188"/>
  <unicode hex="0069"/>
  <outline>
    <contour>
      <point x="80" y="512" type="line"/>
      <point x="110" y="512" type="line"/>
      <point x="110" y="0" type="line"/>
      <point x="80" y="0" type="line"/>
    </contour>
    <contour>
      <point x="80" y="650" type="line"/>
      <point x="80" y="707" type="line"/>
      <point x="110" y="707" type="line"/>
      <point x="110" y="650" type="line"/>
    </contour>
  </outline>
</glyph>
<glyph name="j" format="2">
  <advance width="253"/>
  <unicode hex="006A"/>
  <outline>
    <contour>
      <point x="13" y="-162" type="line"/>
      <point x="31" y="-165"/>
      <point x="50" y="-165" type="qcurve" smooth="yes"/>
      <point x="95" y="-165"/>
      <point x="151" y="-121"/>
      <point x="151" y="-73" type="qcurve" smooth="yes"/>
      <point x="151" y="512" type="line"/>
      <point x="181" y="512" type="line"/>
      <point x="181" y="-80" type="line" smooth="yes"/>
      <point x="181" y="-108"/>
      <point x="160" y="-151"/>
      <point x="125" y="-181"/>
      <point x="77" y="-196"/>
      <point x="50" y="-196" type="qcurve" smooth="yes"/>
      <point x="39" y="-196"/>
      <point x="18" y="-194"/>
      <point x="7" y="-193" type="qcurve"/>
    </contour>
    <contour>
      <point x="151" y="707" type="line"/>
      <point x="181" y="707" type="line"/>
      <point x="181" y="650" type="line"/>
      <point x="151" y="650" type="line"/>
    </contour>
  </outline>
</glyph>
<glyph name="k" format="2">
  <advance width="464"/>
  <unicode hex="006B"/>
  <outline>
    <contour>
      <point x="92" y="783" type="line"/>
      <point x="122" y="783" type="line"/>
      <point x="122" y="246" type="line"/>
      <point x="386" y="512" type="line"/>
      <point x="430" y="512" type="line"/>
      <point x="215" y="297" type="line"/>
      <point x="432" y="0" type="line"/>
      <point x="393" y="0" type="line"/>
      <point x="194" y="272" type="line"/>
      <point x="122" y="200" type="line"/>
      <point x="122" y="0" type="line"/>
      <point x="92" y="0" type="line"/>
    </contour>
  </outline>
</glyph>
<glyph name="l" format="2">
  <advance width="207"/>
  <unicode hex="006C"/>
  <outline>
    <contour>
      <point x="85" y="708" type="line"/>
      <point x="115" y="708" type="line"/>
      <point x="115" y="0" type="line"/>
      <point x="85" y="0" type="line"/>
    </contour>
  </outline>
</glyph>
<glyph name="m" format="2">
  <advance width="664"/>
  <unicode hex="006D"/>
  <outline>
    <contour>
      <point x="72" y="0" type="line"/>
      <point x="72" y="512" type="line"/>
      <point x="95" y="512" type="line"/>
      <point x="108" y="465" type="line"/>
      <point x="115" y="473" type="line" smooth="yes"/>
      <point x="135" y="495"/>
      <point x="195" y="523"/>
      <point x="224" y="523" type="qcurve" smooth="yes"/>
      <point x="257" y="523"/>
      <point x="301" y="501"/>
      <point x="323" y="477" type="qcurve" smooth="yes"/>
      <point x="332" y="468" type="line"/>
      <point x="341" y="477" type="line" smooth="yes"/>
      <point x="364" y="501"/>
      <point x="422" y="522"/>
      <point x="454" y="522" type="qcurve" smooth="yes"/>
      <point x="480" y="522"/>
      <point x="529" y="510"/>
      <point x="568" y="484"/>
      <point x="592" y="444"/>
      <point x="592" y="415" type="qcurve" smooth="yes"/>
      <point x="592" y="0" type="line"/>
      <point x="562" y="0" type="line"/>
      <point x="562" y="414" type="line" smooth="yes"/>
      <point x="562" y="435"/>
      <point x="540" y="465"/>
      <point x="507" y="484"/>
      <point x="469" y="493"/>
      <point x="453" y="493" type="qcurve" smooth="yes"/>
      <point x="437" y="493"/>
      <point x="400" y="484"/>
      <point x="367" y="465"/>
      <point x="345" y="435"/>
      <point x="345" y="414" type="qcurve" smooth="yes"/>
      <point x="345" y="0" type="line"/>
      <point x="319" y="0" type="line"/>
      <point x="319" y="414" type="line" smooth="yes"/>
      <point x="319" y="435"/>
      <point x="297" y="465"/>
      <point x="264" y="484"/>
      <point x="226" y="493"/>
      <point x="210" y="493" type="qcurve" smooth="yes"/>
      <point x="194" y="493"/>
      <point x="157" y="484"/>
      <point x="124" y="465"/>
      <point x="102" y="435"/>
      <point x="102" y="414" type="qcurve" smooth="yes"/>
      <point x="102" y="0" type="line"/>
    </contour>
  </outline>
</glyph>
<glyph name="n" format="2">
  <advance width="491"/>
  <unicode hex="006E"/>
  <outline>
    <contour>
      <point x="72" y="512" type="line"/>
      <point x="94" y="512" type="line"/>
      <point x="108" y="462" type="line"/>
      <point x="115" y="469" type="line" smooth="yes"/>
      <point x="174" y="521"/>
      <point x="253" y="521" type="qcurve" smooth="yes"/>
      <point x="282" y="521"/>
      <point x="341" y="503"/>
      <point x="389" y="469"/>
      <point x="419" y="420"/>
      <point x="419" y="389" type="qcurve" smooth="yes"/>
      <point x="419" y="0" type="line"/>
      <point x="387" y="0" type="line"/>
      <point x="387" y="389" type="line" smooth="yes"/>
      <point x="387" y="418"/>
      <point x="359" y="457"/>
      <point x="317" y="482"/>
      <point x="267" y="493"/>
      <point x="245" y="493" type="qcurve" smooth="yes"/>
      <point x="223" y="493"/>
      <point x="173" y="482"/>
      <point x="130" y="457"/>
      <point x="102" y="418"/>
      <point x="102" y="389" type="qcurve" smooth="yes"/>
      <point x="102" y="1" type="line"/>
      <point x="72" y="1" type="line"/>
    </contour>
  </outline>
</glyph>
<glyph name="o" format="2">
  <advance width="491"/>
  <unicode hex="006F"/>
  <outline>
    <contour>
      <point x="245" y="-13" type="qcurve" smooth="yes"/>
      <point x="182" y="-13"/>
      <point x="107" y="29"/>
      <point x="66" y="102"/>
      <point x="54" y="199"/>
      <point x="54" y="254" type="qcurve" smooth="yes"/>
      <point x="54" y="309"/>
      <point x="66" y="406"/>
      <point x="105" y="479"/>
      <point x="181" y="522"/>
      <point x="244" y="522" type="qcurve" smooth="yes"/>
      <point x="308" y="522"/>
      <point x="383" y="479"/>
      <point x="423" y="406"/>
      <point x="435" y="309"/>
      <point x="435" y="254" type="qcurve" smooth="yes"/>
      <point x="435" y="200"/>
      <point x="423" y="103"/>
      <point x="383" y="30"/>
      <point x="308" y="-13"/>
    </contour>
    <contour>
      <point x="244" y="491" type="qcurve" smooth="yes"/>
      <point x="186" y="491"/>
      <point x="122" y="450"/>
      <point x="91" y="382"/>
      <point x="84" y="298"/>
      <point x="84" y="254" type="qcurve" smooth="yes"/>
      <point x="84" y="210"/>
      <point x="90" y="125"/>
      <point x="121" y="58"/>
      <point x="186" y="17"/>
      <point x="244" y="17" type="qcurve" smooth="yes"/>
      <point x="302" y="17"/>
      <point x="367" y="58"/>
      <point x="398" y="126"/>
      <point x="405" y="211"/>
      <point x="405" y="254" type="qcurve" smooth="yes"/>
      <point x="405" y="298"/>
      <point x="398" y="382"/>
      <point x="367" y="450"/>
      <point x="302" y="491"/>
    </contour>
  </outline>
</glyph>
<glyph name="p" format="2">
  <advance width="491"/>
  <unicode hex="0070"/>
  <outline>
    <contour>
      <point x="254" y="20" type="qcurve" smooth="yes"/>
      <point x="312" y="20"/>
      <point x="376" y="62"/>
      <point x="407" y="129"/>
      <point x="414" y="214"/>
      <point x="414" y="257" type="qcurve" smooth="yes"/>
      <point x="414" y="301"/>
      <point x="407" y="385"/>
      <point x="376" y="451"/>
      <point x="312" y="491"/>
      <point x="254" y="491" type="qcurve" smooth="yes"/>
      <point x="196" y="491"/>
      <point x="132" y="451"/>
      <point x="100" y="385"/>
      <point x="93" y="301"/>
      <point x="93" y="257" type="qcurve" smooth="yes"/>
      <point x="93" y="213"/>
      <point x="100" y="128"/>
      <point x="132" y="61"/>
      <point x="196" y="20"/>
    </contour>
    <contour>
      <point x="93" y="-196" type="line"/>
      <point x="63" y="-196" type="line"/>
      <point x="63" y="512" type="line"/>
      <point x="85" y="512" type="line"/>
      <point x="97" y="441" type="line"/>
      <point x="106" y="450" type="line"/>
      <point x="136" y="485"/>
      <point x="208" y="522"/>
      <point x="253" y="522" type="qcurve" smooth="yes"/>
      <point x="316" y="522"/>
      <point x="392" y="480"/>
      <point x="432" y="408"/>
      <point x="444" y="312"/>
      <point x="444" y="257" type="qcurve" smooth="yes"/>
      <point x="444" y="202"/>
      <point x="432" y="105"/>
      <point x="393" y="32"/>
      <point x="318" y="-10"/>
      <point x="254" y="-10" type="qcurve" smooth="yes"/>
      <point x="209" y="-10"/>
      <point x="135" y="29"/>
      <point x="103" y="62" type="qcurve" smooth="yes"/>
      <point x="93" y="73" type="line"/>
    </contour>
  </outline>
</glyph>
<glyph name="q" format="2">
  <advance width="491"/>
  <unicode hex="0071"/>
  <outline>
    <contour>
      <point x="243" y="20" type="qcurve" smooth="yes"/>
      <point x="301" y="20"/>
      <point x="366" y="61"/>
      <point x="397" y="129"/>
      <point x="404" y="214"/>
      <point x="404" y="257" type="qcurve" smooth="yes"/>
      <point x="404" y="301"/>
      <point x="397" y="385"/>
      <point x="366" y="451"/>
      <point x="301" y="491"/>
      <point x="243" y="491" type="qcurve" smooth="yes"/>
      <point x="186" y="491"/>
      <point x="121" y="451"/>
      <point x="90" y="385"/>
      <point x="83" y="301"/>
      <point x="83" y="257" type="qcurve" smooth="yes"/>
      <point x="83" y="214"/>
      <point x="90" y="129"/>
      <point x="121" y="61"/>
      <point x="186" y="20"/>
    </contour>
    <contour>
      <point x="404" y="-196" type="line"/>
      <point x="404" y="73" type="line"/>
      <point x="394" y="62" type="line" smooth="yes"/>
      <point x="362" y="30"/>
      <point x="288" y="-10"/>
      <point x="243" y="-10" type="qcurve" smooth="yes"/>
      <point x="180" y="-10"/>
      <point x="104" y="32"/>
      <point x="65" y="105"/>
      <point x="53" y="202"/>
      <point x="53" y="257" type="qcurve" smooth="yes"/>
      <point x="53" y="312"/>
      <point x="65" y="409"/>
      <point x="105" y="481"/>
      <point x="181" y="522"/>
      <point x="244" y="522" type="qcurve" smooth="yes"/>
      <point x="289" y="522"/>
      <point x="362" y="484"/>
      <point x="391" y="450" type="qcurve"/>
      <point x="400" y="441" type="line"/>
      <point x="412" y="512" type="line"/>
      <point x="434" y="512" type="line"/>
      <point x="434" y="-196" type="line"/>
    </contour>
  </outline>
</glyph>
<glyph name="r" format="2">
  <advance width="389"/>
  <unicode hex="0072"/>
  <outline>
    <contour>
      <point x="365" y="502" type="qcurve"/>
      <point x="351" y="472" type="line"/>
      <point x="334" y="481"/>
      <point x="294" y="486"/>
      <point x="274" y="486" type="qcurve" smooth="yes"/>
      <point x="216" y="486"/>
      <point x="152" y="445"/>
      <point x="121" y="379"/>
      <point x="114" y="294"/>
      <point x="114" y="250" type="qcurve" smooth="yes"/>
      <point x="114" y="0" type="line"/>
      <point x="84" y="0" type="line"/>
      <point x="84" y="512" type="line"/>
      <point x="104" y="512" type="line"/>
      <point x="106" y="498"/>
      <point x="110" y="471"/>
      <point x="114" y="457" type="qcurve" smooth="yes"/>
      <point x="117" y="447" type="line"/>
      <point x="124" y="455" type="line" smooth="yes"/>
      <point x="141" y="474"/>
      <point x="173" y="498"/>
      <point x="209" y="512"/>
      <point x="249" y="518"/>
      <point x="274" y="518" type="qcurve" smooth="yes"/>
      <point x="298" y="518"/>
      <point x="344" y="512"/>
    </contour>
  </outline>
</glyph>
<glyph name="s" format="2">
  <advance width="411"/>
  <unicode hex="0073"/>
  <outline>
    <contour>
      <point x="42" y="30" type="qcurve"/>
      <point x="65" y="51" type="line"/>
      <point x="77" y="41"/>
      <point x="109" y="27"/>
      <point x="143" y="20"/>
      <point x="177" y="17"/>
      <point x="191" y="17" type="qcurve" smooth="yes"/>
      <point x="216" y="17"/>
      <point x="268" y="30"/>
      <point x="311" y="58"/>
      <point x="338" y="102"/>
      <point x="338" y="132" type="qcurve" smooth="yes"/>
      <point x="338" y="145"/>
      <point x="334" y="174"/>
      <point x="322" y="200"/>
      <point x="302" y="221"/>
      <point x="287" y="225" type="qcurve" smooth="yes"/>
      <point x="255" y="235"/>
      <point x="192" y="253"/>
      <point x="160" y="262" type="qcurve" smooth="yes"/>
      <point x="136" y="269"/>
      <point x="95" y="289"/>
      <point x="64" y="317"/>
      <point x="47" y="357"/>
      <point x="47" y="383" type="qcurve" smooth="yes"/>
      <point x="47" y="419"/>
      <point x="72" y="472"/>
      <point x="116" y="507"/>
      <point x="174" y="524"/>
      <point x="208" y="524" type="qcurve" smooth="yes"/>
      <point x="242" y="524"/>
      <point x="318" y="510"/>
      <point x="343" y="487" type="qcurve"/>
      <point x="320" y="468" type="line"/>
      <point x="309" y="476"/>
      <point x="279" y="486"/>
      <point x="248" y="491"/>
      <point x="217" y="493"/>
      <point x="205" y="493" type="qcurve" smooth="yes"/>
      <point x="179" y="493"/>
      <point x="133" y="481"/>
      <point x="98" y="455"/>
      <point x="77" y="413"/>
      <point x="77" y="383" type="qcurve" smooth="yes"/>
      <point x="77" y="362"/>
      <point x="92" y="331"/>
      <point x="117" y="310"/>
      <point x="149" y="296"/>
      <point x="165" y="291" type="qcurve" smooth="yes"/>
      <point x="197" y="282"/>
      <point x="263" y="264"/>
      <point x="295" y="254" type="qcurve" smooth="yes"/>
      <point x="331" y="243"/>
      <point x="369" y="173"/>
      <point x="369" y="135" type="qcurve" smooth="yes"/>
      <point x="369" y="99"/>
      <point x="338" y="43"/>
      <point x="288" y="6"/>
      <point x="224" y="-13"/>
      <point x="190" y="-13" type="qcurve" smooth="yes"/>
      <point x="172" y="-13"/>
      <point x="131" y="-9"/>
      <point x="91" y="1"/>
      <point x="55" y="18"/>
    </contour>
  </outline>
</glyph>
<glyph name="t" format="2">
  <advance width="305"/>
  <unicode hex="0074"/>
  <outline>
    <contour>
      <point x="95" y="512" type="line"/>
      <point x="95" y="707" type="line"/>
      <point x="127" y="707" type="line"/>
      <point x="127" y="512" type="line"/>
      <point x="263" y="512" type="line"/>
      <point x="263" y="480" type="line"/>
      <point x="127" y="480" type="line"/>
      <point x="127" y="117" type="line" smooth="yes"/>
      <point x="127" y="69"/>
      <point x="183" y="25"/>
      <point x="226" y="25" type="qcurve" smooth="yes"/>
      <point x="236" y="25"/>
      <point x="256" y="26"/>
      <point x="265" y="27" type="qcurve"/>
      <point x="271" y="-3" type="line"/>
      <point x="249" y="-6"/>
      <point x="226" y="-6" type="qcurve" smooth="yes"/>
      <point x="200" y="-6"/>
      <point x="152" y="9"/>
      <point x="116" y="39"/>
      <point x="95" y="82"/>
      <point x="95" y="110" type="qcurve" smooth="yes"/>
      <point x="95" y="480" type="line"/>
      <point x="52" y="480" type="line"/>
      <point x="52" y="512" type="line"/>
    </contour>
  </outline>
</glyph>
<glyph name="u" format="2">
  <advance width="491"/>
  <unicode hex="0075"/>
  <outline>
    <contour>
      <point x="72" y="123" type="qcurve" smooth="yes"/>
      <point x="72" y="512" type="line"/>
      <point x="102" y="512" type="line"/>
      <point x="102" y="123" type="line" smooth="yes"/>
      <point x="102" y="95"/>
      <point x="131" y="55"/>
      <point x="174" y="30"/>
      <point x="224" y="18"/>
      <point x="245" y="18" type="qcurve" smooth="yes"/>
      <point x="267" y="18"/>
      <point x="317" y="30"/>
      <point x="359" y="55"/>
      <point x="387" y="95"/>
      <point x="387" y="123" type="qcurve" smooth="yes"/>
      <point x="387" y="512" type="line"/>
      <point x="419" y="512" type="line"/>
      <point x="419" y="0" type="line"/>
      <point x="395" y="0" type="line"/>
      <point x="381" y="51" type="line"/>
      <point x="374" y="43" type="line" smooth="yes"/>
      <point x="348" y="15"/>
      <point x="276" y="-10"/>
      <point x="238" y="-10" type="qcurve" smooth="yes"/>
      <point x="208" y="-10"/>
      <point x="148" y="7"/>
      <point x="101" y="40"/>
      <point x="72" y="90"/>
    </contour>
  </outline>
</glyph>
<glyph name="v" format="2">
  <advance width="481"/>
  <unicode hex="0076"/>
  <outline>
    <contour>
      <point x="42" y="512" type="line"/>
      <point x="74" y="512" type="line"/>
      <point x="242" y="32" type="line"/>
      <point x="408" y="512" type="line"/>
      <point x="439" y="512" type="line"/>
      <point x="259" y="0" type="line"/>
      <point x="222" y="0" type="line"/>
    </contour>
  </outline>
</glyph>
<glyph name="w" format="2">
  <advance width="700"/>
  <unicode hex="0077"/>
  <outline>
    <contour>
      <point x="42" y="512" type="line"/>
      <point x="71" y="512" type="line"/>
      <point x="201" y="39" type="line"/>
      <point x="330" y="512" type="line"/>
      <point x="369" y="512" type="line"/>
      <point x="499" y="39" type="line"/>
      <point x="628" y="512" type="line"/>
      <point x="658" y="512" type="line"/>
      <point x="514" y="0" type="line"/>
      <point x="480" y="0" type="line"/>
      <point x="349" y="480" type="line"/>
      <point x="217" y="0" type="line"/>
      <point x="185" y="0" type="line"/>
    </contour>
  </outline>
</glyph>
<glyph name="x" format="2">
  <advance width="478"/>
  <unicode hex="0078"/>
  <outline>
    <contour>
      <point x="219" y="257" type="line"/>
      <point x="43" y="513" type="line"/>
      <point x="80" y="513" type="line"/>
      <point x="240" y="272" type="line"/>
      <point x="398" y="513" type="line"/>
      <point x="435" y="513" type="line"/>
      <point x="259" y="257" type="line"/>
      <point x="436" y="0" type="line"/>
      <point x="400" y="0" type="line"/>
      <point x="240" y="242" type="line"/>
      <point x="79" y="0" type="line"/>
      <point x="42" y="0" type="line"/>
    </contour>
  </outline>
</glyph>
<glyph name="y" format="2">
  <advance width="461"/>
  <unicode hex="0079"/>
  <outline>
    <contour>
      <point x="22" y="512" type="line"/>
      <point x="54" y="512" type="line"/>
      <point x="222" y="31" type="line"/>
      <point x="388" y="512" type="line"/>
      <point x="419" y="512" type="line"/>
      <point x="169" y="-196" type="line"/>
      <point x="136" y="-196" type="line"/>
      <point x="203" y="-4" type="line"/>
    </contour>
  </outline>
</glyph>
<glyph name="z" format="2">
  <advance width="432"/>
  <unicode hex="007A"/>
  <outline>
    <contour>
      <point x="374" y="464" type="line"/>
      <point x="79" y="31" type="line"/>
      <point x="380" y="31" type="line"/>
      <point x="380" y="0" type="line"/>
      <point x="52" y="0" type="line"/>
      <point x="52" y="46" type="line"/>
      <point x="347" y="480" type="line"/>
      <point x="57" y="480" type="line"/>
      <point x="57" y="512" type="line"/>
      <point x="374" y="512" type="line"/>
    </contour>
  </outline>
</glyph>
<glyph name="braceleft" format="2">
  <advance width="365"/>
  <unicode hex="007B"/>
  <outline>
    <contour>
      <point x="165" y="528" type="line"/>
      <point x="165" y="710" type="line"/>
      <point x="166" y="710" type="line"/>
      <point x="166" y="716" type="line" smooth="yes"/>
      <point x="166" y="760"/>
      <point x="196" y="837"/>
      <point x="248" y="897"/>
      <point x="322" y="934"/>
      <point x="365" y="937" type="qcurve"/>
      <point x="365" y="913" type="line"/>
      <point x="330" y="911"/>
      <point x="268" y="881"/>
      <point x="221" y="833"/>
      <point x="192" y="770"/>
      <point x="190" y="734" type="qcurve"/>
      <point x="189" y="734" type="line"/>
      <point x="189" y="516" type="line"/>
      <point x="96" y="421" type="line"/>
      <point x="189" y="328" type="line"/>
      <point x="189" y="109" type="line"/>
      <point x="190" y="109" type="line"/>
      <point x="192" y="73"/>
      <point x="220" y="10"/>
      <point x="267" y="-38"/>
      <point x="329" y="-68"/>
      <point x="365" y="-70" type="qcurve"/>
      <point x="365" y="-94" type="line"/>
      <point x="322" y="-91"/>
      <point x="248" y="-54"/>
      <point x="196" y="6"/>
      <point x="166" y="84"/>
      <point x="166" y="127" type="qcurve" smooth="yes"/>
      <point x="166" y="133" type="line"/>
      <point x="165" y="133" type="line"/>
      <point x="165" y="316" type="line"/>
      <point x="60" y="421" type="line"/>
    </contour>
  </outline>
</glyph>
<glyph name="bar" format="2">
  <advance width="144"/>
  <unicode hex="007C"/>
  <outline>
    <contour>
      <point x="84" y="-43" type="line"/>
      <point x="60" y="-43" type="line"/>
      <point x="60" y="889" type="line"/>
      <point x="84" y="889" type="line"/>
    </contour>
  </outline>
</glyph>
<glyph name="braceright" format="2">
  <advance width="365"/>
  <unicode hex="007D"/>
  <outline>
    <contour>
      <point x="0" y="938" type="line"/>
      <point x="44" y="935"/>
      <point x="118" y="898"/>
      <point x="171" y="839"/>
      <point x="201" y="761"/>
      <point x="201" y="717" type="qcurve" smooth="yes"/>
      <point x="201" y="711" type="line"/>
      <point x="202" y="711" type="line"/>
      <point x="202" y="528" type="line"/>
      <point x="305" y="421" type="line"/>
      <point x="202" y="315" type="line"/>
      <point x="202" y="134" type="line"/>
      <point x="201" y="134" type="line"/>
      <point x="201" y="128" type="line" smooth="yes"/>
      <point x="201" y="83"/>
      <point x="171" y="5"/>
      <point x="118" y="-54"/>
      <point x="44" y="-91"/>
      <point x="0" y="-94" type="qcurve"/>
      <point x="0" y="-69" type="line"/>
      <point x="36" y="-67"/>
      <point x="98" y="-37"/>
      <point x="145" y="11"/>
      <point x="173" y="74"/>
      <point x="175" y="110" type="qcurve"/>
      <point x="176" y="110" type="line"/>
      <point x="176" y="328" type="line"/>
      <point x="269" y="421" type="line"/>
      <point x="176" y="516" type="line"/>
      <point x="176" y="735" type="line"/>
      <point x="175" y="735" type="line"/>
      <point x="173" y="771"/>
      <point x="145" y="834"/>
      <point x="98" y="882"/>
      <point x="36" y="912"/>
      <point x="0" y="914" type="qcurve"/>
    </contour>
  </outline>
</glyph>
<glyph name="asciitilde" format="2">
  <advance width="517"/>
  <unicode hex="007E"/>
  <outline>
    <contour>
      <point x="471" y="337" type="qcurve"/>
      <point x="497" y="337" type="line"/>
      <point x="495" y="311"/>
      <point x="471" y="265"/>
      <point x="435" y="231"/>
      <point x="387" y="211"/>
      <point x="361" y="211" type="qcurve" smooth="yes"/>
      <point x="322" y="211"/>
      <point x="275" y="242"/>
      <point x="255" y="260" type="qcurve" smooth="yes"/>
      <point x="250" y="265"/>
      <point x="240" y="274"/>
      <point x="235" y="279" type="qcurve" smooth="yes"/>
      <point x="230" y="284"/>
      <point x="220" y="292"/>
      <point x="213" y="296" type="qcurve" smooth="yes"/>
      <point x="201" y="304"/>
      <point x="173" y="313"/>
      <point x="156" y="313" type="qcurve" smooth="yes"/>
      <point x="111" y="313"/>
      <point x="49" y="256"/>
      <point x="44" y="211" type="qcurve"/>
      <point x="20" y="211" type="line"/>
      <point x="22" y="237"/>
      <point x="46" y="283"/>
      <point x="82" y="317"/>
      <point x="130" y="337"/>
      <point x="156" y="337" type="qcurve" smooth="yes"/>
      <point x="195" y="337"/>
      <point x="242" y="308"/>
      <point x="262" y="288" type="qcurve" smooth="yes"/>
      <point x="267" y="283"/>
      <point x="276" y="275"/>
      <point x="281" y="270" type="qcurve" smooth="yes"/>
      <point x="286" y="265"/>
      <point x="297" y="257"/>
      <point x="302" y="253" type="qcurve" smooth="yes"/>
      <point x="314" y="246"/>
      <point x="342" y="237"/>
      <point x="361" y="237" type="qcurve" smooth="yes"/>
      <point x="406" y="237"/>
      <point x="466" y="292"/>
    </contour>
  </outline>
</glyph>
<glyph name="uni0080" format="2">
  <advance width="478"/>
  <unicode hex="0080"/>
  <unicode hex="20AC"/>
  <unicode hex="F700"/>
  <outline>
    <contour>
      <point x="202" y="635" type="qcurve" smooth="yes"/>
      <point x="252" y="635"/>
      <point x="328" y="618"/>
      <point x="368" y="588" type="qcurve" smooth="yes"/>
      <point x="370" y="587"/>
      <point x="373" y="585"/>
      <point x="375" y="584" type="qcurve" smooth="yes"/>
      <point x="380" y="580" type="line"/>
      <point x="383" y="586" type="line" smooth="yes"/>
      <point x="390" y="599"/>
      <point x="396" y="621"/>
      <point x="398" y="635" type="qcurve"/>
      <point x="428" y="635" type="line"/>
      <point x="426" y="620"/>
      <point x="420" y="592"/>
      <point x="413" y="579" type="qcurve" smooth="yes"/>
      <point x="412" y="576"/>
      <point x="410" y="574" type="qcurve" smooth="yes"/>
      <point x="408" y="572" type="line" smooth="yes"/>
      <point x="407" y="570"/>
      <point x="403" y="564" type="qcurve" smooth="yes"/>
      <point x="402" y="563"/>
      <point x="402" y="562"/>
      <point x="401" y="561" type="qcurve"/>
      <point x="401" y="559"/>
      <point x="400" y="558" type="qcurve" smooth="yes"/>
      <point x="399" y="554" type="line"/>
      <point x="401" y="552" type="line" smooth="yes"/>
      <point x="428" y="515"/>
      <point x="428" y="470" type="qcurve" smooth="yes"/>
      <point x="428" y="0" type="line"/>
      <point x="398" y="0" type="line"/>
      <point x="398" y="174" type="line" smooth="yes"/>
      <point x="398" y="209"/>
      <point x="365" y="258"/>
      <point x="314" y="290"/>
      <point x="253" y="306"/>
      <point x="225" y="307" type="qcurve"/>
      <point x="225" y="337" type="line"/>
      <point x="270" y="335"/>
      <point x="356" y="307"/>
      <point x="388" y="273" type="qcurve" smooth="yes"/>
      <point x="398" y="262" type="line"/>
      <point x="398" y="470" type="line" smooth="yes"/>
      <point x="398" y="508"/>
      <point x="360" y="559"/>
      <point x="303" y="590"/>
      <point x="234" y="603"/>
      <point x="202" y="603" type="qcurve" smooth="yes"/>
      <point x="185" y="603"/>
      <point x="143" y="601"/>
      <point x="100" y="594"/>
      <point x="60" y="581"/>
      <point x="45" y="570" type="qcurve"/>
      <point x="24" y="592" type="line"/>
      <point x="41" y="606"/>
      <point x="85" y="623"/>
      <point x="133" y="632"/>
      <point x="181" y="635"/>
    </contour>
  </outline>
</glyph>
<glyph name="uni0082" format="2">
  <unicode hex="0082"/>
  <unicode hex="201A"/>
  <unicode hex="F702"/>
  <outline>
    <contour>
      <point x="-178" y="893" type="line"/>
      <point x="-178" y="843" type="line" smooth="yes"/>
      <point x="-178" y="805"/>
      <point x="-229" y="753"/>
      <point x="-267" y="753" type="qcurve" smooth="yes"/>
      <point x="-556" y="753" type="line"/>
      <point x="-556" y="784" type="line"/>
      <point x="-267" y="784" type="line" smooth="yes"/>
      <point x="-242" y="784"/>
      <point x="-208" y="817"/>
      <point x="-208" y="843" type="qcurve" smooth="yes"/>
      <point x="-208" y="893" type="line"/>
    </contour>
  </outline>
</glyph>
<glyph name="uni0083" format="2">
  <unicode hex="0083"/>
  <unicode hex="0192"/>
  <unicode hex="F703"/>
  <outline>
    <contour>
      <point x="-557" y="753" type="line"/>
      <point x="-557" y="784" type="line"/>
      <point x="-322" y="784" type="line"/>
      <point x="-326" y="793" type="line" smooth="yes"/>
      <point x="-335" y="813"/>
      <point x="-335" y="833" type="qcurve" smooth="yes"/>
      <point x="-335" y="849"/>
      <point x="-322" y="878"/>
      <point x="-300" y="901"/>
      <point x="-271" y="914"/>
      <point x="-255" y="914" type="qcurve" smooth="yes"/>
      <point x="-223" y="914"/>
      <point x="-179" y="869"/>
      <point x="-179" y="837" type="qcurve" smooth="yes"/>
      <point x="-179" y="803"/>
      <point x="-223" y="753"/>
      <point x="-257" y="753" type="qcurve" smooth="yes"/>
    </contour>
    <contour>
      <point x="-313" y="834" type="qcurve" smooth="yes"/>
      <point x="-313" y="809"/>
      <point x="-281" y="777"/>
      <point x="-257" y="777" type="qcurve" smooth="yes"/>
      <point x="-233" y="777"/>
      <point x="-199" y="811"/>
      <point x="-199" y="835" type="qcurve" smooth="yes"/>
      <point x="-199" y="858"/>
      <point x="-235" y="891"/>
      <point x="-258" y="891" type="qcurve" smooth="yes"/>
      <point x="-281" y="891"/>
      <point x="-313" y="857"/>
    </contour>
  </outline>
</glyph>
<glyph name="uni0084" format="2">
  <unicode hex="0084"/>
  <unicode hex="201E"/>
  <unicode hex="F704"/>
  <outline>
    <contour>
      <point x="-556" y="784" type="line"/>
      <point x="-380" y="784" type="line" smooth="yes"/>
      <point x="-362" y="784"/>
      <point x="-338" y="798"/>
      <point x="-325" y="820"/>
      <point x="-320" y="849"/>
      <point x="-320" y="864" type="qcurve" smooth="yes"/>
      <point x="-320" y="871"/>
      <point x="-321" y="886"/>
      <point x="-321" y="893" type="qcurve"/>
      <point x="-293" y="893" type="line"/>
      <point x="-293" y="843" type="line" smooth="yes"/>
      <point x="-293" y="815"/>
      <point x="-306" y="793" type="qcurve" smooth="yes"/>
      <point x="-312" y="784" type="line"/>
      <point x="-267" y="784" type="line" smooth="yes"/>
      <point x="-242" y="784"/>
      <point x="-208" y="817"/>
      <point x="-208" y="843" type="qcurve" smooth="yes"/>
      <point x="-208" y="893" type="line"/>
      <point x="-178" y="893" type="line"/>
      <point x="-178" y="843" type="line" smooth="yes"/>
      <point x="-178" y="805"/>
      <point x="-229" y="753"/>
      <point x="-267" y="753" type="qcurve" smooth="yes"/>
      <point x="-556" y="753" type="line"/>
    </contour>
  </outline>
</glyph>
<glyph name="uni0085" format="2">
  <advance width="462"/>
  <unicode hex="0085"/>
  <unicode hex="2026"/>
  <outline>
    <contour>
      <point x="60" y="24" type="qcurve" smooth="yes"/>
      <point x="60" y="35"/>
      <point x="73" y="50"/>
      <point x="84" y="50" type="qcurve" smooth="yes"/>
      <point x="95" y="50"/>
      <point x="108" y="35"/>
      <point x="108" y="24" type="qcurve" smooth="yes"/>
      <point x="108" y="13"/>
      <point x="95" y="0"/>
      <point x="84" y="0" type="qcurve" smooth="yes"/>
      <point x="73" y="0"/>
      <point x="60" y="13"/>
    </contour>
    <contour>
      <point x="206" y="24" type="qcurve" smooth="yes"/>
      <point x="206" y="35"/>
      <point x="219" y="50"/>
      <point x="230" y="50" type="qcurve" smooth="yes"/>
      <point x="241" y="50"/>
      <point x="256" y="35"/>
      <point x="256" y="24" type="qcurve" smooth="yes"/>
      <point x="256" y="14"/>
      <point x="241" y="0"/>
      <point x="230" y="0" type="qcurve" smooth="yes"/>
      <point x="219" y="0"/>
      <point x="206" y="13"/>
    </contour>
    <contour>
      <point x="352" y="24" type="qcurve" smooth="yes"/>
      <point x="352" y="35"/>
      <point x="365" y="50"/>
      <point x="376" y="50" type="qcurve" smooth="yes"/>
      <point x="402" y="50"/>
      <point x="402" y="24" type="qcurve" smooth="yes"/>
      <point x="402" y="13"/>
      <point x="387" y="0"/>
      <point x="376" y="0" type="qcurve" smooth="yes"/>
      <point x="365" y="0"/>
      <point x="352" y="13"/>
    </contour>
  </outline>
</glyph>
<glyph name="uni0086" format="2">
  <unicode hex="0086"/>
  <unicode hex="2020"/>
  <unicode hex="F705"/>
  <outline>
    <contour>
      <point x="-214" y="895" type="line"/>
      <point x="-184" y="895" type="line"/>
      <point x="-184" y="732" type="line"/>
      <point x="-214" y="732" type="line"/>
    </contour>
  </outline>
</glyph>
<glyph name="uni0087" format="2">
  <unicode hex="0087"/>
  <unicode hex="2021"/>
  <unicode hex="F706"/>
  <outline>
    <contour>
      <point x="-58" y="732" type="line"/>
      <point x="-267" y="732" type="line" smooth="yes"/>
      <point x="-303" y="732"/>
      <point x="-350" y="781"/>
      <point x="-350" y="818" type="qcurve" smooth="yes"/>
      <point x="-350" y="862" type="line"/>
      <point x="-422" y="862" type="line"/>
      <point x="-422" y="886" type="line"/>
      <point x="-339" y="886" type="line" smooth="yes"/>
      <point x="-331" y="886"/>
      <point x="-330" y="878" type="qcurve"/>
      <point x="-328" y="874"/>
      <point x="-328" y="870" type="qcurve" smooth="yes"/>
      <point x="-328" y="860" type="line" smooth="yes"/>
      <point x="-328" y="852"/>
      <point x="-329" y="838"/>
      <point x="-329" y="830" type="qcurve" smooth="yes"/>
      <point x="-329" y="801"/>
      <point x="-302" y="756"/>
      <point x="-267" y="756" type="qcurve" smooth="yes"/>
      <point x="-58" y="756" type="line"/>
    </contour>
  </outline>
</glyph>
<glyph name="uni0088" format="2">
  <unicode hex="0088"/>
  <unicode hex="02C6"/>
  <unicode hex="F707"/>
  <outline>
    <contour>
      <point x="-138" y="756" type="line"/>
      <point x="-138" y="732" type="line"/>
      <point x="-247" y="732" type="line" smooth="yes"/>
      <point x="-258" y="732"/>
      <point x="-258" y="743" type="qcurve" smooth="yes"/>
      <point x="-258" y="757"/>
      <point x="-261" y="794"/>
      <point x="-271" y="830"/>
      <point x="-293" y="859"/>
      <point x="-313" y="861" type="qcurve"/>
      <point x="-319" y="861" type="line"/>
      <point x="-372" y="808" type="line" smooth="yes"/>
      <point x="-374" y="807"/>
      <point x="-379" y="805"/>
      <point x="-383" y="805"/>
      <point x="-385" y="806" type="qcurve" smooth="yes"/>
      <point x="-389" y="808" type="line"/>
      <point x="-441" y="863" type="line"/>
      <point x="-447" y="863" type="line" smooth="yes"/>
      <point x="-451" y="863"/>
      <point x="-463" y="859"/>
      <point x="-465" y="857" type="qcurve" smooth="yes"/>
      <point x="-476" y="851"/>
      <point x="-490" y="830"/>
      <point x="-497" y="805"/>
      <point x="-499" y="780"/>
      <point x="-499" y="770" type="qcurve" smooth="yes"/>
      <point x="-499" y="762"/>
      <point x="-498" y="745"/>
      <point x="-497" y="737" type="qcurve"/>
      <point x="-518" y="732" type="line"/>
      <point x="-521" y="750"/>
      <point x="-521" y="768" type="qcurve" smooth="yes"/>
      <point x="-521" y="810"/>
      <point x="-490" y="877"/>
      <point x="-448" y="888" type="qcurve" smooth="yes"/>
      <point x="-445" y="889"/>
      <point x="-441" y="889" type="qcurve" smooth="yes"/>
      <point x="-434" y="889"/>
      <point x="-429" y="884" type="qcurve" smooth="yes"/>
      <point x="-380" y="835" type="line"/>
      <point x="-334" y="882" type="line" smooth="yes"/>
      <point x="-329" y="887"/>
      <point x="-320" y="887" type="qcurve" smooth="yes"/>
      <point x="-310" y="887"/>
      <point x="-293" y="878"/>
      <point x="-284" y="872" type="qcurve" smooth="yes"/>
      <point x="-260" y="857"/>
      <point x="-242" y="817"/>
      <point x="-238" y="788" type="qcurve" smooth="yes"/>
      <point x="-237" y="781"/>
      <point x="-237" y="768"/>
      <point x="-235" y="761" type="qcurve" smooth="yes"/>
      <point x="-234" y="756" type="line"/>
    </contour>
  </outline>
</glyph>
<glyph name="uni0089" format="2">
  <unicode hex="0089"/>
  <unicode hex="2030"/>
  <unicode hex="F708"/>
  <outline>
    <contour>
      <point x="-299" y="802" type="line"/>
      <point x="-299" y="826" type="line"/>
      <point x="-230" y="826" type="line"/>
      <point x="-230" y="895" type="line"/>
      <point x="-208" y="895" type="line"/>
      <point x="-208" y="826" type="line"/>
      <point x="-140" y="826" type="line"/>
      <point x="-140" y="802" type="line"/>
      <point x="-208" y="802" type="line"/>
      <point x="-208" y="732" type="line"/>
      <point x="-230" y="732" type="line"/>
      <point x="-230" y="802" type="line"/>
    </contour>
  </outline>
</glyph>
<glyph name="uni008A" format="2">
  <unicode hex="008A"/>
  <unicode hex="0160"/>
  <unicode hex="F709"/>
  <outline>
    <contour>
      <point x="-344" y="732" type="line"/>
      <point x="-344" y="803" type="line" smooth="yes"/>
      <point x="-344" y="837"/>
      <point x="-301" y="890"/>
      <point x="-267" y="893" type="qcurve" smooth="yes"/>
      <point x="-260" y="894"/>
      <point x="-253" y="894" type="qcurve" smooth="yes"/>
      <point x="-43" y="894" type="line"/>
      <point x="-43" y="862" type="line"/>
      <point x="-255" y="862" type="line" smooth="yes"/>
      <point x="-274" y="862"/>
      <point x="-297" y="849"/>
      <point x="-310" y="828"/>
      <point x="-314" y="800"/>
      <point x="-314" y="786" type="qcurve" smooth="yes"/>
      <point x="-314" y="732" type="line"/>
    </contour>
  </outline>
</glyph>
<glyph name="uni008B" format="2">
  <unicode hex="008B"/>
  <unicode hex="2039"/>
  <unicode hex="F70A"/>
  <outline>
    <contour>
      <point x="-134" y="895" type="line"/>
      <point x="-104" y="895" type="line"/>
      <point x="-104" y="732" type="line"/>
      <point x="-134" y="732" type="line"/>
    </contour>
  </outline>
</glyph>
<glyph name="uni008C" format="2">
  <unicode hex="008C"/>
  <unicode hex="0152"/>
  <unicode hex="F70B"/>
  <outline>
    <contour>
      <point x="33" y="732" type="line"/>
      <point x="-176" y="732" type="line" smooth="yes"/>
      <point x="-212" y="732"/>
      <point x="-259" y="781"/>
      <point x="-259" y="818" type="qcurve" smooth="yes"/>
      <point x="-259" y="862" type="line"/>
      <point x="-331" y="862" type="line"/>
      <point x="-331" y="886" type="line"/>
      <point x="-248" y="886" type="line" smooth="yes"/>
      <point x="-240" y="886"/>
      <point x="-239" y="878" type="qcurve"/>
      <point x="-237" y="874"/>
      <point x="-237" y="870" type="qcurve" smooth="yes"/>
      <point x="-237" y="860" type="line" smooth="yes"/>
      <point x="-237" y="852"/>
      <point x="-238" y="838"/>
      <point x="-238" y="830" type="qcurve" smooth="yes"/>
      <point x="-238" y="801"/>
      <point x="-211" y="756"/>
      <point x="-176" y="756" type="qcurve" smooth="yes"/>
      <point x="33" y="756" type="line"/>
    </contour>
  </outline>
</glyph>
<glyph name="uni008D" format="2">
  <unicode hex="008D"/>
  <unicode hex="F70C"/>
  <outline>
    <contour>
      <point x="23" y="756" type="line"/>
      <point x="23" y="732" type="line"/>
      <point x="-86" y="732" type="line" smooth="yes"/>
      <point x="-97" y="732"/>
      <point x="-97" y="743" type="qcurve" smooth="yes"/>
      <point x="-97" y="757"/>
      <point x="-100" y="794"/>
      <point x="-110" y="830"/>
      <point x="-132" y="859"/>
      <point x="-152" y="861" type="qcurve"/>
      <point x="-158" y="861" type="line"/>
      <point x="-211" y="808" type="line" smooth="yes"/>
      <point x="-213" y="807"/>
      <point x="-218" y="805"/>
      <point x="-222" y="805"/>
      <point x="-224" y="806" type="qcurve" smooth="yes"/>
      <point x="-228" y="808" type="line"/>
      <point x="-280" y="863" type="line"/>
      <point x="-286" y="863" type="line" smooth="yes"/>
      <point x="-290" y="863"/>
      <point x="-302" y="859"/>
      <point x="-304" y="857" type="qcurve" smooth="yes"/>
      <point x="-315" y="851"/>
      <point x="-329" y="830"/>
      <point x="-336" y="805"/>
      <point x="-338" y="780"/>
      <point x="-338" y="770" type="qcurve" smooth="yes"/>
      <point x="-338" y="762"/>
      <point x="-337" y="745"/>
      <point x="-336" y="737" type="qcurve"/>
      <point x="-357" y="732" type="line"/>
      <point x="-360" y="750"/>
      <point x="-360" y="768" type="qcurve" smooth="yes"/>
      <point x="-360" y="810"/>
      <point x="-329" y="877"/>
      <point x="-287" y="888" type="qcurve" smooth="yes"/>
      <point x="-284" y="889"/>
      <point x="-280" y="889" type="qcurve" smooth="yes"/>
      <point x="-273" y="889"/>
      <point x="-268" y="884" type="qcurve" smooth="yes"/>
      <point x="-219" y="835" type="line"/>
      <point x="-173" y="882" type="line" smooth="yes"/>
      <point x="-168" y="887"/>
      <point x="-159" y="887" type="qcurve" smooth="yes"/>
      <point x="-149" y="887"/>
      <point x="-132" y="878"/>
      <point x="-123" y="872" type="qcurve" smooth="yes"/>
      <point x="-99" y="857"/>
      <point x="-81" y="817"/>
      <point x="-77" y="788" type="qcurve" smooth="yes"/>
      <point x="-76" y="781"/>
      <point x="-76" y="768"/>
      <point x="-74" y="761" type="qcurve" smooth="yes"/>
      <point x="-73" y="756" type="line"/>
    </contour>
  </outline>
</glyph>
<glyph name="uni008E" format="2">
  <unicode hex="008E"/>
  <unicode hex="017D"/>
  <unicode hex="F70D"/>
  <outline>
    <contour>
      <point x="-193" y="802" type="line"/>
      <point x="-193" y="826" type="line"/>
      <point x="-124" y="826" type="line"/>
      <point x="-124" y="895" type="line"/>
      <point x="-102" y="895" type="line"/>
      <point x="-102" y="826" type="line"/>
      <point x="-34" y="826" type="line"/>
      <point x="-34" y="802" type="line"/>
      <point x="-102" y="802" type="line"/>
      <point x="-102" y="732" type="line"/>
      <point x="-124" y="732" type="line"/>
      <point x="-124" y="802" type="line"/>
    </contour>
  </outline>
</glyph>
<glyph name="uni008F" format="2">
  <unicode hex="008F"/>
  <unicode hex="F70E"/>
  <outline>
    <contour>
      <point x="-321" y="732" type="line"/>
      <point x="-321" y="803" type="line" smooth="yes"/>
      <point x="-321" y="837"/>
      <point x="-278" y="890"/>
      <point x="-244" y="893" type="qcurve" smooth="yes"/>
      <point x="-237" y="894"/>
      <point x="-230" y="894" type="qcurve" smooth="yes"/>
      <point x="-60" y="894" type="line"/>
      <point x="-60" y="862" type="line"/>
      <point x="-232" y="862" type="line" smooth="yes"/>
      <point x="-251" y="862"/>
      <point x="-274" y="849"/>
      <point x="-287" y="828"/>
      <point x="-291" y="800"/>
      <point x="-291" y="786" type="qcurve" smooth="yes"/>
      <point x="-291" y="732" type="line"/>
    </contour>
  </outline>
</glyph>
<glyph name="uni0091" format="2">
  <advance width="165"/>
  <unicode hex="0091"/>
  <unicode hex="2018"/>
  <outline>
    <contour>
      <point x="93" y="507" type="line"/>
      <point x="72" y="531"/>
      <point x="57" y="591"/>
      <point x="57" y="625" type="qcurve" smooth="yes"/>
      <point x="57" y="645"/>
      <point x="62" y="686"/>
      <point x="65" y="706" type="qcurve"/>
      <point x="95" y="704" type="line"/>
      <point x="93" y="683"/>
      <point x="88" y="643"/>
      <point x="88" y="623" type="qcurve" smooth="yes"/>
      <point x="88" y="597"/>
      <point x="99" y="549"/>
      <point x="116" y="527" type="qcurve"/>
    </contour>
  </outline>
</glyph>
<glyph name="uni0092" format="2">
  <advance width="165"/>
  <unicode hex="0092"/>
  <unicode hex="2019"/>
  <outline>
    <contour>
      <point x="79" y="702" type="line"/>
      <point x="99" y="676"/>
      <point x="115" y="618"/>
      <point x="115" y="584" type="qcurve" smooth="yes"/>
      <point x="115" y="564"/>
      <point x="110" y="523"/>
      <point x="106" y="503" type="qcurve"/>
      <point x="77" y="505" type="line"/>
      <point x="79" y="525"/>
      <point x="84" y="565"/>
      <point x="84" y="585" type="qcurve" smooth="yes"/>
      <point x="84" y="610"/>
      <point x="73" y="659"/>
      <point x="56" y="680" type="qcurve"/>
    </contour>
  </outline>
</glyph>
<glyph name="uni0093" format="2">
  <advance width="388"/>
  <unicode hex="0093"/>
  <unicode hex="201C"/>
  <outline>
    <contour>
      <point x="125" y="507" type="line"/>
      <point x="104" y="531"/>
      <point x="89" y="591"/>
      <point x="89" y="625" type="qcurve" smooth="yes"/>
      <point x="89" y="645"/>
      <point x="94" y="686"/>
      <point x="97" y="706" type="qcurve"/>
      <point x="127" y="704" type="line"/>
      <point x="125" y="683"/>
      <point x="120" y="643"/>
      <point x="120" y="623" type="qcurve" smooth="yes"/>
      <point x="120" y="597"/>
      <point x="131" y="549"/>
      <point x="148" y="527" type="qcurve"/>
    </contour>
    <contour>
      <point x="289" y="507" type="line"/>
      <point x="268" y="531"/>
      <point x="252" y="592"/>
      <point x="252" y="625" type="qcurve" smooth="yes"/>
      <point x="252" y="645"/>
      <point x="258" y="686"/>
      <point x="261" y="706" type="qcurve"/>
      <point x="291" y="704" type="line"/>
      <point x="289" y="683"/>
      <point x="284" y="643"/>
      <point x="284" y="623" type="qcurve" smooth="yes"/>
      <point x="284" y="597"/>
      <point x="295" y="549"/>
      <point x="312" y="527" type="qcurve"/>
    </contour>
  </outline>
</glyph>
<glyph name="uni0094" format="2">
  <advance width="359"/>
  <unicode hex="0094"/>
  <unicode hex="201D"/>
  <outline>
    <contour>
      <point x="87" y="702" type="line"/>
      <point x="107" y="676"/>
      <point x="123" y="618"/>
      <point x="123" y="584" type="qcurve" smooth="yes"/>
      <point x="123" y="564"/>
      <point x="118" y="523"/>
      <point x="114" y="503" type="qcurve"/>
      <point x="85" y="505" type="line"/>
      <point x="87" y="525"/>
      <point x="92" y="565"/>
      <point x="92" y="585" type="qcurve" smooth="yes"/>
      <point x="92" y="610"/>
      <point x="81" y="659"/>
      <point x="64" y="680" type="qcurve"/>
    </contour>
    <contour>
      <point x="249" y="702" type="line"/>
      <point x="271" y="676"/>
      <point x="286" y="618"/>
      <point x="286" y="584" type="qcurve" smooth="yes"/>
      <point x="286" y="564"/>
      <point x="281" y="523"/>
      <point x="278" y="503" type="qcurve"/>
      <point x="247" y="505" type="line"/>
      <point x="249" y="525"/>
      <point x="254" y="565"/>
      <point x="254" y="585" type="qcurve" smooth="yes"/>
      <point x="254" y="610"/>
      <point x="243" y="659"/>
      <point x="226" y="680" type="qcurve"/>
    </contour>
  </outline>
</glyph>
<glyph name="uni0095" format="2">
  <advance width="323"/>
  <unicode hex="0095"/>
  <unicode hex="2022"/>
  <outline>
    <contour>
      <point x="161" y="301" type="qcurve" smooth="yes"/>
      <point x="184" y="301"/>
      <point x="226" y="282"/>
      <point x="258" y="250"/>
      <point x="276" y="208"/>
      <point x="276" y="184" type="qcurve" smooth="yes"/>
      <point x="276" y="161"/>
      <point x="257" y="118"/>
      <point x="226" y="86"/>
      <point x="184" y="67"/>
      <point x="161" y="67" type="qcurve" smooth="yes"/>
      <point x="137" y="67"/>
      <point x="95" y="86"/>
      <point x="64" y="117"/>
      <point x="46" y="160"/>
      <point x="46" y="184" type="qcurve" smooth="yes"/>
      <point x="46" y="208"/>
      <point x="64" y="250"/>
      <point x="96" y="282"/>
      <point x="137" y="301"/>
    </contour>
  </outline>
</glyph>
<glyph name="uni0096" format="2">
  <advance width="442"/>
  <unicode hex="0096"/>
  <unicode hex="2013"/>
  <outline>
    <contour>
      <point x="382" y="241" type="line"/>
      <point x="60" y="241" type="line"/>
      <point x="60" y="266" type="line"/>
      <point x="382" y="266" type="line"/>
    </contour>
  </outline>
</glyph>
<glyph name="uni0097" format="2">
  <advance width="423"/>
  <unicode hex="0097"/>
  <unicode hex="2014"/>
  <outline>
    <contour>
      <point x="423" y="241" type="line"/>
      <point x="0" y="241" type="line"/>
      <point x="0" y="266" type="line"/>
      <point x="423" y="266" type="line"/>
    </contour>
  </outline>
</glyph>
<glyph name="uni0098" format="2">
  <unicode hex="0098"/>
  <unicode hex="02DC"/>
  <unicode hex="F710"/>
  <outline>
    <contour>
      <point x="-331" y="822" type="line" smooth="yes"/>
      <point x="-331" y="796"/>
      <point x="-298" y="764"/>
      <point x="-272" y="764" type="qcurve" smooth="yes"/>
      <point x="-60" y="764" type="line"/>
      <point x="-60" y="732" type="line"/>
      <point x="-272" y="732" type="line" smooth="yes"/>
      <point x="-310" y="732"/>
      <point x="-361" y="784"/>
      <point x="-361" y="822" type="qcurve" smooth="yes"/>
      <point x="-361" y="894" type="line"/>
      <point x="-331" y="894" type="line"/>
    </contour>
  </outline>
</glyph>
<glyph name="uni0099" format="2">
  <unicode hex="0099"/>
  <unicode hex="2122"/>
  <unicode hex="F711"/>
  <outline>
    <contour>
      <point x="-144" y="705" type="qcurve" smooth="yes"/>
      <point x="-178" y="705"/>
      <point x="-222" y="754"/>
      <point x="-222" y="787" type="qcurve" smooth="yes"/>
      <point x="-222" y="820"/>
      <point x="-176" y="866"/>
      <point x="-143" y="866" type="qcurve" smooth="yes"/>
      <point x="-108" y="866"/>
      <point x="-62" y="820"/>
      <point x="-62" y="785" type="qcurve" smooth="yes"/>
      <point x="-62" y="751"/>
      <point x="-111" y="705"/>
    </contour>
    <contour>
      <point x="-144" y="843" type="qcurve" smooth="yes"/>
      <point x="-169" y="843"/>
      <point x="-201" y="809"/>
      <point x="-201" y="785" type="qcurve" smooth="yes"/>
      <point x="-201" y="762"/>
      <point x="-163" y="728"/>
      <point x="-140" y="728" type="qcurve" smooth="yes"/>
      <point x="-115" y="728"/>
      <point x="-83" y="763"/>
      <point x="-83" y="787" type="qcurve" smooth="yes"/>
      <point x="-83" y="812"/>
      <point x="-122" y="843"/>
    </contour>
  </outline>
</glyph>
<glyph name="uni009A" format="2">
  <unicode hex="009A"/>
  <unicode hex="0161"/>
  <unicode hex="F712"/>
  <outline>
    <contour>
      <point x="-176" y="756" type="line"/>
      <point x="-176" y="732" type="line"/>
      <point x="-236" y="732" type="line" smooth="yes"/>
      <point x="-238" y="732"/>
      <point x="-240" y="733" type="qcurve" smooth="yes"/>
      <point x="-244" y="735" type="line"/>
      <point x="-312" y="807" type="line"/>
      <point x="-384" y="732" type="line"/>
      <point x="-386" y="731"/>
      <point x="-393" y="729"/>
      <point x="-396" y="729" type="qcurve" smooth="yes"/>
      <point x="-445" y="729"/>
      <point x="-509" y="787"/>
      <point x="-509" y="837" type="qcurve" smooth="yes"/>
      <point x="-509" y="860"/>
      <point x="-488" y="900"/>
      <point x="-454" y="931"/>
      <point x="-412" y="952"/>
      <point x="-390" y="956" type="qcurve" smooth="yes"/>
      <point x="-371" y="960"/>
      <point x="-332" y="963"/>
      <point x="-312" y="963" type="qcurve" smooth="yes"/>
      <point x="-298" y="963"/>
      <point x="-273" y="957"/>
      <point x="-259" y="957" type="qcurve" smooth="yes"/>
      <point x="-218" y="957"/>
      <point x="-181" y="980" type="qcurve"/>
      <point x="-167" y="962" type="line"/>
      <point x="-188" y="947"/>
      <point x="-236" y="934"/>
      <point x="-260" y="934" type="qcurve" smooth="yes"/>
      <point x="-276" y="934"/>
      <point x="-307" y="937"/>
      <point x="-324" y="937" type="qcurve" smooth="yes"/>
      <point x="-345" y="937"/>
      <point x="-401" y="930"/>
      <point x="-451" y="908"/>
      <point x="-485" y="870"/>
      <point x="-485" y="838" type="qcurve" smooth="yes"/>
      <point x="-485" y="800"/>
      <point x="-438" y="756"/>
      <point x="-402" y="754" type="qcurve"/>
      <point x="-398" y="754" type="line"/>
      <point x="-322" y="831" type="line" smooth="yes"/>
      <point x="-320" y="832"/>
      <point x="-315" y="834"/>
      <point x="-311" y="834"/>
      <point x="-305" y="832"/>
      <point x="-304" y="832" type="qcurve"/>
      <point x="-231" y="756" type="line"/>
    </contour>
  </outline>
</glyph>
<glyph name="uni009B" format="2">
  <unicode hex="009B"/>
  <unicode hex="203A"/>
  <unicode hex="F713"/>
  <outline>
    <contour>
      <point x="-214" y="1130" type="line"/>
      <point x="-184" y="1130" type="line"/>
      <point x="-184" y="969" type="line"/>
      <point x="-214" y="969" type="line"/>
    </contour>
  </outline>
</glyph>
<glyph name="uni009C" format="2">
  <unicode hex="009C"/>
  <unicode hex="0153"/>
  <unicode hex="F714"/>
  <outline>
    <contour>
      <point x="-58" y="969" type="line"/>
      <point x="-267" y="969" type="line" smooth="yes"/>
      <point x="-303" y="969"/>
      <point x="-350" y="1017"/>
      <point x="-350" y="1054" type="qcurve" smooth="yes"/>
      <point x="-350" y="1099" type="line"/>
      <point x="-422" y="1099" type="line"/>
      <point x="-422" y="1121" type="line"/>
      <point x="-339" y="1121" type="line" smooth="yes"/>
      <point x="-332" y="1121"/>
      <point x="-329" y="1115" type="qcurve"/>
      <point x="-329" y="1113"/>
      <point x="-328" y="1109"/>
      <point x="-328" y="1107" type="qcurve" smooth="yes"/>
      <point x="-328" y="1097" type="line" smooth="yes"/>
      <point x="-328" y="1089"/>
      <point x="-329" y="1073"/>
      <point x="-329" y="1065" type="qcurve" smooth="yes"/>
      <point x="-329" y="1051"/>
      <point x="-323" y="1025"/>
      <point x="-308" y="1004"/>
      <point x="-284" y="991"/>
      <point x="-267" y="991" type="qcurve" smooth="yes"/>
      <point x="-58" y="991" type="line"/>
    </contour>
  </outline>
</glyph>
<glyph name="uni009D" format="2">
  <unicode hex="009D"/>
  <unicode hex="F715"/>
  <outline>
    <contour>
      <point x="-138" y="991" type="line"/>
      <point x="-138" y="969" type="line"/>
      <point x="-247" y="969" type="line" smooth="yes"/>
      <point x="-258" y="969"/>
      <point x="-258" y="980" type="qcurve" smooth="yes"/>
      <point x="-258" y="993"/>
      <point x="-261" y="1031"/>
      <point x="-266" y="1049" type="qcurve" smooth="yes"/>
      <point x="-271" y="1066"/>
      <point x="-293" y="1096"/>
      <point x="-313" y="1098" type="qcurve"/>
      <point x="-319" y="1098" type="line"/>
      <point x="-372" y="1045" type="line" smooth="yes"/>
      <point x="-374" y="1044"/>
      <point x="-379" y="1042"/>
      <point x="-383" y="1042"/>
      <point x="-385" y="1043" type="qcurve" smooth="yes"/>
      <point x="-389" y="1045" type="line"/>
      <point x="-441" y="1100" type="line"/>
      <point x="-447" y="1100" type="line" smooth="yes"/>
      <point x="-451" y="1100"/>
      <point x="-463" y="1096"/>
      <point x="-465" y="1094" type="qcurve" smooth="yes"/>
      <point x="-476" y="1087"/>
      <point x="-490" y="1066"/>
      <point x="-497" y="1041"/>
      <point x="-499" y="1016"/>
      <point x="-499" y="1005" type="qcurve" smooth="yes"/>
      <point x="-499" y="997"/>
      <point x="-498" y="982"/>
      <point x="-497" y="974" type="qcurve"/>
      <point x="-518" y="969" type="line"/>
      <point x="-521" y="986"/>
      <point x="-521" y="1003" type="qcurve" smooth="yes"/>
      <point x="-521" y="1045"/>
      <point x="-490" y="1113"/>
      <point x="-448" y="1123" type="qcurve" smooth="yes"/>
      <point x="-445" y="1124"/>
      <point x="-441" y="1124" type="qcurve" smooth="yes"/>
      <point x="-435" y="1124"/>
      <point x="-429" y="1120" type="qcurve"/>
      <point x="-380" y="1069" type="line"/>
      <point x="-334" y="1118" type="line"/>
      <point x="-328" y="1122"/>
      <point x="-320" y="1122" type="qcurve" smooth="yes"/>
      <point x="-310" y="1122"/>
      <point x="-293" y="1114"/>
      <point x="-284" y="1109" type="qcurve" smooth="yes"/>
      <point x="-261" y="1094"/>
      <point x="-242" y="1053"/>
      <point x="-238" y="1025" type="qcurve" smooth="yes"/>
      <point x="-237" y="1018"/>
      <point x="-237" y="1003"/>
      <point x="-235" y="996" type="qcurve" smooth="yes"/>
      <point x="-234" y="991" type="line"/>
    </contour>
  </outline>
</glyph>
<glyph name="uni009E" format="2">
  <unicode hex="009E"/>
  <unicode hex="017E"/>
  <unicode hex="F716"/>
  <outline>
    <contour>
      <point x="-299" y="1039" type="line"/>
      <point x="-299" y="1061" type="line"/>
      <point x="-230" y="1061" type="line"/>
      <point x="-230" y="1130" type="line"/>
      <point x="-208" y="1130" type="line"/>
      <point x="-208" y="1061" type="line"/>
      <point x="-140" y="1061" type="line"/>
      <point x="-140" y="1039" type="line"/>
      <point x="-208" y="1039" type="line"/>
      <point x="-208" y="969" type="line"/>
      <point x="-230" y="969" type="line"/>
      <point x="-230" y="1039" type="line"/>
    </contour>
  </outline>
</glyph>
<glyph name="uni009F" format="2">
  <unicode hex="009F"/>
  <unicode hex="0178"/>
  <unicode hex="F717"/>
  <outline>
    <contour>
      <point x="-310" y="969" type="line"/>
      <point x="-310" y="1040" type="line" smooth="yes"/>
      <point x="-310" y="1073"/>
      <point x="-267" y="1125"/>
      <point x="-233" y="1128" type="qcurve" smooth="yes"/>
      <point x="-226" y="1129"/>
      <point x="-219" y="1129" type="qcurve" smooth="yes"/>
      <point x="-9" y="1129" type="line"/>
      <point x="-9" y="1099" type="line"/>
      <point x="-221" y="1099" type="line" smooth="yes"/>
      <point x="-240" y="1099"/>
      <point x="-263" y="1086"/>
      <point x="-276" y="1064"/>
      <point x="-280" y="1037"/>
      <point x="-280" y="1023" type="qcurve" smooth="yes"/>
      <point x="-280" y="969" type="line"/>
    </contour>
  </outline>
</glyph>
<glyph name="exclamdown" format="2">
  <advance width="582"/>
  <unicode hex="00A1"/>
  <unicode hex="0E01"/>
  <outline>
    <contour>
      <point x="80" y="0" type="line"/>
      <point x="80" y="506" type="line" smooth="yes"/>
      <point x="80" y="535"/>
      <point x="129" y="570"/>
      <point x="195" y="588"/>
      <point x="264" y="594"/>
      <point x="285" y="594" type="qcurve" smooth="yes"/>
      <point x="322" y="594"/>
      <point x="394" y="581"/>
      <point x="455" y="550"/>
      <point x="499" y="498"/>
      <point x="508" y="458" type="qcurve"/>
      <point x="512" y="446"/>
      <point x="512" y="431" type="qcurve" smooth="yes"/>
      <point x="512" y="0" type="line"/>
      <point x="482" y="0" type="line"/>
      <point x="482" y="431" type="line" smooth="yes"/>
      <point x="482" y="473"/>
      <point x="437" y="525"/>
      <point x="371" y="554"/>
      <point x="296" y="563"/>
      <point x="266" y="563" type="qcurve" smooth="yes"/>
      <point x="253" y="563"/>
      <point x="217" y="562"/>
      <point x="180" y="556"/>
      <point x="146" y="546"/>
      <point x="134" y="537" type="qcurve" smooth="yes"/>
      <point x="127" y="532"/>
      <point x="110" y="514"/>
      <point x="110" y="503" type="qcurve" smooth="yes"/>
      <point x="110" y="0" type="line"/>
    </contour>
  </outline>
</glyph>
<glyph name="cent" format="2">
  <advance width="528"/>
  <unicode hex="00A2"/>
  <unicode hex="0E02"/>
  <outline>
    <contour>
      <point x="51" y="552" type="line"/>
      <point x="51" y="584" type="line"/>
      <point x="141" y="584" type="line" smooth="yes"/>
      <point x="179" y="584"/>
      <point x="228" y="533"/>
      <point x="228" y="495" type="qcurve" smooth="yes"/>
      <point x="228" y="465"/>
      <point x="203" y="401"/>
      <point x="186" y="377" type="qcurve" smooth="yes"/>
      <point x="175" y="362"/>
      <point x="153" y="334"/>
      <point x="142" y="319" type="qcurve" smooth="yes"/>
      <point x="122" y="290"/>
      <point x="100" y="228"/>
      <point x="100" y="192" type="qcurve" smooth="yes"/>
      <point x="100" y="154" type="line" smooth="yes"/>
      <point x="100" y="121"/>
      <point x="129" y="71"/>
      <point x="176" y="37"/>
      <point x="234" y="20"/>
      <point x="262" y="20" type="qcurve" smooth="yes"/>
      <point x="291" y="20"/>
      <point x="347" y="37"/>
      <point x="391" y="70"/>
      <point x="418" y="121"/>
      <point x="418" y="154" type="qcurve" smooth="yes"/>
      <point x="418" y="584" type="line"/>
      <point x="448" y="584" type="line"/>
      <point x="448" y="154" type="line" smooth="yes"/>
      <point x="448" y="116"/>
      <point x="416" y="55"/>
      <point x="364" y="13"/>
      <point x="297" y="-10"/>
      <point x="261" y="-10" type="qcurve" smooth="yes"/>
      <point x="208" y="-10"/>
      <point x="111" y="36"/>
      <point x="85" y="84" type="qcurve" smooth="yes"/>
      <point x="75" y="104"/>
      <point x="70" y="150"/>
      <point x="70" y="174" type="qcurve" smooth="yes"/>
      <point x="70" y="206" type="line" smooth="yes"/>
      <point x="70" y="253"/>
      <point x="109" y="325"/>
      <point x="133" y="357" type="qcurve" smooth="yes"/>
      <point x="139" y="366"/>
      <point x="145" y="374" type="qcurve" smooth="yes"/>
      <point x="157" y="390" type="line"/>
      <point x="177" y="422" type="line" smooth="yes"/>
      <point x="187" y="439"/>
      <point x="198" y="475"/>
      <point x="198" y="495" type="qcurve" smooth="yes"/>
      <point x="198" y="519"/>
      <point x="165" y="552"/>
      <point x="141" y="552" type="qcurve" smooth="yes"/>
    </contour>
  </outline>
</glyph>
<glyph name="sterling" format="2">
  <advance width="549"/>
  <unicode hex="00A3"/>
  <unicode hex="0E03"/>
  <outline>
    <contour>
      <point x="468" y="584" type="line"/>
      <point x="468" y="154" type="line" smooth="yes"/>
      <point x="468" y="115"/>
      <point x="436" y="54"/>
      <point x="384" y="12"/>
      <point x="315" y="-10"/>
      <point x="279" y="-10" type="qcurve" smooth="yes"/>
      <point x="221" y="-10"/>
      <point x="127" y="40"/>
      <point x="105" y="94" type="qcurve" smooth="yes"/>
      <point x="99" y="108"/>
      <point x="94" y="135"/>
      <point x="92" y="149" type="qcurve" smooth="yes"/>
      <point x="91" y="163"/>
      <point x="91" y="178" type="qcurve" smooth="yes"/>
      <point x="91" y="206" type="line" smooth="yes"/>
      <point x="91" y="251"/>
      <point x="129" y="323"/>
      <point x="153" y="356" type="qcurve" smooth="yes"/>
      <point x="165" y="374"/>
      <point x="188" y="408"/>
      <point x="206" y="442"/>
      <point x="218" y="478"/>
      <point x="218" y="498" type="qcurve" smooth="yes"/>
      <point x="218" y="515"/>
      <point x="200" y="549"/>
      <point x="178" y="552" type="qcurve"/>
      <point x="175" y="552" type="line"/>
      <point x="106" y="481" type="line"/>
      <point x="20" y="568" type="line"/>
      <point x="42" y="590" type="line"/>
      <point x="106" y="525" type="line"/>
      <point x="162" y="584" type="line"/>
      <point x="202" y="582"/>
      <point x="248" y="536"/>
      <point x="248" y="496" type="qcurve" smooth="yes"/>
      <point x="248" y="465"/>
      <point x="227" y="411"/>
      <point x="210" y="387" type="qcurve" smooth="yes"/>
      <point x="193" y="361"/>
      <point x="156" y="312"/>
      <point x="142" y="286" type="qcurve" smooth="yes"/>
      <point x="134" y="272"/>
      <point x="125" y="246"/>
      <point x="121" y="218"/>
      <point x="121" y="205" type="qcurve" smooth="yes"/>
      <point x="121" y="176" type="line" smooth="yes"/>
      <point x="121" y="99"/>
      <point x="207" y="20"/>
      <point x="281" y="20" type="qcurve" smooth="yes"/>
      <point x="311" y="20"/>
      <point x="367" y="37"/>
      <point x="410" y="70"/>
      <point x="437" y="121"/>
      <point x="437" y="154" type="qcurve" smooth="yes"/>
      <point x="437" y="584" type="line"/>
    </contour>
  </outline>
</glyph>
<glyph name="currency" format="2">
  <advance width="592"/>
  <unicode hex="00A4"/>
  <unicode hex="0E04"/>
  <outline>
    <contour>
      <point x="80" y="430" type="line" smooth="yes"/>
      <point x="80" y="473"/>
      <point x="120" y="535"/>
      <point x="182" y="575"/>
      <point x="259" y="594"/>
      <point x="295" y="594" type="qcurve" smooth="yes"/>
      <point x="335" y="594"/>
      <point x="413" y="572"/>
      <point x="474" y="529"/>
      <point x="512" y="463"/>
      <point x="512" y="418" type="qcurve" smooth="yes"/>
      <point x="512" y="0" type="line"/>
      <point x="482" y="0" type="line"/>
      <point x="482" y="430" type="line" smooth="yes"/>
      <point x="482" y="466"/>
      <point x="445" y="517"/>
      <point x="390" y="548"/>
      <point x="326" y="563"/>
      <point x="298" y="563" type="qcurve" smooth="yes"/>
      <point x="265" y="563"/>
      <point x="198" y="547"/>
      <point x="144" y="512"/>
      <point x="110" y="456"/>
      <point x="110" y="416" type="qcurve" smooth="yes"/>
      <point x="110" y="226" type="line"/>
      <point x="131" y="250" type="line"/>
      <point x="164" y="285"/>
      <point x="237" y="313"/>
      <point x="285" y="314" type="qcurve"/>
      <point x="285" y="282" type="line"/>
      <point x="250" y="281"/>
      <point x="186" y="265"/>
      <point x="138" y="229"/>
      <point x="110" y="173"/>
      <point x="110" y="131" type="qcurve" smooth="yes"/>
      <point x="110" y="0" type="line"/>
      <point x="80" y="0" type="line"/>
    </contour>
  </outline>
</glyph>
<glyph name="yen" format="2">
  <advance width="592"/>
  <unicode hex="00A5"/>
  <unicode hex="0E05"/>
  <outline>
    <contour>
      <point x="80" y="0" type="line"/>
      <point x="80" y="446" type="line" smooth="yes"/>
      <point x="80" y="500"/>
      <point x="142" y="571"/>
      <point x="190" y="592" type="qcurve"/>
      <point x="297" y="494" type="line"/>
      <point x="403" y="592" type="line"/>
      <point x="427" y="581"/>
      <point x="462" y="557"/>
      <point x="487" y="527"/>
      <point x="504" y="488"/>
      <point x="510" y="462" type="qcurve"/>
      <point x="511" y="461"/>
      <point x="511" y="456" type="qcurve"/>
      <point x="512" y="455"/>
      <point x="512" y="452" type="qcurve" smooth="yes"/>
      <point x="512" y="0" type="line"/>
      <point x="482" y="0" type="line"/>
      <point x="482" y="445" type="line" smooth="yes"/>
      <point x="482" y="460"/>
      <point x="471" y="493"/>
      <point x="452" y="522"/>
      <point x="426" y="546"/>
      <point x="412" y="552" type="qcurve" smooth="yes"/>
      <point x="409" y="553" type="line"/>
      <point x="297" y="460" type="line"/>
      <point x="185" y="553" type="line"/>
      <point x="182" y="552" type="line" smooth="yes"/>
      <point x="167" y="546"/>
      <point x="141" y="522"/>
      <point x="122" y="492"/>
      <point x="110" y="459"/>
      <point x="110" y="444" type="qcurve" smooth="yes"/>
      <point x="110" y="226" type="line"/>
      <point x="131" y="250" type="line"/>
      <point x="164" y="285"/>
      <point x="237" y="313"/>
      <point x="285" y="314" type="qcurve"/>
      <point x="285" y="282" type="line"/>
      <point x="250" y="281"/>
      <point x="186" y="265"/>
      <point x="138" y="229"/>
      <point x="110" y="173"/>
      <point x="110" y="131" type="qcurve" smooth="yes"/>
      <point x="110" y="0" type="line"/>
    </contour>
  </outline>
</glyph>
<glyph name="brokenbar" format="2">
  <advance width="601"/>
  <unicode hex="00A6"/>
  <unicode hex="0E06"/>
  <outline>
    <contour>
      <point x="521" y="584" type="line"/>
      <point x="521" y="154" type="line" smooth="yes"/>
      <point x="521" y="116"/>
      <point x="489" y="55"/>
      <point x="436" y="13"/>
      <point x="367" y="-9"/>
      <point x="331" y="-9" type="qcurve" smooth="yes"/>
      <point x="266" y="-9"/>
      <point x="164" y="49"/>
      <point x="132" y="106" type="qcurve" smooth="yes"/>
      <point x="123" y="122" type="line"/>
      <point x="111" y="0" type="line"/>
      <point x="89" y="0" type="line"/>
      <point x="89" y="216" type="line" smooth="yes"/>
      <point x="89" y="259"/>
      <point x="127" y="326"/>
      <point x="151" y="358" type="qcurve" smooth="yes"/>
      <point x="175" y="390" type="line" smooth="yes"/>
      <point x="187" y="406"/>
      <point x="195" y="422" type="qcurve" smooth="yes"/>
      <point x="205" y="439"/>
      <point x="217" y="475"/>
      <point x="217" y="495" type="qcurve" smooth="yes"/>
      <point x="217" y="512"/>
      <point x="197" y="547"/>
      <point x="177" y="552" type="qcurve" smooth="yes"/>
      <point x="174" y="553" type="line"/>
      <point x="104" y="491" type="line"/>
      <point x="20" y="568" type="line"/>
      <point x="40" y="589" type="line"/>
      <point x="104" y="525" type="line"/>
      <point x="160" y="584" type="line"/>
      <point x="200" y="582"/>
      <point x="247" y="534"/>
      <point x="247" y="494" type="qcurve" smooth="yes"/>
      <point x="247" y="452"/>
      <point x="209" y="382"/>
      <point x="184" y="350" type="qcurve" smooth="yes"/>
      <point x="178" y="342"/>
      <point x="166" y="327"/>
      <point x="160" y="319" type="qcurve" smooth="yes"/>
      <point x="150" y="303" type="line" smooth="yes"/>
      <point x="145" y="295"/>
      <point x="140" y="286" type="qcurve" smooth="yes"/>
      <point x="130" y="270"/>
      <point x="119" y="236"/>
      <point x="119" y="217" type="qcurve" smooth="yes"/>
      <point x="119" y="174"/>
      <point x="155" y="102"/>
      <point x="215" y="51"/>
      <point x="292" y="22"/>
      <point x="332" y="22" type="qcurve" smooth="yes"/>
      <point x="361" y="22"/>
      <point x="418" y="38"/>
      <point x="463" y="71"/>
      <point x="491" y="121"/>
      <point x="491" y="154" type="qcurve" smooth="yes"/>
      <point x="491" y="584" type="line"/>
    </contour>
  </outline>
</glyph>
<glyph name="section" format="2">
  <advance width="520"/>
  <unicode hex="00A7"/>
  <unicode hex="0E07"/>
  <outline>
    <contour>
      <point x="440" y="154" type="line" smooth="yes"/>
      <point x="440" y="128"/>
      <point x="423" y="80"/>
      <point x="393" y="39"/>
      <point x="351" y="9"/>
      <point x="327" y="1" type="qcurve" smooth="yes"/>
      <point x="307" y="-6"/>
      <point x="271" y="-9"/>
      <point x="250" y="-9" type="qcurve" smooth="yes"/>
      <point x="247" y="-9"/>
      <point x="241" y="-5" type="qcurve"/>
      <point x="20" y="218" type="line"/>
      <point x="42" y="241" type="line"/>
      <point x="259" y="22" type="line"/>
      <point x="263" y="22" type="line" smooth="yes"/>
      <point x="290" y="22"/>
      <point x="343" y="40"/>
      <point x="385" y="75"/>
      <point x="410" y="124"/>
      <point x="410" y="154" type="qcurve" smooth="yes"/>
      <point x="410" y="495" type="line" smooth="yes"/>
      <point x="410" y="519"/>
      <point x="377" y="552"/>
      <point x="353" y="552" type="qcurve" smooth="yes"/>
      <point x="282" y="552" type="line"/>
      <point x="282" y="584" type="line"/>
      <point x="353" y="584" type="line" smooth="yes"/>
      <point x="391" y="584"/>
      <point x="440" y="533"/>
      <point x="440" y="495" type="qcurve" smooth="yes"/>
    </contour>
  </outline>
</glyph>
<glyph name="dieresis" format="2">
  <advance width="504"/>
  <unicode hex="00A8"/>
  <unicode hex="0E08"/>
  <outline>
    <contour>
      <point x="201" y="594" type="qcurve" smooth="yes"/>
      <point x="239" y="594"/>
      <point x="318" y="575"/>
      <point x="383" y="535"/>
      <point x="424" y="473"/>
      <point x="424" y="431" type="qcurve" smooth="yes"/>
      <point x="424" y="0" type="line"/>
      <point x="394" y="0" type="line"/>
      <point x="394" y="149" type="line" smooth="yes"/>
      <point x="394" y="184"/>
      <point x="361" y="234"/>
      <point x="310" y="265"/>
      <point x="249" y="281"/>
      <point x="221" y="282" type="qcurve"/>
      <point x="221" y="314" type="line"/>
      <point x="269" y="312"/>
      <point x="353" y="277"/>
      <point x="383" y="238" type="qcurve" smooth="yes"/>
      <point x="394" y="223" type="line"/>
      <point x="394" y="431" type="line" smooth="yes"/>
      <point x="394" y="469"/>
      <point x="355" y="520"/>
      <point x="297" y="550"/>
      <point x="229" y="563"/>
      <point x="200" y="563" type="qcurve" smooth="yes"/>
      <point x="183" y="563"/>
      <point x="140" y="561"/>
      <point x="97" y="554"/>
      <point x="56" y="540"/>
      <point x="41" y="529" type="qcurve"/>
      <point x="20" y="551" type="line"/>
      <point x="37" y="565"/>
      <point x="81" y="582"/>
      <point x="130" y="591"/>
      <point x="179" y="594"/>
    </contour>
  </outline>
</glyph>
<glyph name="copyright" format="2">
  <advance width="804"/>
  <unicode hex="00A9"/>
  <unicode hex="012A"/>
  <outline>
    <contour>
      <point x="14" y="389" type="qcurve" smooth="yes"/>
      <point x="14" y="467"/>
      <point x="75" y="607"/>
      <point x="178" y="714"/>
      <point x="317" y="776"/>
      <point x="395" y="776" type="qcurve" smooth="yes"/>
      <point x="474" y="776"/>
      <point x="615" y="715"/>
      <point x="720" y="610"/>
      <point x="782" y="469"/>
      <point x="782" y="389" type="qcurve" smooth="yes"/>
      <point x="782" y="308"/>
      <point x="724" y="165"/>
      <point x="621" y="58"/>
      <point x="481" y="-5"/>
      <point x="400" y="-5" type="qcurve" smooth="yes"/>
      <point x="318" y="-5"/>
      <point x="177" y="57"/>
      <point x="73" y="164"/>
      <point x="14" y="307"/>
    </contour>
    <contour>
      <point x="44" y="380" type="qcurve" smooth="yes"/>
      <point x="44" y="308"/>
      <point x="101" y="179"/>
      <point x="197" y="82"/>
      <point x="325" y="25"/>
      <point x="397" y="25" type="qcurve" smooth="yes"/>
      <point x="470" y="25"/>
      <point x="599" y="81"/>
      <point x="696" y="177"/>
      <point x="752" y="307"/>
      <point x="752" y="381" type="qcurve" smooth="yes"/>
      <point x="752" y="455"/>
      <point x="699" y="586"/>
      <point x="605" y="686"/>
      <point x="477" y="744"/>
      <point x="402" y="744" type="qcurve" smooth="yes"/>
      <point x="326" y="744"/>
      <point x="195" y="687"/>
      <point x="99" y="589"/>
      <point x="44" y="456"/>
    </contour>
    <contour>
      <point x="267" y="336" type="line" smooth="yes"/>
      <point x="267" y="325"/>
      <point x="274" y="305"/>
      <point x="279" y="296" type="qcurve" smooth="yes"/>
      <point x="299" y="260"/>
      <point x="372" y="235"/>
      <point x="408" y="235" type="qcurve" smooth="yes"/>
      <point x="438" y="235"/>
      <point x="502" y="251"/>
      <point x="525" y="274" type="qcurve"/>
      <point x="550" y="257" type="line"/>
      <point x="525" y="228"/>
      <point x="453" y="203"/>
      <point x="415" y="203" type="qcurve" smooth="yes"/>
      <point x="401" y="203"/>
      <point x="374" y="206"/>
      <point x="360" y="208" type="qcurve" smooth="yes"/>
      <point x="336" y="212"/>
      <point x="291" y="234"/>
      <point x="256" y="267"/>
      <point x="236" y="310"/>
      <point x="236" y="336" type="qcurve" smooth="yes"/>
      <point x="236" y="434" type="line" smooth="yes"/>
      <point x="236" y="460"/>
      <point x="257" y="504"/>
      <point x="293" y="537"/>
      <point x="339" y="559"/>
      <point x="364" y="563" type="qcurve" smooth="yes"/>
      <point x="378" y="565"/>
      <point x="405" y="567"/>
      <point x="419" y="567" type="qcurve" smooth="yes"/>
      <point x="457" y="567"/>
      <point x="526" y="540"/>
      <point x="550" y="513" type="qcurve"/>
      <point x="525" y="495" type="line"/>
      <point x="503" y="520"/>
      <point x="439" y="535"/>
      <point x="409" y="535" type="qcurve" smooth="yes"/>
      <point x="387" y="535"/>
      <point x="344" y="528"/>
      <point x="306" y="509"/>
      <point x="277" y="477"/>
      <point x="269" y="452" type="qcurve" smooth="yes"/>
      <point x="267" y="444"/>
      <point x="267" y="439" type="qcurve" smooth="yes"/>
    </contour>
  </outline>
</glyph>
<glyph name="ordfeminine" format="2">
  <advance width="524"/>
  <unicode hex="00AA"/>
  <unicode hex="0E0A"/>
  <outline>
    <contour>
      <point x="50" y="584" type="line"/>
      <point x="141" y="584" type="line" smooth="yes"/>
      <point x="179" y="584"/>
      <point x="228" y="532"/>
      <point x="228" y="494" type="qcurve" smooth="yes"/>
      <point x="228" y="473"/>
      <point x="217" y="437"/>
      <point x="209" y="419" type="qcurve"/>
      <point x="204" y="411"/>
      <point x="194" y="394"/>
      <point x="189" y="386" type="qcurve" smooth="yes"/>
      <point x="183" y="378"/>
      <point x="171" y="361"/>
      <point x="165" y="352" type="qcurve" smooth="yes"/>
      <point x="153" y="335"/>
      <point x="130" y="300"/>
      <point x="112" y="261"/>
      <point x="100" y="218"/>
      <point x="100" y="193" type="qcurve" smooth="yes"/>
      <point x="100" y="154" type="line" smooth="yes"/>
      <point x="100" y="121"/>
      <point x="129" y="71"/>
      <point x="176" y="37"/>
      <point x="234" y="20"/>
      <point x="262" y="20" type="qcurve" smooth="yes"/>
      <point x="291" y="20"/>
      <point x="347" y="37"/>
      <point x="391" y="70"/>
      <point x="418" y="121"/>
      <point x="418" y="154" type="qcurve" smooth="yes"/>
      <point x="418" y="318" type="line" smooth="yes"/>
      <point x="418" y="341"/>
      <point x="404" y="390"/>
      <point x="388" y="408" type="qcurve" smooth="yes"/>
      <point x="312" y="495" type="line"/>
      <point x="450" y="647" type="line"/>
      <point x="472" y="627" type="line"/>
      <point x="352" y="495" type="line"/>
      <point x="355" y="491" type="line" smooth="yes"/>
      <point x="365" y="480"/>
      <point x="384" y="460"/>
      <point x="392" y="450" type="qcurve" smooth="yes"/>
      <point x="400" y="441"/>
      <point x="415" y="423"/>
      <point x="421" y="412" type="qcurve" smooth="yes"/>
      <point x="433" y="392"/>
      <point x="448" y="348"/>
      <point x="448" y="319" type="qcurve" smooth="yes"/>
      <point x="448" y="154" type="line" smooth="yes"/>
      <point x="448" y="116"/>
      <point x="417" y="55"/>
      <point x="364" y="13"/>
      <point x="297" y="-10"/>
      <point x="261" y="-10" type="qcurve" smooth="yes"/>
      <point x="208" y="-10"/>
      <point x="110" y="37"/>
      <point x="85" y="85" type="qcurve" smooth="yes"/>
      <point x="75" y="105"/>
      <point x="70" y="150"/>
      <point x="70" y="174" type="qcurve" smooth="yes"/>
      <point x="70" y="206" type="line" smooth="yes"/>
      <point x="70" y="254"/>
      <point x="109" y="325"/>
      <point x="133" y="357" type="qcurve"/>
      <point x="145" y="375"/>
      <point x="157" y="390" type="qcurve"/>
      <point x="177" y="422" type="line" smooth="yes"/>
      <point x="187" y="439"/>
      <point x="198" y="475"/>
      <point x="198" y="495" type="qcurve" smooth="yes"/>
      <point x="198" y="519"/>
      <point x="165" y="552"/>
      <point x="141" y="552" type="qcurve" smooth="yes"/>
      <point x="50" y="552" type="line"/>
    </contour>
  </outline>
</glyph>
<glyph name="guillemotleft" format="2">
  <advance width="523"/>
  <unicode hex="00AB"/>
  <unicode hex="0E0B"/>
  <outline>
    <contour>
      <point x="415" y="318" type="line" smooth="yes"/>
      <point x="415" y="341"/>
      <point x="401" y="389"/>
      <point x="385" y="408" type="qcurve" smooth="yes"/>
      <point x="309" y="495" type="line"/>
      <point x="448" y="647" type="line"/>
      <point x="471" y="627" type="line"/>
      <point x="351" y="495" type="line"/>
      <point x="354" y="491" type="line" smooth="yes"/>
      <point x="365" y="479"/>
      <point x="389" y="452"/>
      <point x="400" y="438" type="qcurve" smooth="yes"/>
      <point x="411" y="423"/>
      <point x="429" y="393"/>
      <point x="434" y="379" type="qcurve" smooth="yes"/>
      <point x="439" y="363"/>
      <point x="446" y="334"/>
      <point x="446" y="319" type="qcurve" smooth="yes"/>
      <point x="446" y="154" type="line" smooth="yes"/>
      <point x="446" y="115"/>
      <point x="415" y="54"/>
      <point x="363" y="12"/>
      <point x="295" y="-10"/>
      <point x="258" y="-10" type="qcurve" smooth="yes"/>
      <point x="205" y="-10"/>
      <point x="108" y="36"/>
      <point x="84" y="85" type="qcurve" smooth="yes"/>
      <point x="74" y="106"/>
      <point x="69" y="150"/>
      <point x="69" y="174" type="qcurve" smooth="yes"/>
      <point x="69" y="206" type="line" smooth="yes"/>
      <point x="69" y="253"/>
      <point x="108" y="326"/>
      <point x="131" y="358" type="qcurve" smooth="yes"/>
      <point x="143" y="375"/>
      <point x="166" y="407"/>
      <point x="175" y="423" type="qcurve" smooth="yes"/>
      <point x="185" y="440"/>
      <point x="197" y="475"/>
      <point x="197" y="495" type="qcurve" smooth="yes"/>
      <point x="197" y="514"/>
      <point x="178" y="546"/>
      <point x="158" y="552" type="qcurve" smooth="yes"/>
      <point x="154" y="553" type="line"/>
      <point x="84" y="491" type="line"/>
      <point x="0" y="568" type="line"/>
      <point x="20" y="588" type="line"/>
      <point x="84" y="521" type="line"/>
      <point x="142" y="584" type="line"/>
      <point x="182" y="582"/>
      <point x="227" y="534"/>
      <point x="227" y="494" type="qcurve" smooth="yes"/>
      <point x="227" y="463"/>
      <point x="205" y="410"/>
      <point x="188" y="386" type="qcurve" smooth="yes"/>
      <point x="180" y="373"/>
      <point x="171" y="361" type="qcurve" smooth="yes"/>
      <point x="153" y="337" type="line" smooth="yes"/>
      <point x="144" y="324"/>
      <point x="127" y="300"/>
      <point x="120" y="286" type="qcurve"/>
      <point x="106" y="263"/>
      <point x="99" y="215"/>
      <point x="99" y="189" type="qcurve" smooth="yes"/>
      <point x="99" y="154" type="line" smooth="yes"/>
      <point x="99" y="121"/>
      <point x="128" y="71"/>
      <point x="173" y="37"/>
      <point x="231" y="20"/>
      <point x="259" y="20" type="qcurve" smooth="yes"/>
      <point x="289" y="20"/>
      <point x="345" y="37"/>
      <point x="388" y="70"/>
      <point x="415" y="121"/>
      <point x="415" y="154" type="qcurve" smooth="yes"/>
    </contour>
  </outline>
</glyph>
<glyph name="logicalnot" format="2">
  <advance width="886"/>
  <unicode hex="00AC"/>
  <unicode hex="0E0C"/>
  <outline>
    <contour>
      <point x="80" y="504" type="line" smooth="yes"/>
      <point x="80" y="530"/>
      <point x="119" y="564"/>
      <point x="175" y="585"/>
      <point x="236" y="594"/>
      <point x="258" y="594" type="qcurve" smooth="yes"/>
      <point x="296" y="594"/>
      <point x="368" y="574"/>
      <point x="424" y="534"/>
      <point x="458" y="472"/>
      <point x="458" y="430" type="qcurve" smooth="yes"/>
      <point x="458" y="247" type="line" smooth="yes"/>
      <point x="458" y="205"/>
      <point x="480" y="124"/>
      <point x="526" y="60"/>
      <point x="595" y="20"/>
      <point x="642" y="20" type="qcurve" smooth="yes"/>
      <point x="702" y="20"/>
      <point x="774" y="93"/>
      <point x="774" y="153" type="qcurve" smooth="yes"/>
      <point x="774" y="584" type="line"/>
      <point x="806" y="584" type="line"/>
      <point x="806" y="153" type="line" smooth="yes"/>
      <point x="806" y="118"/>
      <point x="782" y="58"/>
      <point x="738" y="15"/>
      <point x="678" y="-10"/>
      <point x="643" y="-10" type="qcurve" smooth="yes"/>
      <point x="591" y="-10"/>
      <point x="507" y="35"/>
      <point x="480" y="80" type="qcurve" smooth="yes"/>
      <point x="462" y="111" type="line"/>
      <point x="450" y="0" type="line"/>
      <point x="428" y="0" type="line"/>
      <point x="428" y="430" type="line" smooth="yes"/>
      <point x="428" y="465"/>
      <point x="398" y="515"/>
      <point x="350" y="548"/>
      <point x="290" y="563"/>
      <point x="261" y="563" type="qcurve" smooth="yes"/>
      <point x="248" y="563"/>
      <point x="197" y="558"/>
      <point x="147" y="545"/>
      <point x="110" y="521"/>
      <point x="110" y="503" type="qcurve" smooth="yes"/>
      <point x="110" y="89" type="line" smooth="yes"/>
      <point x="110" y="70"/>
      <point x="128" y="46"/>
      <point x="154" y="33"/>
      <point x="185" y="29"/>
      <point x="198" y="29" type="qcurve" smooth="yes"/>
      <point x="208" y="29"/>
      <point x="228" y="30"/>
      <point x="238" y="31" type="qcurve"/>
      <point x="238" y="0" type="line"/>
      <point x="169" y="0" type="line" smooth="yes"/>
      <point x="131" y="0"/>
      <point x="80" y="51"/>
      <point x="80" y="89" type="qcurve" smooth="yes"/>
    </contour>
  </outline>
</glyph>
<glyph name="registered" format="2">
  <advance width="803"/>
  <unicode hex="00AE"/>
  <unicode hex="012B"/>
  <outline>
    <contour>
      <point x="399" y="782" type="qcurve" smooth="yes"/>
      <point x="479" y="782"/>
      <point x="620" y="720"/>
      <point x="724" y="614"/>
      <point x="784" y="471"/>
      <point x="784" y="391" type="qcurve" smooth="yes"/>
      <point x="784" y="311"/>
      <point x="724" y="169"/>
      <point x="619" y="62"/>
      <point x="479" y="0"/>
      <point x="399" y="0" type="qcurve" smooth="yes"/>
      <point x="319" y="0"/>
      <point x="179" y="62"/>
      <point x="74" y="169"/>
      <point x="14" y="311"/>
      <point x="14" y="391" type="qcurve" smooth="yes"/>
      <point x="14" y="472"/>
      <point x="74" y="614"/>
      <point x="178" y="720"/>
      <point x="318" y="782"/>
    </contour>
    <contour>
      <point x="399" y="31" type="qcurve" smooth="yes"/>
      <point x="473" y="31"/>
      <point x="602" y="88"/>
      <point x="698" y="186"/>
      <point x="754" y="317"/>
      <point x="754" y="391" type="qcurve" smooth="yes"/>
      <point x="754" y="465"/>
      <point x="698" y="595"/>
      <point x="601" y="694"/>
      <point x="472" y="751"/>
      <point x="399" y="751" type="qcurve" smooth="yes"/>
      <point x="326" y="751"/>
      <point x="196" y="694"/>
      <point x="100" y="596"/>
      <point x="44" y="465"/>
      <point x="44" y="391" type="qcurve" smooth="yes"/>
      <point x="44" y="317"/>
      <point x="99" y="186"/>
      <point x="195" y="88"/>
      <point x="325" y="31"/>
    </contour>
    <contour>
      <point x="455" y="570" type="line" smooth="yes"/>
      <point x="497" y="570"/>
      <point x="543" y="512"/>
      <point x="543" y="472" type="qcurve" smooth="yes"/>
      <point x="543" y="446"/>
      <point x="522" y="399"/>
      <point x="499" y="387" type="qcurve" smooth="yes"/>
      <point x="494" y="385" type="line"/>
      <point x="562" y="226" type="line"/>
      <point x="529" y="226" type="line"/>
      <point x="464" y="376" type="line"/>
      <point x="312" y="376" type="line"/>
      <point x="312" y="226" type="line"/>
      <point x="282" y="226" type="line"/>
      <point x="282" y="570" type="line"/>
    </contour>
    <contour>
      <point x="312" y="406" type="line"/>
      <point x="457" y="406" type="line" smooth="yes"/>
      <point x="471" y="406"/>
      <point x="492" y="418"/>
      <point x="507" y="437"/>
      <point x="514" y="460"/>
      <point x="514" y="472" type="qcurve" smooth="yes"/>
      <point x="514" y="497"/>
      <point x="485" y="538"/>
      <point x="456" y="538" type="qcurve" smooth="yes"/>
      <point x="312" y="538" type="line"/>
    </contour>
  </outline>
</glyph>
<glyph name="macron" format="2">
  <advance width="599"/>
  <unicode hex="00AF"/>
  <unicode hex="0E0F"/>
  <outline>
    <contour>
      <point x="41" y="30" type="qcurve" smooth="yes"/>
      <point x="59" y="30"/>
      <point x="85" y="48"/>
      <point x="85" y="70" type="qcurve" smooth="yes"/>
      <point x="85" y="505" type="line" smooth="yes"/>
      <point x="85" y="533"/>
      <point x="137" y="568"/>
      <point x="208" y="587"/>
      <point x="280" y="593"/>
      <point x="300" y="593" type="qcurve" smooth="yes"/>
      <point x="338" y="593"/>
      <point x="416" y="574"/>
      <point x="479" y="533"/>
      <point x="519" y="472"/>
      <point x="519" y="430" type="qcurve" smooth="yes"/>
      <point x="519" y="-43" type="line" smooth="yes"/>
      <point x="519" y="-69"/>
      <point x="501" y="-112"/>
      <point x="471" y="-149"/>
      <point x="431" y="-178"/>
      <point x="409" y="-189" type="qcurve"/>
      <point x="302" y="-77" type="line"/>
      <point x="197" y="-186" type="line"/>
      <point x="85" y="-186" type="line"/>
      <point x="85" y="-154" type="line"/>
      <point x="185" y="-154" type="line"/>
      <point x="302" y="-46" type="line"/>
      <point x="414" y="-150" type="line"/>
      <point x="417" y="-149" type="line" smooth="yes"/>
      <point x="431" y="-143"/>
      <point x="457" y="-119"/>
      <point x="477" y="-90"/>
      <point x="489" y="-57"/>
      <point x="489" y="-42" type="qcurve" smooth="yes"/>
      <point x="489" y="430" type="line" smooth="yes"/>
      <point x="489" y="469"/>
      <point x="448" y="520"/>
      <point x="388" y="550"/>
      <point x="318" y="562"/>
      <point x="289" y="562" type="qcurve" smooth="yes"/>
      <point x="254" y="562"/>
      <point x="173" y="549"/>
      <point x="141" y="534" type="qcurve" smooth="yes"/>
      <point x="131" y="529"/>
      <point x="117" y="513"/>
      <point x="117" y="502" type="qcurve" smooth="yes"/>
      <point x="117" y="70" type="line" smooth="yes"/>
      <point x="117" y="49"/>
      <point x="104" y="22"/>
      <point x="80" y="7"/>
      <point x="49" y="1"/>
      <point x="31" y="0" type="qcurve"/>
      <point x="31" y="31" type="line"/>
      <point x="33" y="30"/>
    </contour>
  </outline>
</glyph>
<glyph name="degree" format="2">
  <advance width="507"/>
  <unicode hex="00B0"/>
  <unicode hex="0E10"/>
  <outline>
    <contour>
      <point x="203" y="594" type="qcurve" smooth="yes"/>
      <point x="251" y="594"/>
      <point x="327" y="574"/>
      <point x="365" y="546" type="qcurve" smooth="yes"/>
      <point x="376" y="538" type="line"/>
      <point x="379" y="544" type="line" smooth="yes"/>
      <point x="386" y="557"/>
      <point x="392" y="580"/>
      <point x="394" y="593" type="qcurve"/>
      <point x="424" y="593" type="line"/>
      <point x="422" y="572"/>
      <point x="411" y="541"/>
      <point x="399" y="522" type="qcurve" smooth="yes"/>
      <point x="398" y="521"/>
      <point x="398" y="520" type="qcurve"/>
      <point x="395" y="514" type="line"/>
      <point x="397" y="511" type="line" smooth="yes"/>
      <point x="409" y="494"/>
      <point x="424" y="450"/>
      <point x="424" y="430" type="qcurve" smooth="yes"/>
      <point x="424" y="0" type="line"/>
      <point x="394" y="0" type="line"/>
      <point x="394" y="149" type="line" smooth="yes"/>
      <point x="394" y="184"/>
      <point x="361" y="234"/>
      <point x="310" y="265"/>
      <point x="249" y="281"/>
      <point x="221" y="282" type="qcurve"/>
      <point x="221" y="314" type="line"/>
      <point x="266" y="312"/>
      <point x="352" y="284"/>
      <point x="384" y="250" type="qcurve" smooth="yes"/>
      <point x="394" y="239" type="line"/>
      <point x="394" y="430" type="line" smooth="yes"/>
      <point x="394" y="469"/>
      <point x="356" y="520"/>
      <point x="298" y="551"/>
      <point x="230" y="563"/>
      <point x="200" y="563" type="qcurve" smooth="yes"/>
      <point x="183" y="563"/>
      <point x="140" y="561"/>
      <point x="97" y="553"/>
      <point x="56" y="539"/>
      <point x="41" y="528" type="qcurve"/>
      <point x="20" y="550" type="line"/>
      <point x="37" y="564"/>
      <point x="82" y="581"/>
      <point x="132" y="591"/>
      <point x="182" y="594"/>
    </contour>
    <contour>
      <point x="126" y="-154" type="line"/>
      <point x="242" y="-46" type="line"/>
      <point x="355" y="-151" type="line"/>
      <point x="359" y="-149" type="line" smooth="yes"/>
      <point x="379" y="-140"/>
      <point x="396" y="-123" type="qcurve"/>
      <point x="419" y="-143" type="line"/>
      <point x="405" y="-159"/>
      <point x="369" y="-180"/>
      <point x="349" y="-189" type="qcurve"/>
      <point x="242" y="-77" type="line"/>
      <point x="137" y="-186" type="line"/>
      <point x="79" y="-186" type="line"/>
      <point x="79" y="-154" type="line"/>
    </contour>
  </outline>
</glyph>
<glyph name="plusminus" format="2">
  <advance width="658"/>
  <unicode hex="00B1"/>
  <unicode hex="0E11"/>
  <outline>
    <contour>
      <point x="20" y="568" type="line"/>
      <point x="40" y="589" type="line"/>
      <point x="104" y="525" type="line"/>
      <point x="160" y="584" type="line"/>
      <point x="184" y="583"/>
      <point x="213" y="571"/>
      <point x="231" y="548"/>
      <point x="241" y="515"/>
      <point x="245" y="492" type="qcurve" smooth="yes"/>
      <point x="248" y="474" type="line"/>
      <point x="256" y="490" type="line" smooth="yes"/>
      <point x="280" y="535"/>
      <point x="346" y="594"/>
      <point x="397" y="594" type="qcurve" smooth="yes"/>
      <point x="432" y="594"/>
      <point x="497" y="569"/>
      <point x="547" y="526"/>
      <point x="578" y="466"/>
      <point x="578" y="430" type="qcurve" smooth="yes"/>
      <point x="578" y="0" type="line"/>
      <point x="548" y="0" type="line"/>
      <point x="548" y="407" type="line" smooth="yes"/>
      <point x="548" y="479"/>
      <point x="469" y="563"/>
      <point x="397" y="563" type="qcurve" smooth="yes"/>
      <point x="380" y="563"/>
      <point x="352" y="555"/>
      <point x="338" y="544" type="qcurve" smooth="yes"/>
      <point x="323" y="534"/>
      <point x="305" y="514"/>
      <point x="297" y="499" type="qcurve" smooth="yes"/>
      <point x="274" y="456"/>
      <point x="221" y="375"/>
      <point x="198" y="332" type="qcurve"/>
      <point x="181" y="304"/>
      <point x="176" y="238"/>
      <point x="176" y="206" type="qcurve" smooth="yes"/>
      <point x="176" y="0" type="line"/>
      <point x="146" y="0" type="line"/>
      <point x="146" y="206" type="line" smooth="yes"/>
      <point x="146" y="241"/>
      <point x="152" y="291"/>
      <point x="165" y="334"/>
      <point x="186" y="378"/>
      <point x="201" y="407" type="qcurve"/>
      <point x="208" y="424"/>
      <point x="219" y="458"/>
      <point x="219" y="478" type="qcurve" smooth="yes"/>
      <point x="219" y="488"/>
      <point x="216" y="511"/>
      <point x="207" y="532"/>
      <point x="191" y="549"/>
      <point x="177" y="552" type="qcurve" smooth="yes"/>
      <point x="174" y="553" type="line"/>
      <point x="104" y="491" type="line"/>
    </contour>
  </outline>
</glyph>
<glyph name="twosuperior" format="2">
  <advance width="886"/>
  <unicode hex="00B2"/>
  <unicode hex="0E12"/>
  <outline>
    <contour>
      <point x="80" y="446" type="line" smooth="yes"/>
      <point x="80" y="497"/>
      <point x="144" y="572"/>
      <point x="190" y="592" type="qcurve"/>
      <point x="268" y="520" type="line"/>
      <point x="348" y="592" type="line"/>
      <point x="394" y="572"/>
      <point x="458" y="497"/>
      <point x="458" y="446" type="qcurve" smooth="yes"/>
      <point x="458" y="248" type="line" smooth="yes"/>
      <point x="458" y="207"/>
      <point x="480" y="125"/>
      <point x="525" y="60"/>
      <point x="595" y="20"/>
      <point x="642" y="20" type="qcurve" smooth="yes"/>
      <point x="702" y="20"/>
      <point x="774" y="94"/>
      <point x="774" y="154" type="qcurve" smooth="yes"/>
      <point x="774" y="584" type="line"/>
      <point x="806" y="584" type="line"/>
      <point x="806" y="154" type="line" smooth="yes"/>
      <point x="806" y="118"/>
      <point x="781" y="58"/>
      <point x="737" y="15"/>
      <point x="676" y="-10"/>
      <point x="641" y="-10" type="qcurve" smooth="yes"/>
      <point x="584" y="-10"/>
      <point x="498" y="46"/>
      <point x="471" y="97" type="qcurve" smooth="yes"/>
      <point x="462" y="115" type="line"/>
      <point x="450" y="0" type="line"/>
      <point x="428" y="0" type="line"/>
      <point x="428" y="445" type="line" smooth="yes"/>
      <point x="428" y="460"/>
      <point x="416" y="493"/>
      <point x="396" y="523"/>
      <point x="370" y="547"/>
      <point x="356" y="553" type="qcurve" smooth="yes"/>
      <point x="353" y="554" type="line"/>
      <point x="268" y="478" type="line"/>
      <point x="185" y="554" type="line"/>
      <point x="182" y="553" type="line" smooth="yes"/>
      <point x="167" y="547"/>
      <point x="141" y="523"/>
      <point x="122" y="493"/>
      <point x="110" y="460"/>
      <point x="110" y="445" type="qcurve" smooth="yes"/>
      <point x="110" y="136" type="line" smooth="yes"/>
      <point x="110" y="115"/>
      <point x="122" y="74"/>
      <point x="146" y="41"/>
      <point x="182" y="20"/>
      <point x="206" y="20" type="qcurve" smooth="yes"/>
      <point x="230" y="20"/>
      <point x="276" y="40"/>
      <point x="296" y="56" type="qcurve"/>
      <point x="317" y="34" type="line"/>
      <point x="294" y="13"/>
      <point x="236" y="-10"/>
      <point x="206" y="-10" type="qcurve" smooth="yes"/>
      <point x="175" y="-10"/>
      <point x="128" y="13"/>
      <point x="96" y="53"/>
      <point x="80" y="106"/>
      <point x="80" y="136" type="qcurve" smooth="yes"/>
    </contour>
  </outline>
</glyph>
<glyph name="threesuperior" format="2">
  <advance width="885"/>
  <unicode hex="00B3"/>
  <unicode hex="0E13"/>
  <outline>
    <contour>
      <point x="80" y="504" type="line" smooth="yes"/>
      <point x="80" y="530"/>
      <point x="119" y="564"/>
      <point x="175" y="585"/>
      <point x="236" y="594"/>
      <point x="258" y="594" type="qcurve" smooth="yes"/>
      <point x="297" y="594"/>
      <point x="369" y="574"/>
      <point x="425" y="534"/>
      <point x="458" y="472"/>
      <point x="458" y="430" type="qcurve" smooth="yes"/>
      <point x="458" y="154" type="line" smooth="yes"/>
      <point x="458" y="94"/>
      <point x="530" y="20"/>
      <point x="590" y="20" type="qcurve" smooth="yes"/>
      <point x="638" y="20"/>
      <point x="708" y="60"/>
      <point x="752" y="124"/>
      <point x="773" y="206"/>
      <point x="773" y="248" type="qcurve" smooth="yes"/>
      <point x="773" y="584" type="line"/>
      <point x="805" y="584" type="line"/>
      <point x="805" y="1" type="line"/>
      <point x="781" y="1" type="line"/>
      <point x="769" y="112" type="line"/>
      <point x="760" y="95" type="line" smooth="yes"/>
      <point x="732" y="47"/>
      <point x="650" y="-10"/>
      <point x="593" y="-10" type="qcurve" smooth="yes"/>
      <point x="558" y="-10"/>
      <point x="497" y="15"/>
      <point x="453" y="58"/>
      <point x="428" y="118"/>
      <point x="428" y="154" type="qcurve" smooth="yes"/>
      <point x="428" y="430" type="line" smooth="yes"/>
      <point x="428" y="466"/>
      <point x="398" y="516"/>
      <point x="350" y="548"/>
      <point x="291" y="563"/>
      <point x="261" y="563" type="qcurve" smooth="yes"/>
      <point x="249" y="563"/>
      <point x="200" y="559"/>
      <point x="175" y="552" type="qcurve"/>
      <point x="152" y="547"/>
      <point x="110" y="524"/>
      <point x="110" y="503" type="qcurve" smooth="yes"/>
      <point x="110" y="89" type="line" smooth="yes"/>
      <point x="110" y="70"/>
      <point x="128" y="46"/>
      <point x="154" y="33"/>
      <point x="185" y="29"/>
      <point x="198" y="29" type="qcurve" smooth="yes"/>
      <point x="208" y="29"/>
      <point x="228" y="30"/>
      <point x="238" y="31" type="qcurve"/>
      <point x="238" y="0" type="line"/>
      <point x="169" y="0" type="line" smooth="yes"/>
      <point x="131" y="0"/>
      <point x="80" y="51"/>
      <point x="80" y="89" type="qcurve" smooth="yes"/>
    </contour>
  </outline>
</glyph>
<glyph name="acute" format="2">
  <advance width="592"/>
  <unicode hex="00B4"/>
  <unicode hex="0E14"/>
  <outline>
    <contour>
      <point x="512" y="0" type="line"/>
      <point x="482" y="0" type="line"/>
      <point x="482" y="431" type="line" smooth="yes"/>
      <point x="482" y="468"/>
      <point x="445" y="518"/>
      <point x="390" y="549"/>
      <point x="325" y="563"/>
      <point x="297" y="563" type="qcurve" smooth="yes"/>
      <point x="214" y="563"/>
      <point x="123" y="495"/>
      <point x="109" y="410" type="qcurve" smooth="yes"/>
      <point x="103" y="375"/>
      <point x="99" y="304"/>
      <point x="99" y="269" type="qcurve" smooth="yes"/>
      <point x="99" y="202" type="line" smooth="yes"/>
      <point x="99" y="183"/>
      <point x="104" y="142"/>
      <point x="112" y="104"/>
      <point x="127" y="67"/>
      <point x="150" y="38"/>
      <point x="183" y="20"/>
      <point x="206" y="20" type="qcurve" smooth="yes"/>
      <point x="231" y="20"/>
      <point x="277" y="40"/>
      <point x="296" y="56" type="qcurve"/>
      <point x="317" y="34" type="line"/>
      <point x="294" y="13"/>
      <point x="235" y="-10"/>
      <point x="205" y="-10" type="qcurve" smooth="yes"/>
      <point x="154" y="-10"/>
      <point x="99" y="43"/>
      <point x="86" y="85" type="qcurve" smooth="yes"/>
      <point x="79" y="107"/>
      <point x="73" y="152"/>
      <point x="69" y="198"/>
      <point x="69" y="221" type="qcurve" smooth="yes"/>
      <point x="69" y="262" type="line" smooth="yes"/>
      <point x="69" y="330"/>
      <point x="80" y="451"/>
      <point x="125" y="541"/>
      <point x="216" y="594"/>
      <point x="297" y="594" type="qcurve" smooth="yes"/>
      <point x="335" y="594"/>
      <point x="411" y="574"/>
      <point x="473" y="534"/>
      <point x="512" y="473"/>
      <point x="512" y="431" type="qcurve" smooth="yes"/>
    </contour>
  </outline>
</glyph>
